SplineFontDB: 3.0
FontName: SourceSansPro-Regular
FullName: Source Sans Pro
FamilyName: Source Sans Pro
Weight: Book
Copyright: Copyright 2010, 2012 Adobe Systems Incorporated. All Rights Reserved.
Version: 1.034;PS Version 1.000;hotconv 1.0.70;makeotf.lib2.5.58329
ItalicAngle: 0
UnderlinePosition: -102.4
UnderlineWidth: 102.4
Ascent: 1536
Descent: 512
sfntRevision: 0x000108b4
LayerCount: 2
Layer: 0 0 "Back"  1
Layer: 1 0 "Fore"  0
XUID: [1021 332 1330122705 9071538]
BaseHoriz: 2 'ideo' 'romn'
BaseScript: 'DFLT' 1  -348 0
BaseScript: 'latn' 1  -348 0
FSType: 0
OS2Version: 3
OS2_WeightWidthSlopeOnly: 0
OS2_UseTypoMetrics: 1
CreationTime: 1344992079
ModificationTime: 1354237595
PfmFamily: 17
TTFWeight: 400
TTFWidth: 5
LineGap: 0
VLineGap: 0
Panose: 2 11 5 3 3 4 3 2 2 4
OS2TypoAscent: 1536
OS2TypoAOffset: 0
OS2TypoDescent: -512
OS2TypoDOffset: 0
OS2TypoLinegap: 0
OS2WinAscent: 2015
OS2WinAOffset: 0
OS2WinDescent: 559
OS2WinDOffset: 0
HheadAscent: 2015
HheadAOffset: 0
HheadDescent: -559
HheadDOffset: 0
OS2SubXSize: 1331
OS2SubYSize: 1229
OS2SubXOff: 0
OS2SubYOff: 154
OS2SupXSize: 1331
OS2SupYSize: 1229
OS2SupXOff: 0
OS2SupYOff: 717
OS2StrikeYSize: 102
OS2StrikeYPos: 590
OS2Vendor: 'ADBE'
OS2CodePages: 20000193.00000000
OS2UnicodeRanges: 20000007.00000001.00000000.00000000
Lookup: 1 0 0 "'aalt' Access All Alternates in Latin lookup 0"  {"'aalt' Access All Alternates in Latin lookup 0 subtable"  } ['aalt' ('DFLT' <'dflt' > 'latn' <'dflt' > ) ]
Lookup: 3 0 0 "'aalt' Access All Alternates in Latin lookup 1"  {"'aalt' Access All Alternates in Latin lookup 1 subtable"  } ['aalt' ('DFLT' <'dflt' > 'latn' <'dflt' > ) ]
Lookup: 2 0 0 "Multiple Substitution lookup 2"  {"Multiple Substitution lookup 2 subtable"  } []
Lookup: 6 0 0 "'ccmp' Glyph Composition/Decomposition in Latin lookup 3"  {"'ccmp' Glyph Composition/Decomposition in Latin lookup 3 subtable"  } ['ccmp' ('DFLT' <'dflt' > 'latn' <'dflt' > ) ]

StartChar: .notdef
Encoding: 65536 -1 0
Width: 1337
Flags: HW
LayerCount: 2
Fore
SplineSet
182 1352 m 1
 1157 1352 l 1
 1157 0 l 1
 182 0 l 1
 182 1352 l 1
575 696 m 1
 315 1171 l 1
 315 225 l 1
 575 696 l 1
1020 225 m 1
 1020 1171 l 1
 762 696 l 1
 1020 225 l 1
930 119 m 1
 780 389 l 1
 674 600 l 1
 666 600 l 1
 582 436 493 277 403 119 c 1
 930 119 l 1
674 793 m 1
 749 941 829 1085 909 1229 c 1
 428 1229 l 1
 508 1085 589 940 666 793 c 1
 674 793 l 1
EndSplineSet
EndChar

StartChar: A
Encoding: 65 65 4
Width: 1101
Flags: HW
AnchorPoint: "Anchor-4" 950 0 basechar 0
AnchorPoint: "Anchor-2" 549 -45 basechar 0
AnchorPoint: "Anchor-0" 549 1389 basechar 0
LayerCount: 2
Fore
SplineSet
750 547 m 1
 686 752 l 2
 639 904 597 1049 553 1204 c 1
 545 1204 l 1
 501 1049 459 904 412 752 c 2
 346 547 l 1
 750 547 l 1
793 410 m 1
 303 410 l 1
 174 0 l 1
 0 0 l 1
 455 1343 l 1
 647 1343 l 1
 1102 0 l 1
 922 0 l 1
 793 410 l 1
EndSplineSet
EndChar

StartChar: B
Encoding: 66 66 5
Width: 1193
Flags: HW
AnchorPoint: "Anchor-2" 614 -45 basechar 0
AnchorPoint: "Anchor-0" 582 1389 basechar 0
LayerCount: 2
Fore
SplineSet
805 715 m 1
 986 687 1116 593 1116 393 c 0
 1116 111 891 0 608 0 c 2
 178 0 l 1
 178 1343 l 1
 578 1343 l 2
 832 1343 1040 1267 1040 1016 c 0
 1040 858 943 758 805 723 c 1
 805 715 l 1
872 1001 m 0
 872 1167 737 1208 557 1208 c 2
 350 1208 l 1
 350 770 l 1
 549 770 l 2
 745 770 872 825 872 1001 c 0
948 401 m 0
 948 590 789 643 584 643 c 2
 350 643 l 1
 350 135 l 1
 584 135 l 2
 794 135 948 202 948 401 c 0
EndSplineSet
EndChar

StartChar: C
Encoding: 67 67 6
Width: 1159
Flags: HW
AnchorPoint: "Anchor-2" 698 -45 basechar 0
AnchorPoint: "Anchor-1" 698 0 basechar 0
AnchorPoint: "Anchor-0" 670 1389 basechar 0
LayerCount: 2
Fore
SplineSet
1098 170 m 1
 1005 60 880 -25 690 -25 c 0
 502 -25 363 53 269 159 c 128
 165 276 100 452 100 672 c 0
 100 995 238 1222 462 1320 c 128
 535 1352 614 1368 700 1368 c 0
 862 1368 990 1287 1067 1202 c 1
 971 1094 l 1
 908 1162 826 1219 702 1219 c 0
 480 1219 360 1076 307 901 c 128
 287 834 276 759 276 676 c 0
 276 431 360 246 521 164 c 128
 572 138 630 125 694 125 c 256
 840 125 925 191 1001 274 c 1
 1098 170 l 1
EndSplineSet
EndChar

StartChar: D
Encoding: 68 68 7
Width: 1253
Flags: HW
AnchorPoint: "Anchor-2" 618 -45 basechar 0
AnchorPoint: "Anchor-0" 627 1389 basechar 0
LayerCount: 2
Fore
SplineSet
514 1343 m 2
 934 1343 1149 1101 1149 678 c 0
 1149 354 1024 138 791 46 c 128
 713 15 623 0 522 0 c 2
 178 0 l 1
 178 1343 l 1
 514 1343 l 2
973 678 m 256
 973 1009 828 1204 502 1204 c 2
 350 1204 l 1
 350 139 l 1
 502 139 l 2
 828 139 973 348 973 678 c 256
EndSplineSet
EndChar

StartChar: E
Encoding: 69 69 8
Width: 1069
Flags: HW
AnchorPoint: "Anchor-4" 791 0 basechar 0
AnchorPoint: "Anchor-2" 604 -45 basechar 0
AnchorPoint: "Anchor-0" 578 1389 basechar 0
LayerCount: 2
Fore
SplineSet
178 1343 m 1
 952 1343 l 1
 952 1200 l 1
 350 1200 l 1
 350 778 l 1
 858 778 l 1
 858 633 l 1
 350 633 l 1
 350 145 l 1
 973 145 l 1
 973 0 l 1
 178 0 l 1
 178 1343 l 1
EndSplineSet
EndChar

StartChar: F
Encoding: 70 70 9
Width: 1001
Flags: HW
AnchorPoint: "Anchor-2" 272 -45 basechar 0
AnchorPoint: "Anchor-0" 582 1389 basechar 0
LayerCount: 2
Fore
SplineSet
178 1343 m 1
 954 1343 l 1
 954 1200 l 1
 350 1200 l 1
 350 745 l 1
 862 745 l 1
 862 602 l 1
 350 602 l 1
 350 0 l 1
 178 0 l 1
 178 1343 l 1
EndSplineSet
EndChar

StartChar: G
Encoding: 71 71 10
Width: 1253
Flags: HW
AnchorPoint: "Anchor-2" 707 -45 basechar 0
AnchorPoint: "Anchor-0" 719 1389 basechar 0
LayerCount: 2
Fore
SplineSet
1122 131 m 1
 1034 43 882 -25 705 -25 c 0
 403 -25 225 148 145 378 c 128
 115 465 100 563 100 672 c 0
 100 998 243 1223 472 1320 c 128
 548 1352 631 1368 721 1368 c 0
 897 1368 1022 1288 1106 1202 c 1
 1008 1094 l 1
 941 1164 859 1219 723 1219 c 0
 494 1219 364 1079 308 901 c 128
 287 834 276 759 276 676 c 0
 276 426 362 243 531 164 c 128
 586 138 651 125 723 125 c 0
 821 125 915 158 967 205 c 1
 967 555 l 1
 682 555 l 1
 682 696 l 1
 1122 696 l 1
 1122 131 l 1
EndSplineSet
EndChar

StartChar: H
Encoding: 72 72 11
Width: 1325
Flags: HW
AnchorPoint: "Anchor-2" 659 -45 basechar 0
AnchorPoint: "Anchor-0" 659 1389 basechar 0
LayerCount: 2
Fore
SplineSet
178 1343 m 1
 350 1343 l 1
 350 780 l 1
 975 780 l 1
 975 1343 l 1
 1145 1343 l 1
 1145 0 l 1
 975 0 l 1
 975 633 l 1
 350 633 l 1
 350 0 l 1
 178 0 l 1
 178 1343 l 1
EndSplineSet
EndChar

StartChar: I
Encoding: 73 73 12
Width: 528
Flags: HW
AnchorPoint: "Anchor-4" 217 0 basechar 0
AnchorPoint: "Anchor-2" 264 -45 basechar 0
AnchorPoint: "Anchor-0" 264 1389 basechar 0
LayerCount: 2
Fore
SplineSet
178 1343 m 1
 350 1343 l 1
 350 0 l 1
 178 0 l 1
 178 1343 l 1
EndSplineSet
Substitution2: "'ss04' Style Set 4 in Latin lookup 21 subtable" I.a
Substitution2: "'aalt' Access All Alternates in Latin lookup 0 subtable" I.a
EndChar

StartChar: J
Encoding: 74 74 13
Width: 970
Flags: HW
AnchorPoint: "Anchor-2" 514 -45 basechar 0
AnchorPoint: "Anchor-0" 707 1389 basechar 0
LayerCount: 2
Fore
SplineSet
799 395 m 2
 799 143 681 -25 428 -25 c 0
 261 -25 138 47 59 190 c 1
 180 276 l 1
 231 190 295 125 414 125 c 0
 579 125 629 232 629 412 c 2
 629 1343 l 1
 799 1343 l 1
 799 395 l 2
EndSplineSet
EndChar

StartChar: K
Encoding: 75 75 14
Width: 1175
Flags: HW
AnchorPoint: "Anchor-2" 666 -45 basechar 0
AnchorPoint: "Anchor-0" 631 1389 basechar 0
LayerCount: 2
Fore
SplineSet
178 1343 m 1
 350 1343 l 1
 350 670 l 1
 354 670 l 1
 913 1343 l 1
 1108 1343 l 1
 686 831 l 1
 1171 0 l 1
 981 0 l 1
 580 698 l 1
 350 426 l 1
 350 0 l 1
 178 0 l 1
 178 1343 l 1
EndSplineSet
EndChar

StartChar: L
Encoding: 76 76 15
Width: 985
Flags: HW
AnchorPoint: "Anchor-2" 588 -45 basechar 0
AnchorPoint: "Anchor-0" 266 1389 basechar 0
LayerCount: 2
Fore
SplineSet
178 1343 m 1
 350 1343 l 1
 350 145 l 1
 936 145 l 1
 936 0 l 1
 178 0 l 1
 178 1343 l 1
EndSplineSet
EndChar

StartChar: M
Encoding: 77 77 16
Width: 1478
Flags: HW
AnchorPoint: "Anchor-2" 741 -45 basechar 0
AnchorPoint: "Anchor-0" 737 1389 basechar 0
LayerCount: 2
Fore
SplineSet
315 1137 m 1
 323 1024 336 859 336 739 c 2
 336 0 l 1
 178 0 l 1
 178 1343 l 1
 381 1343 l 1
 500 1011 621 683 737 348 c 1
 745 348 l 1
 858 684 980 1012 1098 1343 c 1
 1298 1343 l 1
 1298 0 l 1
 1137 0 l 1
 1137 739 l 2
 1137 858 1151 1024 1159 1137 c 1
 1151 1137 l 1
 1033 800 908 468 786 135 c 1
 688 135 l 1
 566 468 442 800 324 1137 c 1
 315 1137 l 1
EndSplineSet
EndChar

StartChar: N
Encoding: 78 78 17
Width: 1314
Flags: HW
AnchorPoint: "Anchor-2" 666 -45 basechar 0
AnchorPoint: "Anchor-0" 666 1389 basechar 0
LayerCount: 2
Fore
SplineSet
319 1122 m 1
 327 987 340 845 340 702 c 2
 340 0 l 1
 178 0 l 1
 178 1343 l 1
 354 1343 l 1
 842 500 l 1
 987 221 l 1
 995 221 l 1
 987 355 973 507 973 649 c 2
 973 1343 l 1
 1135 1343 l 1
 1135 0 l 1
 958 0 l 1
 473 846 l 1
 328 1122 l 1
 319 1122 l 1
EndSplineSet
EndChar

StartChar: O
Encoding: 79 79 18
Width: 1349
Flags: HW
AnchorPoint: "Anchor-4" 676 0 basechar 0
AnchorPoint: "Anchor-3" 954 1323 basechar 0
AnchorPoint: "Anchor-2" 676 -45 basechar 0
AnchorPoint: "Anchor-0" 676 1389 basechar 0
LayerCount: 2
Fore
SplineSet
676 -25 m 0
 488 -25 352 57 261 165 c 128
 160 284 100 460 100 678 c 256
 100 996 224 1223 443 1321 c 128
 513 1352 591 1368 676 1368 c 0
 861 1368 998 1289 1089 1183 c 128
 1189 1066 1249 894 1249 678 c 0
 1249 357 1124 127 906 25 c 128
 836 -8 759 -25 676 -25 c 0
676 125 m 256
 812 125 903 190 964 275 c 128
 1034 372 1073 510 1073 678 c 0
 1073 917 994 1100 839 1181 c 128
 791 1206 736 1219 676 1219 c 256
 542 1219 448 1155 386 1073 c 128
 316 980 276 843 276 678 c 0
 276 437 356 247 512 164 c 128
 561 138 616 125 676 125 c 256
EndSplineSet
EndChar

StartChar: P
Encoding: 80 80 19
Width: 1169
Flags: HW
AnchorPoint: "Anchor-2" 276 -45 basechar 0
AnchorPoint: "Anchor-0" 614 1389 basechar 0
LayerCount: 2
Fore
SplineSet
592 1343 m 2
 888 1343 1087 1244 1087 948 c 0
 1087 657 883 532 592 532 c 2
 350 532 l 1
 350 0 l 1
 178 0 l 1
 178 1343 l 1
 592 1343 l 2
918 948 m 0
 918 1155 784 1206 569 1206 c 2
 350 1206 l 1
 350 672 l 1
 569 672 l 2
 787 672 918 741 918 948 c 0
EndSplineSet
EndChar

StartChar: Q
Encoding: 81 81 20
Width: 1349
Flags: HW
AnchorPoint: "Anchor-0" 678 1405 basechar 0
LayerCount: 2
Fore
SplineSet
274 678 m 0
 274 437 354 247 509 164 c 128
 557 138 612 125 672 125 c 256
 808 125 898 190 959 275 c 128
 1029 372 1069 510 1069 678 c 0
 1069 917 990 1100 835 1181 c 128
 787 1206 732 1219 672 1219 c 256
 538 1219 446 1155 384 1073 c 128
 314 980 274 843 274 678 c 0
1102 -193 m 0
 1159 -193 1201 -184 1243 -172 c 1
 1276 -305 l 1
 1228 -321 1152 -336 1083 -336 c 0
 829 -336 665 -198 588 -18 c 1
 342 14 196 189 133 409 c 128
 110 490 98 580 98 678 c 0
 98 995 221 1224 439 1321 c 128
 509 1352 587 1368 672 1368 c 256
 859 1368 994 1289 1086 1183 c 128
 1186 1066 1247 894 1247 678 c 0
 1247 386 1145 172 967 58 c 128
 908 20 843 -4 772 -16 c 1
 830 -127 941 -193 1102 -193 c 0
EndSplineSet
EndChar

StartChar: R
Encoding: 82 82 21
Width: 1179
Flags: HW
AnchorPoint: "Anchor-2" 629 -45 basechar 0
AnchorPoint: "Anchor-0" 598 1389 basechar 0
LayerCount: 2
Fore
SplineSet
899 967 m 0
 899 1156 771 1206 575 1206 c 2
 350 1206 l 1
 350 707 l 1
 575 707 l 2
 770 707 899 780 899 967 c 0
1069 967 m 0
 1069 750 944 631 768 586 c 1
 1110 0 l 1
 915 0 l 1
 592 567 l 1
 350 567 l 1
 350 0 l 1
 178 0 l 1
 178 1343 l 1
 600 1343 l 2
 877 1343 1069 1244 1069 967 c 0
EndSplineSet
EndChar

StartChar: S
Encoding: 83 83 22
Width: 1083
Flags: HW
AnchorPoint: "Anchor-2" 555 -45 basechar 0
AnchorPoint: "Anchor-1" 555 0 basechar 0
AnchorPoint: "Anchor-0" 565 1389 basechar 0
LayerCount: 2
Fore
SplineSet
569 1219 m 0
 430 1219 317 1155 317 1022 c 0
 317 886 445 840 541 799 c 2
 733 717 l 2
 878 655 1010 564 1010 358 c 0
 1010 169 887 56 742 5 c 128
 685 -15 622 -25 551 -25 c 0
 345 -25 188 63 82 174 c 1
 184 293 l 1
 267 205 395 125 555 125 c 0
 712 125 836 197 836 344 c 0
 836 494 713 533 610 582 c 1
 418 666 l 2
 282 725 145 816 145 1012 c 0
 145 1188 265 1294 400 1341 c 128
 451 1359 508 1368 569 1368 c 0
 741 1368 877 1292 965 1202 c 1
 874 1092 l 1
 801 1163 705 1219 569 1219 c 0
EndSplineSet
EndChar

StartChar: T
Encoding: 84 84 23
Width: 1087
Flags: HW
AnchorPoint: "Anchor-2" 545 -45 basechar 0
AnchorPoint: "Anchor-1" 545 0 basechar 0
AnchorPoint: "Anchor-0" 541 1389 basechar 0
LayerCount: 2
Fore
SplineSet
459 1200 m 1
 51 1200 l 1
 51 1343 l 1
 1036 1343 l 1
 1036 1200 l 1
 629 1200 l 1
 629 0 l 1
 459 0 l 1
 459 1200 l 1
EndSplineSet
EndChar

StartChar: U
Encoding: 85 85 24
Width: 1310
Flags: HW
AnchorPoint: "Anchor-4" 655 0 basechar 0
AnchorPoint: "Anchor-3" 1071 1364 basechar 0
AnchorPoint: "Anchor-2" 655 -45 basechar 0
AnchorPoint: "Anchor-0" 655 1389 basechar 0
LayerCount: 2
Fore
SplineSet
655 -25 m 256
 310 -25 172 201 172 555 c 2
 172 1343 l 1
 344 1343 l 1
 344 551 l 2
 344 308 421 125 655 125 c 0
 894 125 975 303 975 551 c 2
 975 1343 l 1
 1139 1343 l 1
 1139 555 l 2
 1139 201 1000 -25 655 -25 c 256
EndSplineSet
EndChar

StartChar: V
Encoding: 86 86 25
Width: 1044
Flags: HW
AnchorPoint: "Anchor-2" 522 -45 basechar 0
AnchorPoint: "Anchor-0" 520 1389 basechar 0
LayerCount: 2
Fore
SplineSet
-4 1343 m 1
 176 1343 l 1
 393 618 l 2
 441 453 472 336 522 174 c 1
 530 174 l 1
 576 322 617 465 659 618 c 1
 874 1343 l 1
 1049 1343 l 1
 623 0 l 1
 424 0 l 1
 -4 1343 l 1
EndSplineSet
EndChar

StartChar: W
Encoding: 87 87 26
Width: 1599
Flags: HW
AnchorPoint: "Anchor-2" 807 -45 basechar 0
AnchorPoint: "Anchor-0" 801 1389 basechar 0
LayerCount: 2
Fore
SplineSet
41 1343 m 1
 217 1343 l 1
 358 612 l 2
 385 464 411 326 438 178 c 1
 446 178 l 1
 476 326 508 467 541 612 c 1
 727 1343 l 1
 883 1343 l 1
 1069 612 l 1
 1100 467 1133 323 1165 178 c 1
 1174 178 l 1
 1201 324 1224 465 1249 612 c 1
 1391 1343 l 1
 1556 1343 l 1
 1278 0 l 1
 1071 0 l 1
 868 809 l 1
 846 912 824 1009 805 1114 c 1
 797 1114 l 1
 775 1010 751 913 729 809 c 1
 528 0 l 1
 326 0 l 1
 41 1343 l 1
EndSplineSet
EndChar

StartChar: X
Encoding: 88 88 27
Width: 1040
Flags: HW
AnchorPoint: "Anchor-2" 510 -45 basechar 0
AnchorPoint: "Anchor-0" 522 1389 basechar 0
LayerCount: 2
Fore
SplineSet
418 694 m 1
 51 1343 l 1
 240 1343 l 1
 424 999 l 2
 461 927 487 880 528 805 c 1
 537 805 l 1
 574 881 594 929 631 999 c 2
 809 1343 l 1
 989 1343 l 1
 625 686 l 1
 1016 0 l 1
 827 0 l 1
 629 362 l 2
 590 434 555 501 514 578 c 1
 506 578 l 1
 470 500 437 433 399 362 c 2
 205 0 l 1
 27 0 l 1
 418 694 l 1
EndSplineSet
EndChar

StartChar: Y
Encoding: 89 89 28
Width: 964
Flags: HW
AnchorPoint: "Anchor-2" 485 -45 basechar 0
AnchorPoint: "Anchor-0" 481 1389 basechar 0
LayerCount: 2
Fore
SplineSet
397 520 m 1
 -8 1343 l 1
 176 1343 l 1
 348 965 l 2
 393 865 433 772 479 672 c 1
 487 672 l 1
 533 771 579 864 621 965 c 1
 795 1343 l 1
 971 1343 l 1
 567 520 l 1
 567 0 l 1
 397 0 l 1
 397 520 l 1
EndSplineSet
EndChar

StartChar: Z
Encoding: 90 90 29
Width: 1093
Flags: HW
AnchorPoint: "Anchor-2" 571 -45 basechar 0
AnchorPoint: "Anchor-0" 569 1389 basechar 0
LayerCount: 2
Fore
SplineSet
86 102 m 1
 795 1200 l 1
 150 1200 l 1
 150 1343 l 1
 1006 1343 l 1
 1006 1243 l 1
 297 145 l 1
 1012 145 l 1
 1012 0 l 1
 86 0 l 1
 86 102 l 1
EndSplineSet
EndChar

StartChar: a
Encoding: 97 97 30
Width: 1048
Flags: HW
AnchorPoint: "Anchor-4" 848 0 basechar 0
AnchorPoint: "Anchor-2" 516 -45 basechar 0
AnchorPoint: "Anchor-0" 551 1040 basechar 0
LayerCount: 2
Fore
SplineSet
412 -25 m 0
 239 -25 119 82 119 258 c 0
 119 367 167 451 265 509 c 128
 363 567 518 608 731 631 c 1
 731 777 674 881 526 881 c 0
 404 881 303 825 229 774 c 1
 162 891 l 1
 256 952 396 1020 553 1020 c 0
 798 1020 899 855 899 610 c 2
 899 0 l 1
 760 0 l 1
 745 119 l 1
 741 119 l 1
 659 51 550 -25 412 -25 c 0
285 270 m 0
 285 161 355 111 459 111 c 0
 507 111 552 121 595 144 c 128
 638 167 683 200 731 244 c 1
 731 520 l 1
 592 502 471 480 382 428 c 128
 325 395 285 349 285 270 c 0
EndSplineSet
Substitution2: "'ss02' Style Set 2 in Latin lookup 19 subtable" a.a
Substitution2: "'sups' Superscript in Latin lookup 12 subtable" uni1D43
AlternateSubs2: "'aalt' Access All Alternates in Latin lookup 1 subtable" uni1D43 a.a
EndChar

StartChar: b
Encoding: 98 98 31
Width: 1136
Flags: HW
AnchorPoint: "Anchor-2" 582 -45 basechar 0
AnchorPoint: "Anchor-0" 258 1495 basechar 0
LayerCount: 2
Fore
SplineSet
608 -25 m 0
 492 -25 394 35 324 98 c 1
 317 98 l 1
 303 0 l 1
 168 0 l 1
 168 1458 l 1
 336 1458 l 1
 336 1061 l 1
 332 881 l 1
 407 947 514 1020 643 1020 c 0
 854 1020 967 891 1013 722 c 128
 1030 660 1038 590 1038 514 c 0
 1038 270 938 87 772 11 c 128
 720 -13 665 -25 608 -25 c 0
864 512 m 0
 864 715 803 879 602 879 c 0
 521 879 433 833 336 743 c 1
 336 221 l 1
 401 164 481 117 580 117 c 0
 729 117 808 226 843 346 c 128
 857 395 864 451 864 512 c 0
EndSplineSet
Substitution2: "'sups' Superscript in Latin lookup 12 subtable" uni1D47
Substitution2: "'aalt' Access All Alternates in Latin lookup 0 subtable" uni1D47
EndChar

StartChar: c
Encoding: 99 99 32
Width: 933
Flags: HW
AnchorPoint: "Anchor-2" 553 -45 basechar 0
AnchorPoint: "Anchor-1" 553 0 basechar 0
AnchorPoint: "Anchor-0" 565 1040 basechar 0
LayerCount: 2
Fore
SplineSet
885 104 m 1
 807 35 697 -25 561 -25 c 0
 333 -25 193 104 130 275 c 128
 106 340 94 414 94 496 c 0
 94 744 214 914 390 985 c 128
 448 1008 509 1020 573 1020 c 0
 704 1020 796 964 864 901 c 1
 780 793 l 1
 728 838 669 881 580 881 c 0
 421 881 333 774 292 652 c 128
 276 605 268 553 268 496 c 256
 268 325 336 198 451 142 c 128
 489 124 530 115 575 115 c 0
 676 115 754 165 809 215 c 1
 885 104 l 1
EndSplineSet
Substitution2: "'sups' Superscript in Latin lookup 12 subtable" uni1D9C
Substitution2: "'aalt' Access All Alternates in Latin lookup 0 subtable" uni1D9C
EndChar

StartChar: d
Encoding: 100 100 33
Width: 1136
Flags: HW
AnchorPoint: "Anchor-2" 616 -45 basechar 0
AnchorPoint: "Anchor-0" 805 1495 basechar 0
LayerCount: 2
Fore
SplineSet
508 -25 m 0
 229 -25 96 198 96 496 c 0
 96 734 204 907 365 983 c 128
 417 1008 471 1020 528 1020 c 256
 657 1020 729 968 807 905 c 1
 799 1075 l 1
 799 1458 l 1
 969 1458 l 1
 969 0 l 1
 829 0 l 1
 815 117 l 1
 809 117 l 1
 740 50 637 -25 508 -25 c 0
799 774 m 1
 731 835 665 879 557 879 c 0
 412 879 330 767 293 653 c 128
 278 607 270 555 270 498 c 0
 270 287 349 117 545 117 c 0
 663 117 734 180 799 254 c 1
 799 774 l 1
EndSplineSet
Substitution2: "'sups' Superscript in Latin lookup 12 subtable" uni1D48
Substitution2: "'aalt' Access All Alternates in Latin lookup 0 subtable" uni1D48
EndChar

StartChar: e
Encoding: 101 101 34
Width: 1015
Flags: HW
AnchorPoint: "Anchor-4" 797 0 basechar 0
AnchorPoint: "Anchor-2" 537 -45 basechar 0
AnchorPoint: "Anchor-0" 541 1040 basechar 0
LayerCount: 2
Fore
SplineSet
899 78 m 1
 813 24 710 -25 571 -25 c 0
 342 -25 196 106 131 276 c 128
 106 340 94 414 94 496 c 256
 94 738 209 910 375 984 c 128
 428 1008 484 1020 541 1020 c 0
 747 1020 862 905 911 745 c 128
 929 688 938 624 938 553 c 0
 938 516 936 486 932 461 c 1
 260 461 l 1
 273 261 388 111 592 111 c 0
 696 111 773 146 840 188 c 1
 899 78 l 1
791 571 m 1
 791 755 717 887 545 887 c 0
 415 887 334 801 292 706 c 128
 275 667 263 622 258 571 c 1
 791 571 l 1
EndSplineSet
Substitution2: "'sups' Superscript in Latin lookup 12 subtable" uni1D49
Substitution2: "'aalt' Access All Alternates in Latin lookup 0 subtable" uni1D49
EndChar

StartChar: f
Encoding: 102 102 35
Width: 598
Flags: HW
AnchorPoint: "Anchor-2" 281 -45 basechar 0
AnchorPoint: "Anchor-0" 449 1516 basechar 0
LayerCount: 2
Fore
SplineSet
197 1153 m 2
 197 1355 285 1483 487 1483 c 0
 551 1483 608 1469 653 1450 c 1
 616 1321 l 1
 579 1337 542 1346 504 1346 c 0
 411 1346 365 1281 365 1153 c 2
 365 995 l 1
 575 995 l 1
 575 858 l 1
 365 858 l 1
 365 0 l 1
 197 0 l 1
 197 858 l 1
 61 858 l 1
 61 985 l 1
 197 995 l 1
 197 1153 l 2
EndSplineSet
Substitution2: "'sups' Superscript in Latin lookup 12 subtable" uni1DA0
Substitution2: "'aalt' Access All Alternates in Latin lookup 0 subtable" uni1DA0
EndChar

StartChar: g
Encoding: 103 103 36
Width: 1032
Flags: HW
AnchorPoint: "Anchor-2" 512 -471 basechar 0
AnchorPoint: "Anchor-0" 528 1040 basechar 0
LayerCount: 2
Fore
SplineSet
342 0 m 1
 288 -39 240 -90 240 -168 c 0
 240 -296 383 -342 528 -342 c 0
 660 -342 772 -296 821 -215 c 128
 836 -190 844 -165 844 -139 c 0
 844 -35 756 -16 643 -16 c 2
 471 -16 l 2
 425 -16 380 -12 342 0 c 1
659 123 m 2
 862 123 1008 72 1008 -115 c 0
 1008 -226 944 -304 872 -356 c 128
 784 -419 657 -459 504 -459 c 0
 329 -459 187 -413 122 -305 c 128
 102 -272 92 -234 92 -190 c 0
 92 -86 168 -14 238 35 c 1
 238 43 l 1
 189 73 150 126 150 205 c 0
 150 290 208 355 258 389 c 1
 258 397 l 1
 193 451 129 547 129 666 c 0
 129 840 229 949 359 995 c 128
 405 1011 453 1020 504 1020 c 0
 557 1020 606 1009 645 995 c 1
 991 995 l 1
 991 866 l 1
 786 866 l 1
 830 822 868 749 868 662 c 0
 868 492 772 387 646 340 c 128
 602 324 555 315 504 315 c 0
 448 315 395 331 354 350 c 1
 321 322 291 289 291 231 c 0
 291 200 303 174 328 154 c 128
 353 134 399 123 467 123 c 2
 659 123 l 2
504 897 m 256
 376 897 293 801 293 666 c 0
 293 554 345 478 423 444 c 128
 448 433 475 428 504 428 c 256
 637 428 715 531 715 666 c 0
 715 801 632 897 504 897 c 256
EndSplineSet
Substitution2: "'ss03' Style Set 3 in Latin lookup 20 subtable" g.a
Substitution2: "'sups' Superscript in Latin lookup 12 subtable" uni1D4D
AlternateSubs2: "'aalt' Access All Alternates in Latin lookup 1 subtable" uni1D4D g.a
EndChar

StartChar: h
Encoding: 104 104 37
Width: 1114
Flags: HW
AnchorPoint: "Anchor-2" 586 -45 basechar 0
AnchorPoint: "Anchor-0" 252 1495 basechar 0
LayerCount: 2
Fore
SplineSet
797 608 m 2
 797 772 758 874 608 874 c 0
 556 874 511 862 471 836 c 128
 431 810 387 772 336 721 c 1
 336 0 l 1
 168 0 l 1
 168 1458 l 1
 336 1458 l 1
 336 1061 l 1
 330 856 l 1
 378 901 427 940 479 972 c 128
 531 1004 592 1020 662 1020 c 0
 888 1020 965 868 965 631 c 2
 965 0 l 1
 797 0 l 1
 797 608 l 2
EndSplineSet
Substitution2: "'sups' Superscript in Latin lookup 12 subtable" uni02B0
Substitution2: "'aalt' Access All Alternates in Latin lookup 0 subtable" uni02B0
EndChar

StartChar: i
Encoding: 105 105 38
Width: 503
Flags: HW
AnchorPoint: "Anchor-4" 311 0 basechar 0
AnchorPoint: "Anchor-2" 252 -45 basechar 0
AnchorPoint: "Anchor-0" 252 1421 basechar 0
LayerCount: 2
Fore
SplineSet
371 1309 m 0
 371 1246 318 1200 254 1200 c 256
 190 1200 137 1246 137 1309 c 0
 137 1374 189 1417 254 1417 c 256
 319 1417 371 1374 371 1309 c 0
168 995 m 1
 336 995 l 1
 336 0 l 1
 168 0 l 1
 168 995 l 1
EndSplineSet
Substitution2: "'sups' Superscript in Latin lookup 12 subtable" uni2071
Substitution2: "'aalt' Access All Alternates in Latin lookup 0 subtable" uni2071
EndChar

StartChar: j
Encoding: 106 106 39
Width: 505
Flags: HW
AnchorPoint: "Anchor-2" 121 -473 basechar 0
AnchorPoint: "Anchor-0" 256 1421 basechar 0
LayerCount: 2
Fore
SplineSet
47 -307 m 0
 153 -307 170 -224 170 -113 c 2
 170 995 l 1
 338 995 l 1
 338 -113 l 2
 338 -313 267 -444 66 -444 c 0
 8 -444 -42 -433 -82 -418 c 1
 -47 -291 l 1
 -22 -299 13 -307 47 -307 c 0
371 1309 m 0
 371 1247 318 1200 256 1200 c 0
 192 1200 139 1246 139 1309 c 0
 139 1374 191 1417 256 1417 c 0
 319 1417 371 1373 371 1309 c 0
EndSplineSet
Substitution2: "'sups' Superscript in Latin lookup 12 subtable" uni02B2
Substitution2: "'aalt' Access All Alternates in Latin lookup 0 subtable" uni02B2
EndChar

StartChar: k
Encoding: 107 107 40
Width: 1013
Flags: HW
AnchorPoint: "Anchor-2" 555 -45 basechar 0
AnchorPoint: "Anchor-0" 258 1495 basechar 0
LayerCount: 2
Fore
SplineSet
168 1458 m 1
 334 1458 l 1
 334 471 l 1
 340 471 l 1
 764 995 l 1
 950 995 l 1
 616 596 l 1
 995 0 l 1
 811 0 l 1
 520 479 l 1
 334 262 l 1
 334 0 l 1
 168 0 l 1
 168 1458 l 1
EndSplineSet
Substitution2: "'sups' Superscript in Latin lookup 12 subtable" uni1D4F
Substitution2: "'aalt' Access All Alternates in Latin lookup 0 subtable" uni1D4F
EndChar

StartChar: l
Encoding: 108 108 41
Width: 522
Flags: HW
AnchorPoint: "Anchor-2" 250 -45 basechar 0
AnchorPoint: "Anchor-0" 250 1495 basechar 0
LayerCount: 2
Fore
SplineSet
346 -25 m 0
 211 -25 168 62 168 201 c 2
 168 1458 l 1
 336 1458 l 1
 336 188 l 2
 336 146 349 115 383 115 c 0
 391 115 391 115 398 115 c 128
 403 115 410 116 420 119 c 1
 442 -8 l 1
 416 -21 388 -25 346 -25 c 0
EndSplineSet
Substitution2: "'ss01' Style Set 1 in Latin lookup 18 subtable" l.a
Substitution2: "'sups' Superscript in Latin lookup 12 subtable" uni02E1
AlternateSubs2: "'aalt' Access All Alternates in Latin lookup 1 subtable" uni02E1 l.a
EndChar

StartChar: m
Encoding: 109 109 42
Width: 1697
Flags: HW
AnchorPoint: "Anchor-2" 870 -45 basechar 0
AnchorPoint: "Anchor-0" 858 1040 basechar 0
LayerCount: 2
Fore
SplineSet
772 608 m 2
 772 771 734 874 586 874 c 0
 511 874 427 823 336 721 c 1
 336 0 l 1
 168 0 l 1
 168 995 l 1
 307 995 l 1
 322 852 l 1
 328 852 l 1
 372 900 419 940 470 972 c 128
 521 1004 577 1020 637 1020 c 0
 793 1020 871 947 911 829 c 1
 963 886 1015 933 1068 968 c 128
 1121 1003 1178 1020 1239 1020 c 0
 1461 1020 1542 865 1542 631 c 2
 1542 0 l 1
 1374 0 l 1
 1374 608 l 2
 1374 769 1336 874 1190 874 c 0
 1115 874 1031 823 940 721 c 1
 940 0 l 1
 772 0 l 1
 772 608 l 2
EndSplineSet
Substitution2: "'sups' Superscript in Latin lookup 12 subtable" uni1D50
Substitution2: "'aalt' Access All Alternates in Latin lookup 0 subtable" uni1D50
EndChar

StartChar: n
Encoding: 110 110 43
Width: 1120
Flags: HW
AnchorPoint: "Anchor-2" 569 -45 basechar 0
AnchorPoint: "Anchor-0" 596 1040 basechar 0
LayerCount: 2
Fore
SplineSet
797 608 m 2
 797 772 758 874 608 874 c 0
 556 874 511 862 471 836 c 128
 431 810 387 772 336 721 c 1
 336 0 l 1
 168 0 l 1
 168 995 l 1
 307 995 l 1
 322 852 l 1
 328 852 l 1
 376 900 425 940 478 972 c 128
 531 1004 592 1020 662 1020 c 0
 888 1020 965 868 965 631 c 2
 965 0 l 1
 797 0 l 1
 797 608 l 2
EndSplineSet
Substitution2: "'sups' Superscript in Latin lookup 12 subtable" uni207F
Substitution2: "'aalt' Access All Alternates in Latin lookup 0 subtable" uni207F
EndChar

StartChar: o
Encoding: 111 111 44
Width: 1110
Flags: HW
AnchorPoint: "Anchor-4" 655 0 basechar 0
AnchorPoint: "Anchor-3" 745 995 basechar 0
AnchorPoint: "Anchor-2" 555 -45 basechar 0
AnchorPoint: "Anchor-0" 555 1040 basechar 0
LayerCount: 2
Fore
SplineSet
94 496 m 0
 94 741 209 913 380 985 c 128
 435 1008 494 1020 555 1020 c 256
 777 1020 914 883 978 718 c 128
 1003 653 1016 579 1016 496 c 0
 1016 253 901 82 730 10 c 128
 675 -13 616 -25 555 -25 c 256
 334 -25 196 110 132 275 c 128
 107 340 94 414 94 496 c 0
268 496 m 256
 268 328 328 199 438 142 c 128
 473 124 513 115 555 115 c 256
 704 115 786 221 821 340 c 128
 835 386 842 439 842 496 c 256
 842 665 783 796 672 853 c 128
 637 871 597 881 555 881 c 256
 405 881 324 772 289 652 c 128
 275 605 268 553 268 496 c 256
EndSplineSet
Substitution2: "'sups' Superscript in Latin lookup 12 subtable" uni1D52
Substitution2: "'aalt' Access All Alternates in Latin lookup 0 subtable" uni1D52
EndChar

StartChar: p
Encoding: 112 112 45
Width: 1136
Flags: HW
AnchorPoint: "Anchor-2" 240 -446 basechar 0
AnchorPoint: "Anchor-0" 596 1040 basechar 0
LayerCount: 2
Fore
SplineSet
608 -25 m 0
 493 -25 407 33 332 90 c 1
 336 -84 l 1
 336 -420 l 1
 168 -420 l 1
 168 995 l 1
 307 995 l 1
 322 881 l 1
 328 881 l 1
 405 946 513 1020 645 1020 c 0
 857 1020 966 891 1013 722 c 128
 1030 660 1038 590 1038 512 c 0
 1038 269 937 87 772 11 c 128
 720 -13 665 -25 608 -25 c 0
864 512 m 0
 864 715 803 879 602 879 c 0
 560 879 517 867 474 844 c 128
 431 821 385 787 336 743 c 1
 336 221 l 1
 403 164 481 117 580 117 c 0
 729 117 808 226 843 346 c 128
 857 395 864 451 864 512 c 0
EndSplineSet
Substitution2: "'sups' Superscript in Latin lookup 12 subtable" uni1D56
Substitution2: "'aalt' Access All Alternates in Latin lookup 0 subtable" uni1D56
EndChar

StartChar: q
Encoding: 113 113 46
Width: 1126
Flags: HW
AnchorPoint: "Anchor-2" 872 -446 basechar 0
AnchorPoint: "Anchor-0" 569 1040 basechar 0
LayerCount: 2
Fore
SplineSet
508 -25 m 0
 229 -25 96 198 96 496 c 0
 96 734 204 907 365 983 c 128
 417 1008 471 1020 528 1020 c 256
 661 1020 735 970 813 901 c 1
 817 901 l 1
 834 995 l 1
 969 995 l 1
 969 -420 l 1
 799 -420 l 1
 799 -66 l 1
 807 111 l 1
 738 47 634 -25 508 -25 c 0
799 774 m 1
 731 835 665 879 557 879 c 0
 412 879 330 767 293 653 c 128
 278 607 270 555 270 498 c 0
 270 287 349 117 545 117 c 0
 663 117 734 180 799 254 c 1
 799 774 l 1
EndSplineSet
Substitution2: "'sups' Superscript in Latin lookup 12 subtable" q.sups
Substitution2: "'aalt' Access All Alternates in Latin lookup 0 subtable" q.sups
EndChar

StartChar: r
Encoding: 114 114 47
Width: 710
Flags: HW
AnchorPoint: "Anchor-2" 252 -45 basechar 0
AnchorPoint: "Anchor-0" 442 1040 basechar 0
LayerCount: 2
Fore
SplineSet
684 852 m 1
 651 863 631 868 588 868 c 0
 546 868 502 851 456 817 c 128
 410 783 370 724 336 639 c 1
 336 0 l 1
 168 0 l 1
 168 995 l 1
 307 995 l 1
 322 815 l 1
 328 815 l 1
 383 915 472 1020 610 1020 c 0
 650 1020 686 1013 717 999 c 1
 684 852 l 1
EndSplineSet
Substitution2: "'sups' Superscript in Latin lookup 12 subtable" uni02B3
Substitution2: "'aalt' Access All Alternates in Latin lookup 0 subtable" uni02B3
EndChar

StartChar: s
Encoding: 115 115 48
Width: 858
Flags: HW
AnchorPoint: "Anchor-2" 457 -45 basechar 0
AnchorPoint: "Anchor-1" 457 0 basechar 0
AnchorPoint: "Anchor-0" 449 1040 basechar 0
LayerCount: 2
Fore
SplineSet
451 889 m 0
 346 889 268 839 268 745 c 0
 268 692 301 664 336 641 c 128
 379 612 435 593 489 573 c 0
 601 530 709 491 765 391 c 128
 783 358 793 318 793 272 c 0
 793 124 699 38 585 -1 c 128
 539 -17 487 -25 428 -25 c 0
 276 -25 144 41 57 113 c 1
 141 225 l 1
 220 161 301 106 434 106 c 0
 547 106 631 159 631 262 c 0
 631 350 550 392 485 418 c 128
 444 434 444 435 403 451 c 1
 293 489 188 536 133 629 c 128
 115 659 106 695 106 737 c 0
 106 878 196 961 305 998 c 128
 347 1012 396 1020 449 1020 c 0
 579 1020 685 967 758 907 c 1
 678 801 l 1
 618 847 549 889 451 889 c 0
EndSplineSet
Substitution2: "'sups' Superscript in Latin lookup 12 subtable" uni02E2
Substitution2: "'aalt' Access All Alternates in Latin lookup 0 subtable" uni02E2
EndChar

StartChar: t
Encoding: 116 116 49
Width: 692
Flags: HW
AnchorPoint: "Anchor-2" 434 -45 basechar 0
AnchorPoint: "Anchor-1" 444 0 basechar 0
AnchorPoint: "Anchor-0" 293 1317 basechar 0
LayerCount: 2
Fore
SplineSet
481 -25 m 0
 275 -25 197 102 197 307 c 2
 197 858 l 1
 49 858 l 1
 49 985 l 1
 205 995 l 1
 225 1274 l 1
 367 1274 l 1
 367 995 l 1
 635 995 l 1
 635 858 l 1
 367 858 l 1
 367 305 l 2
 367 186 402 113 520 113 c 0
 558 113 604 127 633 139 c 1
 666 12 l 1
 616 -6 547 -25 481 -25 c 0
EndSplineSet
Substitution2: "'sups' Superscript in Latin lookup 12 subtable" uni1D57
Substitution2: "'aalt' Access All Alternates in Latin lookup 0 subtable" uni1D57
EndChar

StartChar: u
Encoding: 117 117 50
Width: 1124
Flags: HW
AnchorPoint: "Anchor-4" 887 0 basechar 0
AnchorPoint: "Anchor-3" 852 1016 basechar 0
AnchorPoint: "Anchor-2" 604 -45 basechar 0
AnchorPoint: "Anchor-0" 567 1040 basechar 0
LayerCount: 2
Fore
SplineSet
469 -25 m 0
 241 -25 164 127 164 365 c 2
 164 995 l 1
 334 995 l 1
 334 387 l 2
 334 223 371 121 520 121 c 0
 572 121 617 134 656 161 c 128
 695 188 738 230 786 289 c 1
 786 995 l 1
 956 995 l 1
 956 0 l 1
 817 0 l 1
 803 156 l 1
 797 156 l 1
 751 101 701 58 649 25 c 128
 597 -8 537 -25 469 -25 c 0
EndSplineSet
Substitution2: "'sups' Superscript in Latin lookup 12 subtable" uni1D58
Substitution2: "'aalt' Access All Alternates in Latin lookup 0 subtable" uni1D58
EndChar

StartChar: v
Encoding: 118 118 51
Width: 956
Flags: HW
AnchorPoint: "Anchor-2" 481 -45 basechar 0
AnchorPoint: "Anchor-0" 481 1040 basechar 0
LayerCount: 2
Fore
SplineSet
25 995 m 1
 199 995 l 1
 387 430 l 1
 417 333 449 233 479 137 c 1
 487 137 l 1
 502 185 517 234 532 283 c 128
 606 525 687 758 766 995 c 1
 932 995 l 1
 580 0 l 1
 383 0 l 1
 25 995 l 1
EndSplineSet
Substitution2: "'sups' Superscript in Latin lookup 12 subtable" uni1D5B
Substitution2: "'aalt' Access All Alternates in Latin lookup 0 subtable" uni1D5B
EndChar

StartChar: w
Encoding: 119 119 52
Width: 1470
Flags: HW
AnchorPoint: "Anchor-2" 737 -45 basechar 0
AnchorPoint: "Anchor-0" 737 1040 basechar 0
LayerCount: 2
Fore
SplineSet
49 995 m 1
 221 995 l 1
 369 420 l 1
 391 325 408 238 428 143 c 1
 436 143 l 1
 458 237 480 328 504 420 c 2
 657 995 l 1
 821 995 l 1
 977 420 l 2
 1001 325 1025 238 1047 143 c 1
 1055 143 l 1
 1077 237 1094 325 1116 420 c 1
 1262 995 l 1
 1421 995 l 1
 1155 0 l 1
 950 0 l 1
 807 535 l 2
 782 633 763 721 739 821 c 1
 731 821 l 1
 709 719 690 628 662 532 c 1
 522 0 l 1
 326 0 l 1
 49 995 l 1
EndSplineSet
Substitution2: "'sups' Superscript in Latin lookup 12 subtable" uni02B7
Substitution2: "'aalt' Access All Alternates in Latin lookup 0 subtable" uni02B7
EndChar

StartChar: x
Encoding: 120 120 53
Width: 913
Flags: HW
AnchorPoint: "Anchor-2" 457 -45 basechar 0
AnchorPoint: "Anchor-0" 457 1040 basechar 0
LayerCount: 2
Fore
SplineSet
354 520 m 1
 53 995 l 1
 236 995 l 1
 369 776 l 1
 400 720 432 663 467 610 c 1
 475 610 l 1
 505 664 535 722 565 776 c 2
 686 995 l 1
 862 995 l 1
 561 502 l 1
 885 0 l 1
 702 0 l 1
 635 107 569 213 504 322 c 128
 486 352 468 381 449 410 c 1
 440 410 l 1
 404 352 373 293 340 231 c 1
 205 0 l 1
 29 0 l 1
 354 520 l 1
EndSplineSet
Substitution2: "'sups' Superscript in Latin lookup 12 subtable" uni02E3
Substitution2: "'aalt' Access All Alternates in Latin lookup 0 subtable" uni02E3
EndChar

StartChar: y
Encoding: 121 121 54
Width: 956
Flags: HW
AnchorPoint: "Anchor-2" 410 -496 basechar 0
AnchorPoint: "Anchor-0" 498 1040 basechar 0
LayerCount: 2
Fore
SplineSet
137 -284 m 128
 151 -287 164 -289 176 -289 c 0
 304 -289 366 -180 401 -76 c 1
 424 -2 l 1
 25 995 l 1
 199 995 l 1
 401 444 l 2
 431 356 469 254 498 164 c 1
 506 164 l 1
 535 251 563 356 590 444 c 2
 768 995 l 1
 932 995 l 1
 557 -82 l 2
 507 -220 443 -342 317 -401 c 128
 279 -419 235 -428 184 -428 c 0
 137 -428 101 -422 68 -408 c 1
 100 -274 l 1
 116 -278 117 -279 137 -284 c 128
EndSplineSet
Substitution2: "'sups' Superscript in Latin lookup 12 subtable" uni02B8
Substitution2: "'aalt' Access All Alternates in Latin lookup 0 subtable" uni02B8
EndChar

StartChar: z
Encoding: 122 122 55
Width: 870
Flags: HW
AnchorPoint: "Anchor-2" 467 -45 basechar 0
AnchorPoint: "Anchor-0" 469 1040 basechar 0
LayerCount: 2
Fore
SplineSet
63 90 m 1
 588 858 l 1
 121 858 l 1
 121 995 l 1
 801 995 l 1
 801 905 l 1
 276 137 l 1
 817 137 l 1
 817 0 l 1
 63 0 l 1
 63 90 l 1
EndSplineSet
Substitution2: "'sups' Superscript in Latin lookup 12 subtable" uni1DBB
Substitution2: "'aalt' Access All Alternates in Latin lookup 0 subtable" uni1DBB
EndChar

StartChar: Aogonek
Encoding: 260 260 77
Width: 1101
Flags: HW
AnchorPoint: "Anchor-0" 551 1389 basechar 0
LayerCount: 2
Fore
SplineSet
750 547 m 1
 686 752 l 2
 639 904 597 1049 553 1204 c 1
 545 1204 l 1
 501 1049 459 904 412 752 c 2
 346 547 l 1
 750 547 l 1
938 -219 m 0
 938 -276 979 -313 1032 -313 c 0
 1063 -313 1092 -304 1118 -285 c 1
 1165 -377 l 1
 1132 -403 1059 -434 1001 -434 c 0
 889 -434 807 -370 807 -256 c 0
 807 -135 889 -50 961 0 c 1
 922 0 l 1
 793 410 l 1
 303 410 l 1
 174 0 l 1
 0 0 l 1
 455 1343 l 1
 647 1343 l 1
 1102 0 l 1
 1023 -32 938 -117 938 -219 c 0
EndSplineSet
Ligature2: "'ccmp' Glyph Composition/Decomposition in Latin lookup 6 subtable" A uni0328
EndChar

StartChar: AE
Encoding: 198 198 78
Width: 1673
Flags: HW
AnchorPoint: "Anchor-0" 1149 1421 basechar 0
LayerCount: 2
Fore
SplineSet
817 528 m 1
 817 1208 l 1
 809 1208 l 1
 738 1061 659 917 588 770 c 1
 463 528 l 1
 817 528 l 1
1579 145 m 1
 1579 0 l 1
 817 0 l 1
 817 391 l 1
 391 391 l 1
 188 0 l 1
 12 0 l 1
 717 1343 l 1
 1559 1343 l 1
 1559 1200 l 1
 987 1200 l 1
 987 778 l 1
 1464 778 l 1
 1464 633 l 1
 987 633 l 1
 987 145 l 1
 1579 145 l 1
EndSplineSet
EndChar

StartChar: Eogonek
Encoding: 280 280 104
Width: 1069
Flags: HW
AnchorPoint: "Anchor-0" 578 1389 basechar 0
LayerCount: 2
Fore
SplineSet
647 -256 m 0
 647 -138 727 -46 801 0 c 1
 178 0 l 1
 178 1343 l 1
 952 1343 l 1
 952 1200 l 1
 350 1200 l 1
 350 778 l 1
 858 778 l 1
 858 633 l 1
 350 633 l 1
 350 145 l 1
 973 145 l 1
 973 0 l 1
 967 0 l 1
 884 -10 824 -74 795 -140 c 128
 784 -165 778 -192 778 -219 c 0
 778 -277 823 -313 877 -313 c 0
 914 -313 936 -302 958 -285 c 1
 1006 -377 l 1
 973 -403 900 -434 842 -434 c 0
 730 -434 647 -370 647 -256 c 0
EndSplineSet
Ligature2: "'ccmp' Glyph Composition/Decomposition in Latin lookup 6 subtable" E uni0328
EndChar

StartChar: Hbar
Encoding: 294 294 115
Width: 1396
Flags: HW
LayerCount: 2
Fore
SplineSet
1010 1008 m 1
 385 1008 l 1
 385 780 l 1
 1010 780 l 1
 1010 1008 l 1
1335 1008 m 1
 1182 1008 l 1
 1182 0 l 1
 1010 0 l 1
 1010 633 l 1
 385 633 l 1
 385 0 l 1
 215 0 l 1
 215 1008 l 1
 61 1008 l 1
 61 1094 l 1
 215 1104 l 1
 215 1343 l 1
 385 1343 l 1
 385 1104 l 1
 1010 1104 l 1
 1010 1343 l 1
 1182 1343 l 1
 1182 1104 l 1
 1335 1104 l 1
 1335 1008 l 1
EndSplineSet
EndChar

StartChar: Iogonek
Encoding: 302 302 126
Width: 528
Flags: HW
AnchorPoint: "Anchor-0" 264 1389 basechar 0
LayerCount: 2
Fore
SplineSet
84 -256 m 256
 84 -136 156 -58 219 0 c 1
 178 0 l 1
 178 1343 l 1
 350 1343 l 1
 350 0 l 1
 281 -52 215 -114 215 -219 c 0
 215 -277 259 -313 313 -313 c 0
 350 -313 373 -302 395 -285 c 1
 442 -377 l 1
 409 -403 337 -434 279 -434 c 0
 167 -434 84 -370 84 -256 c 256
EndSplineSet
Substitution2: "'ss04' Style Set 4 in Latin lookup 21 subtable" Iogonek.a
Ligature2: "'ccmp' Glyph Composition/Decomposition in Latin lookup 6 subtable" I uni0328
Substitution2: "'aalt' Access All Alternates in Latin lookup 0 subtable" Iogonek.a
EndChar

StartChar: Lslash
Encoding: 321 321 136
Width: 991
Flags: HW
LayerCount: 2
Fore
SplineSet
942 145 m 1
 942 0 l 1
 184 0 l 1
 184 483 l 1
 20 397 l 1
 20 535 l 1
 184 621 l 1
 184 1343 l 1
 356 1343 l 1
 356 705 l 1
 741 911 l 1
 741 772 l 1
 356 567 l 1
 356 145 l 1
 942 145 l 1
EndSplineSet
EndChar

StartChar: Oslash
Encoding: 216 216 160
Width: 1349
Flags: HW
AnchorPoint: "Anchor-0" 680 1389 basechar 0
LayerCount: 2
Fore
SplineSet
420 233 m 1
 488 161 574 125 676 125 c 0
 812 125 903 190 964 275 c 128
 1034 372 1073 510 1073 678 c 0
 1073 806 1052 914 1008 1001 c 1
 420 233 l 1
938 1106 m 1
 870 1181 782 1219 676 1219 c 0
 542 1219 448 1155 386 1073 c 128
 316 980 276 843 276 678 c 0
 276 543 300 429 348 338 c 1
 938 1106 l 1
676 1368 m 0
 832 1368 952 1314 1038 1235 c 1
 1167 1405 l 1
 1264 1333 l 1
 1118 1145 l 1
 1201 1030 1249 875 1249 678 c 0
 1249 357 1124 127 906 25 c 128
 836 -8 759 -25 676 -25 c 0
 537 -25 417 18 319 104 c 1
 193 -61 l 1
 96 12 l 1
 238 197 l 1
 152 315 100 476 100 678 c 0
 100 996 224 1223 443 1321 c 128
 513 1352 591 1368 676 1368 c 0
EndSplineSet
EndChar

StartChar: OE
Encoding: 338 338 161
Width: 1724
Flags: HW
AnchorPoint: "Anchor-0" 1083 1389 basechar 0
LayerCount: 2
Fore
SplineSet
100 678 m 0
 100 1102 337 1343 758 1343 c 2
 1610 1343 l 1
 1610 1200 l 1
 1040 1200 l 1
 1040 778 l 1
 1516 778 l 1
 1516 633 l 1
 1040 633 l 1
 1040 145 l 1
 1630 145 l 1
 1630 0 l 1
 750 0 l 2
 429 0 228 152 144 392 c 128
 115 476 100 572 100 678 c 0
770 1204 m 2
 439 1204 276 1012 276 678 c 0
 276 342 438 139 770 139 c 2
 868 139 l 1
 868 1204 l 1
 770 1204 l 2
EndSplineSet
EndChar

StartChar: Ohorn
Encoding: 416 416 162
Width: 1349
Flags: HW
AnchorPoint: "Anchor-2" 672 -45 basechar 0
AnchorPoint: "Anchor-0" 672 1389 basechar 0
LayerCount: 2
Fore
SplineSet
676 125 m 256
 812 125 903 190 964 275 c 128
 1034 372 1073 510 1073 678 c 0
 1073 917 994 1100 839 1181 c 128
 791 1206 736 1219 676 1219 c 256
 542 1219 448 1155 386 1073 c 128
 316 980 276 843 276 678 c 0
 276 437 356 247 512 164 c 128
 561 138 616 125 676 125 c 256
1108 1440 m 0
 1108 1474 1093 1500 1079 1524 c 1
 1200 1583 l 1
 1225 1548 1247 1506 1247 1450 c 0
 1247 1320 1150 1261 1038 1235 c 1
 1168 1116 1249 927 1249 678 c 0
 1249 357 1124 127 906 25 c 128
 836 -8 759 -25 676 -25 c 0
 488 -25 352 57 261 165 c 128
 160 284 100 460 100 678 c 256
 100 996 224 1223 443 1321 c 128
 513 1352 591 1368 676 1368 c 0
 774 1368 863 1347 942 1303 c 1
 1033 1320 1108 1347 1108 1440 c 0
EndSplineSet
EndChar

StartChar: uni01EA
Encoding: 490 490 168
Width: 1349
Flags: HW
AnchorPoint: "Anchor-0" 672 1389 basechar 0
LayerCount: 2
Fore
SplineSet
735 -434 m 0
 623 -434 539 -370 539 -256 c 0
 539 -153 604 -73 666 -23 c 1
 479 -20 343 63 254 173 c 128
 158 292 100 465 100 678 c 0
 100 996 224 1223 443 1321 c 128
 513 1352 591 1368 676 1368 c 0
 861 1368 998 1289 1089 1183 c 128
 1189 1066 1249 894 1249 678 c 0
 1249 304 1089 102 831 -14 c 0
 775 -39 735 -71 710 -109 c 128
 685 -147 672 -184 672 -219 c 0
 672 -276 715 -313 768 -313 c 0
 798 -313 826 -304 852 -285 c 1
 897 -377 l 1
 863 -403 793 -434 735 -434 c 0
676 125 m 256
 812 125 903 190 964 275 c 128
 1034 372 1073 510 1073 678 c 0
 1073 917 994 1100 839 1181 c 128
 791 1206 736 1219 676 1219 c 256
 542 1219 448 1155 386 1073 c 128
 316 980 276 843 276 678 c 0
 276 437 356 247 512 164 c 128
 561 138 616 125 676 125 c 256
EndSplineSet
Ligature2: "'ccmp' Glyph Composition/Decomposition in Latin lookup 6 subtable" O uni0328
EndChar

StartChar: uni1E9E
Encoding: 7838 7838 182
Width: 1355
Flags: HW
LayerCount: 2
Fore
SplineSet
700 1227 m 0
 460 1227 352 1078 352 823 c 2
 352 0 l 1
 182 0 l 1
 182 854 l 2
 182 1100 295 1256 474 1328 c 128
 540 1355 618 1368 707 1368 c 0
 948 1368 1082 1232 1151 1053 c 1
 868 741 l 1
 1011 712 1115 665 1178 598 c 128
 1241 531 1272 448 1272 350 c 0
 1272 171 1173 56 1042 4 c 128
 994 -15 942 -25 883 -25 c 0
 721 -25 591 43 514 131 c 1
 610 242 l 1
 676 169 747 119 868 119 c 0
 1009 119 1096 211 1096 350 c 0
 1096 486 1004 546 896 586 c 128
 845 605 780 621 702 635 c 1
 690 745 l 1
 971 1059 l 1
 925 1151 839 1227 700 1227 c 0
EndSplineSet
EndChar

StartChar: Uogonek
Encoding: 370 370 204
Width: 1310
Flags: HW
AnchorPoint: "Anchor-0" 655 1389 basechar 0
LayerCount: 2
Fore
SplineSet
647 -23 m 1
 310 -17 172 205 172 555 c 2
 172 1343 l 1
 344 1343 l 1
 344 551 l 2
 344 308 421 125 655 125 c 0
 894 125 975 303 975 551 c 2
 975 1343 l 1
 1139 1343 l 1
 1139 555 l 2
 1139 318 1082 157 945 62 c 128
 905 34 860 9 811 -14 c 0
 758 -40 717 -73 689 -111 c 128
 661 -149 647 -185 647 -219 c 0
 647 -277 691 -313 745 -313 c 0
 782 -313 805 -302 827 -285 c 1
 874 -377 l 1
 841 -403 769 -434 711 -434 c 0
 601 -434 516 -369 516 -256 c 0
 516 -169 561 -109 605 -65 c 128
 629 -41 629 -41 647 -23 c 1
EndSplineSet
Ligature2: "'ccmp' Glyph Composition/Decomposition in Latin lookup 6 subtable" U uni0328
EndChar

StartChar: Uhorn
Encoding: 431 431 205
Width: 1339
Flags: HW
AnchorPoint: "Anchor-2" 655 -45 basechar 0
AnchorPoint: "Anchor-0" 655 1389 basechar 0
LayerCount: 2
Fore
SplineSet
1225 1481 m 0
 1225 1516 1210 1542 1194 1565 c 1
 1317 1624 l 1
 1342 1589 1364 1547 1364 1491 c 0
 1364 1349 1255 1296 1139 1270 c 1
 1139 555 l 2
 1139 201 1000 -25 655 -25 c 256
 310 -25 172 201 172 555 c 2
 172 1343 l 1
 344 1343 l 1
 344 551 l 2
 344 308 421 125 655 125 c 0
 894 125 975 303 975 551 c 2
 975 1343 l 1
 1047 1343 l 1
 1144 1355 1225 1378 1225 1481 c 0
EndSplineSet
EndChar

StartChar: Eth
Encoding: 208 208 227
Width: 1292
Flags: HW
LayerCount: 2
Fore
SplineSet
1014 678 m 256
 1014 1008 867 1204 543 1204 c 2
 389 1204 l 1
 389 754 l 1
 700 754 l 1
 700 657 l 1
 389 657 l 1
 389 139 l 1
 543 139 l 2
 867 139 1014 349 1014 678 c 256
555 1343 m 2
 975 1343 1190 1101 1190 678 c 0
 1190 354 1064 138 831 46 c 128
 753 15 664 0 563 0 c 2
 219 0 l 1
 219 657 l 1
 61 657 l 1
 61 745 l 1
 219 754 l 1
 219 1343 l 1
 555 1343 l 2
EndSplineSet
EndChar

StartChar: Thorn
Encoding: 222 222 228
Width: 1193
Flags: HW
LayerCount: 2
Fore
SplineSet
1090 723 m 0
 1090 431 887 307 594 307 c 2
 352 307 l 1
 352 0 l 1
 182 0 l 1
 182 1343 l 1
 352 1343 l 1
 352 1118 l 1
 594 1118 l 2
 889 1118 1090 1018 1090 723 c 0
920 723 m 256
 920 930 788 979 573 979 c 2
 352 979 l 1
 352 446 l 1
 573 446 l 2
 791 446 920 515 920 723 c 256
EndSplineSet
EndChar

StartChar: uni018F
Encoding: 399 399 229
Width: 1359
Flags: HW
AnchorPoint: "Anchor-2" 723 -45 basechar 0
AnchorPoint: "Anchor-0" 715 1389 basechar 0
LayerCount: 2
Fore
SplineSet
305 586 m 1
 321 338 440 121 684 121 c 0
 806 121 894 176 955 246 c 128
 1026 327 1070 445 1083 586 c 1
 305 586 l 1
680 1223 m 0
 539 1223 426 1165 352 1094 c 1
 272 1210 l 1
 366 1301 507 1368 692 1368 c 0
 983 1368 1144 1193 1215 966 c 128
 1242 881 1255 784 1255 676 c 256
 1255 357 1131 126 914 25 c 128
 844 -8 767 -25 684 -25 c 256
 398 -25 241 159 171 383 c 128
 144 468 131 562 131 666 c 0
 131 683 133 701 135 717 c 1
 1087 717 l 1
 1075 999 957 1223 680 1223 c 0
EndSplineSet
EndChar

StartChar: aogonek
Encoding: 261 261 251
Width: 1048
Flags: HW
AnchorPoint: "Anchor-0" 551 1040 basechar 0
LayerCount: 2
Fore
SplineSet
285 270 m 0
 285 161 355 111 459 111 c 0
 507 111 552 121 595 144 c 128
 638 167 683 200 731 244 c 1
 731 520 l 1
 592 502 471 480 382 428 c 128
 325 395 285 349 285 270 c 0
412 -25 m 0
 239 -25 119 82 119 258 c 0
 119 367 167 451 265 509 c 128
 363 567 518 608 731 631 c 1
 731 777 674 881 526 881 c 0
 404 881 303 825 229 774 c 1
 162 891 l 1
 256 952 396 1020 553 1020 c 0
 798 1020 899 855 899 610 c 2
 899 0 l 1
 812 -35 721 -110 721 -215 c 0
 721 -273 763 -309 817 -309 c 0
 853 -309 876 -298 899 -283 c 1
 942 -367 l 1
 909 -393 838 -422 782 -422 c 0
 675 -422 598 -359 598 -248 c 0
 598 -153 652 -86 702 -38 c 128
 721 -20 742 -4 762 8 c 1
 745 119 l 1
 741 119 l 1
 659 51 550 -25 412 -25 c 0
EndSplineSet
Substitution2: "'ss02' Style Set 2 in Latin lookup 19 subtable" aogonek.a
Ligature2: "'ccmp' Glyph Composition/Decomposition in Latin lookup 6 subtable" a uni0328
Substitution2: "'aalt' Access All Alternates in Latin lookup 0 subtable" aogonek.a
EndChar

StartChar: ae
Encoding: 230 230 252
Width: 1607
Flags: HW
LayerCount: 2
Fore
SplineSet
760 264 m 1
 738 316 724 396 721 469 c 1
 721 520 l 1
 587 501 471 479 384 428 c 128
 328 395 285 348 285 270 c 0
 285 161 355 111 459 111 c 0
 582 111 692 189 760 264 c 1
518 881 m 0
 402 881 301 823 229 774 c 1
 162 891 l 1
 252 949 391 1020 539 1020 c 256
 695 1020 785 932 823 809 c 1
 889 918 992 1020 1151 1020 c 0
 1417 1020 1530 819 1530 551 c 0
 1530 513 1528 482 1524 457 c 1
 879 457 l 1
 883 301 958 186 1069 137 c 128
 1106 121 1146 113 1188 113 c 0
 1292 113 1362 152 1430 195 c 1
 1491 78 l 1
 1405 24 1306 -25 1167 -25 c 0
 998 -25 891 66 817 162 c 1
 749 101 680 54 611 23 c 128
 542 -8 476 -25 412 -25 c 0
 239 -25 119 82 119 258 c 0
 119 367 167 451 264 509 c 128
 361 567 513 608 721 631 c 1
 721 779 667 881 518 881 c 0
1382 569 m 1
 1382 751 1317 887 1147 887 c 0
 983 887 895 733 879 569 c 1
 1382 569 l 1
EndSplineSet
EndChar

StartChar: dcroat
Encoding: 273 273 261
Width: 1136
Flags: HW
LayerCount: 2
Fore
SplineSet
545 117 m 0
 663 117 734 180 799 254 c 1
 799 733 l 1
 731 794 665 838 557 838 c 0
 413 838 331 736 293 624 c 128
 278 580 270 530 270 477 c 0
 270 272 352 117 545 117 c 0
528 979 m 256
 657 979 729 927 807 864 c 1
 799 1034 l 1
 799 1169 l 1
 469 1169 l 1
 469 1268 l 1
 799 1268 l 1
 799 1458 l 1
 969 1458 l 1
 969 1268 l 1
 1116 1268 l 1
 1116 1180 l 1
 969 1169 l 1
 969 0 l 1
 825 0 l 1
 813 113 l 1
 807 113 l 1
 739 45 638 -25 508 -25 c 0
 232 -25 96 183 96 475 c 0
 96 706 206 873 365 944 c 128
 417 967 471 979 528 979 c 256
EndSplineSet
EndChar

StartChar: eogonek
Encoding: 281 281 278
Width: 1015
Flags: HW
AnchorPoint: "Anchor-0" 541 1040 basechar 0
LayerCount: 2
Fore
SplineSet
672 -10 m 1
 641 -22 611 -25 571 -25 c 0
 342 -25 196 106 131 276 c 128
 106 340 94 414 94 496 c 256
 94 738 209 910 375 984 c 128
 428 1008 484 1020 541 1020 c 0
 747 1020 862 905 911 745 c 128
 929 688 938 624 938 553 c 0
 938 516 936 486 932 461 c 1
 260 461 l 1
 273 261 388 111 592 111 c 0
 696 111 773 146 840 188 c 1
 899 78 l 1
 824 26 767 -21 719 -84 c 128
 690 -122 672 -158 672 -215 c 0
 672 -274 712 -309 768 -309 c 0
 804 -309 827 -298 850 -283 c 1
 893 -367 l 1
 860 -393 789 -422 733 -422 c 0
 626 -422 549 -359 549 -248 c 0
 549 -138 614 -63 672 -10 c 1
791 571 m 1
 791 756 719 887 545 887 c 0
 415 887 334 801 292 706 c 128
 275 667 263 622 258 571 c 1
 791 571 l 1
EndSplineSet
Ligature2: "'ccmp' Glyph Composition/Decomposition in Latin lookup 6 subtable" e uni0328
EndChar

StartChar: hbar
Encoding: 295 295 289
Width: 1114
Flags: HW
LayerCount: 2
Fore
SplineSet
797 567 m 2
 797 731 758 834 608 834 c 0
 556 834 511 821 471 795 c 128
 431 769 387 731 336 680 c 1
 336 0 l 1
 168 0 l 1
 168 1169 l 1
 16 1169 l 1
 16 1257 l 1
 168 1268 l 1
 168 1458 l 1
 336 1458 l 1
 336 1268 l 1
 709 1268 l 1
 709 1169 l 1
 336 1169 l 1
 336 1020 l 1
 330 815 l 1
 378 860 427 899 479 931 c 128
 531 963 592 979 662 979 c 0
 888 979 965 827 965 590 c 2
 965 0 l 1
 797 0 l 1
 797 567 l 2
EndSplineSet
EndChar

StartChar: iogonek
Encoding: 303 303 299
Width: 503
Flags: HW
LayerCount: 2
Fore
SplineSet
78 -248 m 0
 78 -138 154 -55 209 0 c 1
 168 0 l 1
 168 995 l 1
 336 995 l 1
 336 0 l 1
 272 -47 203 -117 203 -215 c 0
 203 -274 243 -309 299 -309 c 0
 334 -309 357 -297 381 -283 c 1
 424 -367 l 1
 391 -393 320 -422 264 -422 c 0
 157 -422 78 -359 78 -248 c 0
367 1309 m 0
 367 1247 314 1200 252 1200 c 0
 188 1200 135 1246 135 1309 c 0
 135 1374 187 1417 252 1417 c 0
 315 1417 367 1373 367 1309 c 0
EndSplineSet
Substitution2: "Single Substitution lookup 24 subtable" iogonek.d
Ligature2: "'ccmp' Glyph Composition/Decomposition in Latin lookup 6 subtable" i uni0328
EndChar

StartChar: iogonek.d
Encoding: 65539 -1 300
Width: 503
Flags: HW
AnchorPoint: "Anchor-0" 254 1040 basechar 0
LayerCount: 2
Fore
SplineSet
78 -248 m 0
 78 -138 154 -55 209 0 c 1
 168 0 l 1
 168 995 l 1
 336 995 l 1
 336 0 l 1
 272 -47 203 -117 203 -215 c 0
 203 -274 243 -309 299 -309 c 0
 334 -309 357 -297 381 -283 c 1
 424 -367 l 1
 391 -393 320 -422 264 -422 c 0
 157 -422 78 -359 78 -248 c 0
EndSplineSet
Ligature2: "Ligature Substitution lookup 23 subtable" i uni0328
EndChar

StartChar: dotlessi
Encoding: 305 305 301
Width: 503
Flags: HW
AnchorPoint: "Anchor-4" 311 0 basechar 0
AnchorPoint: "Anchor-2" 252 -45 basechar 0
AnchorPoint: "Anchor-0" 254 1040 basechar 0
LayerCount: 2
Fore
SplineSet
168 995 m 1
 336 995 l 1
 336 0 l 1
 168 0 l 1
 168 995 l 1
EndSplineSet
EndChar

StartChar: kgreenlandic
Encoding: 312 312 304
Width: 1013
Flags: HW
LayerCount: 2
Fore
SplineSet
168 995 m 1
 336 995 l 1
 336 467 l 1
 342 467 l 1
 764 995 l 1
 950 995 l 1
 621 596 l 1
 995 0 l 1
 811 0 l 1
 520 473 l 1
 336 256 l 1
 336 0 l 1
 168 0 l 1
 168 995 l 1
EndSplineSet
EndChar

StartChar: lslash
Encoding: 322 322 312
Width: 536
Flags: HW
LayerCount: 2
Fore
SplineSet
354 -25 m 0
 221 -25 176 63 176 201 c 2
 176 678 l 1
 47 596 l 1
 47 739 l 1
 176 821 l 1
 176 1458 l 1
 346 1458 l 1
 346 909 l 1
 489 1001 l 1
 489 858 l 1
 346 766 l 1
 346 188 l 2
 346 146 359 115 393 115 c 0
 399 115 400 115 407 115 c 128
 412 115 419 116 430 119 c 1
 453 -8 l 1
 425 -20 397 -25 354 -25 c 0
EndSplineSet
Substitution2: "'ss01' Style Set 1 in Latin lookup 18 subtable" lslash.a
Substitution2: "'aalt' Access All Alternates in Latin lookup 0 subtable" lslash.a
EndChar

StartChar: oslash
Encoding: 248 248 337
Width: 1110
Flags: HW
AnchorPoint: "Anchor-0" 555 1040 basechar 0
LayerCount: 2
Fore
SplineSet
365 190 m 1
 418 137 481 111 555 111 c 0
 705 111 792 218 828 336 c 128
 842 382 850 433 850 489 c 0
 850 580 834 659 801 723 c 1
 365 190 l 1
745 803 m 1
 694 858 631 885 555 885 c 0
 404 885 321 777 283 658 c 128
 268 611 260 560 260 504 c 0
 260 413 276 335 307 272 c 1
 745 803 l 1
555 1020 m 0
 674 1020 771 977 840 918 c 1
 942 1042 l 1
 1016 983 l 1
 905 850 l 1
 972 765 1016 646 1016 496 c 0
 1016 253 901 82 730 10 c 128
 675 -13 616 -25 555 -25 c 0
 447 -25 352 9 270 76 c 1
 170 -47 l 1
 94 12 l 1
 205 145 l 1
 138 230 94 346 94 496 c 0
 94 741 209 913 380 985 c 128
 435 1008 494 1020 555 1020 c 0
EndSplineSet
EndChar

StartChar: oe
Encoding: 339 339 338
Width: 1718
Flags: HW
AnchorPoint: "Anchor-0" 901 1040 basechar 0
LayerCount: 2
Fore
SplineSet
266 496 m 256
 266 330 325 200 432 142 c 128
 466 124 504 115 545 115 c 256
 691 115 769 223 803 340 c 128
 817 386 823 439 823 496 c 256
 823 663 764 795 657 853 c 128
 623 871 586 881 545 881 c 256
 398 881 321 770 287 652 c 128
 273 605 266 553 266 496 c 256
1274 -25 m 0
 1094 -25 972 91 907 223 c 1
 829 58 708 -25 541 -25 c 0
 324 -25 190 111 130 275 c 128
 106 340 94 414 94 496 c 0
 94 739 204 913 373 985 c 128
 428 1008 485 1020 545 1020 c 0
 725 1020 845 908 905 770 c 1
 968 899 1081 1020 1255 1020 c 0
 1522 1020 1640 819 1640 551 c 0
 1640 513 1638 482 1634 457 c 1
 981 457 l 1
 985 300 1062 186 1175 137 c 128
 1213 121 1252 113 1294 113 c 0
 1398 113 1473 153 1540 195 c 1
 1602 78 l 1
 1516 24 1413 -25 1274 -25 c 0
1493 569 m 1
 1493 751 1421 887 1251 887 c 0
 1087 887 997 733 981 569 c 1
 1493 569 l 1
EndSplineSet
EndChar

StartChar: ohorn
Encoding: 417 417 339
Width: 1110
Flags: HW
AnchorPoint: "Anchor-2" 555 -45 basechar 0
AnchorPoint: "Anchor-0" 555 1040 basechar 0
LayerCount: 2
Fore
SplineSet
555 115 m 256
 704 115 786 221 821 340 c 128
 835 386 842 439 842 496 c 256
 842 665 783 796 672 853 c 128
 637 871 597 881 555 881 c 256
 405 881 324 772 289 652 c 128
 275 605 268 553 268 496 c 256
 268 328 328 199 438 142 c 128
 473 124 513 115 555 115 c 256
899 1110 m 0
 899 1145 884 1173 868 1196 c 1
 991 1255 l 1
 1016 1220 1038 1178 1038 1122 c 0
 1038 996 945 940 848 911 c 1
 947 822 1016 683 1016 496 c 0
 1016 253 901 82 730 10 c 128
 675 -13 616 -25 555 -25 c 256
 334 -25 196 110 132 275 c 128
 107 340 94 414 94 496 c 0
 94 741 209 913 380 985 c 128
 435 1008 494 1020 555 1020 c 0
 623 1020 688 1006 748 977 c 1
 829 991 899 1023 899 1110 c 0
EndSplineSet
EndChar

StartChar: uni01EB
Encoding: 491 491 345
Width: 1110
Flags: HW
AnchorPoint: "Anchor-0" 555 1040 basechar 0
LayerCount: 2
Fore
SplineSet
604 -422 m 0
 497 -422 420 -359 420 -248 c 0
 420 -147 478 -67 535 -23 c 1
 401 -17 295 45 224 123 c 128
 146 208 94 334 94 496 c 0
 94 741 209 913 380 985 c 128
 435 1008 494 1020 555 1020 c 256
 777 1020 914 883 978 718 c 128
 1003 653 1016 579 1016 496 c 0
 1016 218 882 77 690 -8 c 0
 615 -43 545 -117 545 -215 c 0
 545 -273 585 -309 639 -309 c 0
 676 -309 698 -298 723 -283 c 1
 766 -367 l 1
 732 -393 662 -422 604 -422 c 0
268 496 m 256
 268 328 328 199 438 142 c 128
 473 124 513 115 555 115 c 256
 704 115 786 221 821 340 c 128
 835 386 842 439 842 496 c 256
 842 665 783 796 672 853 c 128
 637 871 597 881 555 881 c 256
 405 881 324 772 289 652 c 128
 275 605 268 553 268 496 c 256
EndSplineSet
Ligature2: "'ccmp' Glyph Composition/Decomposition in Latin lookup 6 subtable" o uni0328
EndChar

StartChar: germandbls
Encoding: 223 223 359
Width: 1179
Flags: HW
LayerCount: 2
Fore
SplineSet
567 1341 m 0
 398 1341 336 1208 336 1024 c 2
 336 0 l 1
 168 0 l 1
 168 1055 l 2
 168 1311 313 1479 569 1479 c 0
 726 1479 838 1407 882 1295 c 128
 896 1259 903 1221 903 1180 c 0
 903 1074 857 1007 810 948 c 128
 786 918 764 889 745 861 c 128
 726 833 717 801 717 766 c 0
 717 693 770 655 821 626 c 128
 957 549 1120 495 1120 281 c 0
 1120 133 1038 41 929 -1 c 128
 889 -17 844 -25 793 -25 c 0
 667 -25 581 19 504 76 c 1
 571 195 l 1
 630 145 691 106 788 106 c 0
 892 106 961 172 961 270 c 0
 961 355 910 401 856 436 c 128
 762 496 647 534 587 628 c 128
 567 659 557 697 557 745 c 0
 557 842 603 901 646 958 c 128
 688 1014 737 1070 737 1163 c 0
 737 1271 678 1341 567 1341 c 0
EndSplineSet
EndChar

StartChar: uogonek
Encoding: 371 371 382
Width: 1124
Flags: HW
AnchorPoint: "Anchor-0" 561 1028 basechar 0
LayerCount: 2
Fore
SplineSet
469 -25 m 0
 241 -25 164 127 164 365 c 2
 164 995 l 1
 334 995 l 1
 334 387 l 2
 334 222 369 121 520 121 c 0
 572 121 617 134 656 161 c 128
 695 188 738 230 786 289 c 1
 786 995 l 1
 956 995 l 1
 956 0 l 1
 895 -30 850 -63 821 -100 c 128
 792 -137 778 -175 778 -215 c 0
 778 -273 818 -309 872 -309 c 0
 908 -309 933 -298 956 -283 c 1
 999 -367 l 1
 966 -393 896 -422 840 -422 c 0
 733 -422 653 -359 653 -248 c 0
 653 -192 669 -143 702 -101 c 128
 735 -59 773 -23 817 8 c 1
 803 156 l 1
 797 156 l 1
 751 101 701 58 649 25 c 128
 597 -8 537 -25 469 -25 c 0
EndSplineSet
Ligature2: "'ccmp' Glyph Composition/Decomposition in Latin lookup 6 subtable" u uni0328
EndChar

StartChar: uhorn
Encoding: 432 432 383
Width: 1159
Flags: HW
AnchorPoint: "Anchor-2" 604 -45 basechar 0
AnchorPoint: "Anchor-0" 567 1040 basechar 0
LayerCount: 2
Fore
SplineSet
1008 1130 m 0
 1008 1165 993 1194 977 1217 c 1
 1098 1276 l 1
 1123 1241 1145 1199 1145 1143 c 0
 1145 1016 1054 959 956 930 c 1
 956 0 l 1
 817 0 l 1
 803 156 l 1
 797 156 l 1
 751 101 701 58 649 25 c 128
 597 -8 537 -25 469 -25 c 0
 241 -25 164 127 164 365 c 2
 164 995 l 1
 334 995 l 1
 334 387 l 2
 334 223 371 121 520 121 c 0
 572 121 617 134 656 161 c 128
 695 188 738 230 786 289 c 1
 786 995 l 1
 836 995 l 1
 925 1005 1008 1033 1008 1130 c 0
EndSplineSet
EndChar

StartChar: eth
Encoding: 240 240 405
Width: 1116
Flags: HW
LayerCount: 2
Fore
SplineSet
555 115 m 0
 764 115 831 309 831 520 c 0
 831 558 830 598 827 633 c 1
 782 693 737 734 692 754 c 128
 647 774 601 784 555 784 c 0
 408 784 324 698 288 585 c 128
 275 545 268 501 268 455 c 0
 268 298 338 190 444 139 c 128
 478 123 515 115 555 115 c 0
356 1495 m 1
 456 1439 553 1381 639 1309 c 1
 930 1458 l 1
 979 1374 l 1
 715 1239 l 1
 878 1073 993 854 993 526 c 0
 993 279 897 97 732 15 c 128
 678 -12 618 -25 551 -25 c 0
 343 -25 208 103 145 255 c 128
 120 314 109 381 109 455 c 0
 109 669 213 819 364 883 c 128
 415 905 470 915 530 915 c 0
 654 915 745 858 805 780 c 1
 767 950 690 1070 586 1174 c 1
 297 1024 l 1
 248 1108 l 1
 508 1241 l 1
 437 1296 361 1345 279 1389 c 1
 356 1495 l 1
EndSplineSet
EndChar

StartChar: thorn
Encoding: 254 254 406
Width: 1136
Flags: HW
AnchorPoint: "Anchor-2" 582 -45 basechar 0
AnchorPoint: "Anchor-0" 258 1495 basechar 0
LayerCount: 2
Fore
SplineSet
608 -25 m 0
 491 -25 408 28 334 86 c 1
 336 -84 l 1
 336 -420 l 1
 168 -420 l 1
 168 1458 l 1
 336 1458 l 1
 336 1061 l 1
 334 891 l 1
 408 951 513 1020 637 1020 c 0
 922 1020 1038 799 1038 512 c 0
 1038 269 937 87 772 11 c 128
 720 -13 665 -25 608 -25 c 0
864 512 m 0
 864 715 803 879 602 879 c 0
 560 879 517 867 474 844 c 128
 431 821 385 787 336 743 c 1
 336 221 l 1
 403 164 481 117 580 117 c 0
 729 117 808 226 843 346 c 128
 857 395 864 451 864 512 c 0
EndSplineSet
EndChar

StartChar: uni0237
Encoding: 567 567 407
Width: 505
Flags: HW
AnchorPoint: "Anchor-0" 256 1040 basechar 0
LayerCount: 2
Fore
SplineSet
47 -307 m 0
 153 -307 170 -224 170 -113 c 2
 170 995 l 1
 338 995 l 1
 338 -113 l 2
 338 -313 267 -444 66 -444 c 0
 8 -444 -42 -433 -82 -418 c 1
 -47 -291 l 1
 -22 -299 13 -307 47 -307 c 0
EndSplineSet
EndChar

StartChar: uni0251
Encoding: 593 593 408
Width: 1136
Flags: HW
AnchorPoint: "Anchor-2" 580 -45 basechar 0
AnchorPoint: "Anchor-0" 578 1040 basechar 0
LayerCount: 2
Fore
SplineSet
799 774 m 1
 731 835 665 879 557 879 c 0
 412 879 330 767 293 653 c 128
 278 607 270 555 270 498 c 0
 270 287 349 117 545 117 c 0
 663 117 734 180 799 254 c 1
 799 774 l 1
508 -25 m 0
 229 -25 96 198 96 496 c 0
 96 735 205 906 367 983 c 128
 419 1008 473 1020 530 1020 c 0
 661 1020 735 967 813 899 c 1
 817 899 l 1
 831 995 l 1
 969 995 l 1
 969 0 l 1
 829 0 l 1
 815 117 l 1
 809 117 l 1
 740 50 637 -25 508 -25 c 0
EndSplineSet
EndChar

StartChar: uni0259
Encoding: 601 601 409
Width: 1015
Flags: HW
AnchorPoint: "Anchor-4" 492 0 basechar 0
AnchorPoint: "Anchor-2" 492 -45 basechar 0
AnchorPoint: "Anchor-0" 496 1040 basechar 0
LayerCount: 2
Fore
SplineSet
139 911 m 1
 228 971 338 1020 483 1020 c 0
 703 1020 829 887 888 719 c 128
 911 655 922 582 922 500 c 256
 922 260 822 85 657 11 c 128
 604 -13 547 -25 487 -25 c 0
 278 -25 156 94 104 255 c 128
 85 314 76 381 76 455 c 0
 76 490 78 522 84 549 c 1
 754 549 l 1
 744 738 649 887 457 887 c 0
 346 887 271 848 199 801 c 1
 139 911 l 1
225 436 m 1
 225 241 303 111 483 111 c 0
 662 111 740 257 756 436 c 1
 225 436 l 1
EndSplineSet
Substitution2: "'sups' Superscript in Latin lookup 12 subtable" uni2094
Substitution2: "'aalt' Access All Alternates in Latin lookup 0 subtable" uni2094
EndChar

StartChar: uni0261
Encoding: 609 609 410
Width: 1144
Flags: HW
AnchorPoint: "Anchor-2" 561 -453 basechar 0
AnchorPoint: "Anchor-0" 586 1040 basechar 0
LayerCount: 2
Fore
SplineSet
973 -49 m 2
 973 -310 799 -442 530 -442 c 0
 389 -442 264 -396 174 -334 c 1
 236 -215 l 1
 318 -269 410 -307 530 -307 c 0
 707 -307 799 -212 805 -45 c 1
 807 143 l 1
 739 77 639 10 512 10 c 0
 301 10 182 137 131 302 c 128
 112 364 102 434 102 512 c 256
 102 745 212 911 372 984 c 128
 425 1008 479 1020 535 1020 c 0
 665 1020 738 971 813 903 c 1
 817 903 l 1
 831 995 l 1
 973 995 l 1
 973 -49 l 2
274 514 m 0
 274 313 358 150 549 150 c 0
 595 150 639 160 679 183 c 128
 719 206 761 241 805 287 c 1
 805 774 l 1
 735 835 670 879 561 879 c 0
 417 879 335 771 297 660 c 128
 282 616 274 567 274 514 c 0
EndSplineSet
EndChar

StartChar: uniFB00
Encoding: 64256 64256 411
Width: 1175
Flags: HW
LayerCount: 2
Fore
SplineSet
778 1153 m 2
 778 1355 867 1483 1069 1483 c 0
 1133 1483 1190 1469 1235 1450 c 1
 1200 1321 l 1
 1160 1337 1122 1346 1087 1346 c 0
 993 1346 946 1281 946 1153 c 2
 946 995 l 1
 1157 995 l 1
 1157 858 l 1
 946 858 l 1
 946 0 l 1
 778 0 l 1
 778 858 l 1
 365 858 l 1
 365 0 l 1
 197 0 l 1
 197 858 l 1
 61 858 l 1
 61 985 l 1
 197 995 l 1
 197 1126 l 2
 197 1333 298 1462 506 1462 c 0
 573 1462 641 1446 688 1425 c 1
 653 1298 l 1
 612 1316 568 1325 520 1325 c 0
 411 1325 365 1239 365 1122 c 2
 365 995 l 1
 778 995 l 1
 778 1153 l 2
EndSplineSet
Ligature2: "'liga' Standard Ligatures in Latin lookup 22 subtable" f f
EndChar

StartChar: f_t
Encoding: 65540 -1 414
Width: 1216
Flags: HW
LayerCount: 2
Fore
SplineSet
1044 113 m 0
 1082 113 1128 127 1157 139 c 1
 1190 12 l 1
 1140 -6 1072 -25 1006 -25 c 0
 800 -25 721 102 721 307 c 2
 721 858 l 1
 365 858 l 1
 365 0 l 1
 197 0 l 1
 197 858 l 1
 61 858 l 1
 61 985 l 1
 197 995 l 1
 197 1153 l 2
 197 1355 285 1483 487 1483 c 0
 551 1483 608 1469 653 1450 c 1
 616 1321 l 1
 579 1337 542 1346 504 1346 c 0
 411 1346 365 1281 365 1153 c 2
 365 995 l 1
 729 995 l 1
 750 1274 l 1
 889 1274 l 1
 889 995 l 1
 1159 995 l 1
 1159 858 l 1
 889 858 l 1
 889 305 l 2
 889 186 926 113 1044 113 c 0
EndSplineSet
Ligature2: "'liga' Standard Ligatures in Latin lookup 22 subtable" f t
EndChar

StartChar: I.a
Encoding: 65541 -1 415
Width: 704
Flags: HW
AnchorPoint: "Anchor-4" 303 0 basechar 0
AnchorPoint: "Anchor-2" 354 -45 basechar 0
AnchorPoint: "Anchor-0" 350 1389 basechar 0
LayerCount: 2
Fore
SplineSet
94 145 m 1
 266 145 l 1
 266 1200 l 1
 94 1200 l 1
 94 1343 l 1
 606 1343 l 1
 606 1200 l 1
 436 1200 l 1
 436 145 l 1
 606 145 l 1
 606 0 l 1
 94 0 l 1
 94 145 l 1
EndSplineSet
EndChar

StartChar: Iogonek.a
Encoding: 65552 -1 426
Width: 704
Flags: HW
AnchorPoint: "Anchor-0" 350 1389 basechar 0
LayerCount: 2
Fore
SplineSet
168 -256 m 0
 168 -142 245 -52 307 0 c 1
 94 0 l 1
 94 145 l 1
 266 145 l 1
 266 1200 l 1
 94 1200 l 1
 94 1343 l 1
 606 1343 l 1
 606 1200 l 1
 436 1200 l 1
 436 145 l 1
 606 145 l 1
 606 0 l 1
 428 0 l 1
 366 -49 299 -121 299 -219 c 0
 299 -277 343 -313 397 -313 c 0
 434 -313 457 -302 479 -285 c 1
 526 -377 l 1
 493 -403 420 -434 362 -434 c 0
 252 -434 168 -369 168 -256 c 0
EndSplineSet
EndChar

StartChar: aogonek.a
Encoding: 65575 -1 449
Width: 1136
Flags: HW
AnchorPoint: "Anchor-0" 578 1040 basechar 0
LayerCount: 2
Fore
SplineSet
799 774 m 1
 731 835 665 879 557 879 c 0
 412 879 330 767 293 653 c 128
 278 607 270 555 270 498 c 0
 270 287 349 117 545 117 c 0
 663 117 734 180 799 254 c 1
 799 774 l 1
508 -25 m 0
 229 -25 96 198 96 496 c 0
 96 735 205 906 367 983 c 128
 419 1008 473 1020 530 1020 c 0
 661 1020 735 967 813 899 c 1
 817 899 l 1
 831 995 l 1
 969 995 l 1
 969 0 l 1
 908 -30 863 -63 834 -100 c 128
 805 -137 791 -175 791 -215 c 0
 791 -273 831 -309 885 -309 c 0
 921 -309 946 -298 969 -283 c 1
 1012 -367 l 1
 979 -393 908 -422 852 -422 c 0
 745 -422 666 -359 666 -248 c 0
 666 -192 682 -143 715 -101 c 128
 748 -59 785 -23 829 8 c 1
 815 117 l 1
 809 117 l 1
 740 50 637 -25 508 -25 c 0
EndSplineSet
EndChar

StartChar: l.a
Encoding: 65584 -1 458
Width: 503
Flags: HW
AnchorPoint: "Anchor-2" 252 -45 basechar 0
AnchorPoint: "Anchor-0" 252 1495 basechar 0
LayerCount: 2
Fore
SplineSet
168 1458 m 1
 336 1458 l 1
 336 0 l 1
 168 0 l 1
 168 1458 l 1
EndSplineSet
EndChar

StartChar: lslash.a
Encoding: 65592 -1 466
Width: 526
Flags: HW
LayerCount: 2
Fore
SplineSet
489 858 m 1
 336 760 l 1
 336 0 l 1
 168 0 l 1
 168 674 l 1
 47 596 l 1
 47 739 l 1
 168 817 l 1
 168 1458 l 1
 336 1458 l 1
 336 903 l 1
 489 1001 l 1
 489 858 l 1
EndSplineSet
EndChar

StartChar: ampersand
Encoding: 38 38 468
Width: 1247
Flags: HW
LayerCount: 2
Fore
SplineSet
750 219 m 1
 621 332 493 473 397 618 c 1
 349 580 310 541 278 499 c 128
 246 457 229 410 229 358 c 0
 229 238 300 160 390 128 c 128
 422 116 457 111 494 111 c 0
 604 111 684 162 750 219 c 1
553 1247 m 0
 448 1247 387 1160 387 1053 c 0
 387 964 419 885 451 817 c 1
 531 871 619 929 662 1017 c 128
 674 1042 680 1070 680 1100 c 0
 680 1183 640 1247 553 1247 c 0
965 244 m 1
 1044 191 1126 142 1217 115 c 1
 1171 -25 l 1
 1057 8 957 63 862 129 c 1
 767 44 646 -25 475 -25 c 0
 285 -25 153 65 95 198 c 128
 75 244 66 293 66 348 c 0
 66 497 146 590 230 660 c 128
 262 687 296 712 330 735 c 1
 285 828 242 930 242 1051 c 0
 242 1199 320 1298 426 1343 c 128
 464 1359 507 1368 553 1368 c 0
 716 1368 817 1263 817 1102 c 0
 817 1004 771 934 721 878 c 128
 663 813 586 758 514 705 c 1
 602 565 729 432 854 328 c 1
 936 441 1001 570 1042 725 c 1
 1200 725 l 1
 1144 543 1069 382 965 244 c 1
EndSplineSet
EndChar

StartChar: zero
Encoding: 48 48 469
Width: 1017
Flags: HW
LayerCount: 2
Fore
SplineSet
510 -25 m 0
 378 -25 275 35 201 152 c 128
 127 269 90 437 90 657 c 256
 90 877 127 1044 201 1159 c 128
 275 1274 378 1331 510 1331 c 0
 641 1331 743 1274 817 1159 c 128
 891 1044 928 877 928 657 c 256
 928 437 891 269 817 152 c 128
 743 35 641 -25 510 -25 c 0
510 111 m 0
 604 111 657 170 693 241 c 128
 746 345 764 489 764 657 c 256
 764 824 746 968 693 1070 c 128
 656 1140 604 1196 510 1196 c 256
 416 1196 362 1140 325 1070 c 128
 272 968 254 824 254 657 c 0
 254 466 278 328 325 241 c 128
 372 154 434 111 510 111 c 0
EndSplineSet
Substitution2: "'onum' Oldstyle Figures in Latin lookup 16 subtable" zero.tnum
Substitution2: "'pnum' Proportional Numbers in Latin lookup 15 subtable" zero.pnum
Substitution2: "'subs' Subscript in Latin lookup 14 subtable" uni2080
Substitution2: "'sups' Superscript in Latin lookup 13 subtable" uni2070
Substitution2: "'dnom' Denominators in Latin lookup 9 subtable" zero.dnom
Substitution2: "'numr' Numerators in Latin lookup 8 subtable" zero.numr
AlternateSubs2: "'aalt' Access All Alternates in Latin lookup 1 subtable" zero.numr zero.dnom uni2070 uni2080 zero.pnum zero.tnum
EndChar

StartChar: one
Encoding: 49 49 470
Width: 1017
Flags: HW
LayerCount: 2
Fore
SplineSet
223 1210 m 1
 335 1230 422 1259 500 1307 c 1
 629 1307 l 1
 629 139 l 1
 899 139 l 1
 899 0 l 1
 162 0 l 1
 162 139 l 1
 461 139 l 1
 461 1102 l 1
 223 1102 l 1
 223 1210 l 1
EndSplineSet
Substitution2: "'onum' Oldstyle Figures in Latin lookup 16 subtable" one.tnum
Substitution2: "'pnum' Proportional Numbers in Latin lookup 15 subtable" one.pnum
Substitution2: "'subs' Subscript in Latin lookup 14 subtable" uni2081
Substitution2: "'sups' Superscript in Latin lookup 13 subtable" uni00B9
Substitution2: "'dnom' Denominators in Latin lookup 9 subtable" one.dnom
Substitution2: "'numr' Numerators in Latin lookup 8 subtable" one.numr
AlternateSubs2: "'aalt' Access All Alternates in Latin lookup 1 subtable" one.numr one.dnom uni00B9 uni2081 one.pnum one.tnum
EndChar

StartChar: two
Encoding: 50 50 471
Width: 1017
Flags: HW
LayerCount: 2
Fore
SplineSet
328 133 m 1
 395 138 477 145 547 145 c 2
 926 145 l 1
 926 0 l 1
 82 0 l 1
 82 100 l 1
 180 198 268 288 344 367 c 128
 420 446 485 519 537 587 c 128
 589 655 628 716 655 773 c 128
 682 830 696 885 696 938 c 0
 696 1094 609 1194 449 1194 c 0
 325 1194 233 1109 170 1036 c 1
 74 1133 l 1
 129 1193 187 1241 248 1277 c 128
 309 1313 383 1331 469 1331 c 0
 707 1331 860 1181 860 946 c 0
 860 885 847 823 820 761 c 128
 756 612 653 484 542 361 c 128
 477 289 406 214 328 133 c 1
EndSplineSet
Substitution2: "'onum' Oldstyle Figures in Latin lookup 16 subtable" two.tnum
Substitution2: "'pnum' Proportional Numbers in Latin lookup 15 subtable" two.pnum
Substitution2: "'subs' Subscript in Latin lookup 14 subtable" uni2082
Substitution2: "'sups' Superscript in Latin lookup 13 subtable" uni00B2
Substitution2: "'dnom' Denominators in Latin lookup 9 subtable" two.dnom
Substitution2: "'numr' Numerators in Latin lookup 8 subtable" two.numr
AlternateSubs2: "'aalt' Access All Alternates in Latin lookup 1 subtable" two.numr two.dnom uni00B2 uni2082 two.pnum two.tnum
EndChar

StartChar: three
Encoding: 51 51 472
Width: 1017
Flags: HW
LayerCount: 2
Fore
SplineSet
868 999 m 0
 868 829 760 738 631 688 c 1
 631 680 l 1
 786 642 913 540 913 348 c 0
 913 160 795 48 651 1 c 128
 599 -16 543 -25 483 -25 c 0
 283 -25 147 54 53 160 c 1
 139 270 l 1
 217 189 315 115 473 115 c 0
 626 115 743 203 743 354 c 0
 743 567 549 614 326 614 c 1
 326 743 l 1
 527 743 696 794 696 987 c 0
 696 1119 605 1194 471 1194 c 0
 347 1194 261 1129 193 1061 c 1
 102 1167 l 1
 194 1254 308 1331 477 1331 c 0
 653 1331 784 1262 840 1141 c 128
 859 1100 868 1052 868 999 c 0
EndSplineSet
Substitution2: "'onum' Oldstyle Figures in Latin lookup 16 subtable" three.tnum
Substitution2: "'pnum' Proportional Numbers in Latin lookup 15 subtable" three.pnum
Substitution2: "'subs' Subscript in Latin lookup 14 subtable" uni2083
Substitution2: "'sups' Superscript in Latin lookup 13 subtable" uni00B3
Substitution2: "'dnom' Denominators in Latin lookup 9 subtable" three.dnom
Substitution2: "'numr' Numerators in Latin lookup 8 subtable" three.numr
AlternateSubs2: "'aalt' Access All Alternates in Latin lookup 1 subtable" three.numr three.dnom uni00B3 uni2083 three.pnum three.tnum
EndChar

StartChar: four
Encoding: 52 52 473
Width: 1017
Flags: HW
LayerCount: 2
Fore
SplineSet
623 874 m 2
 623 943 628 1061 633 1126 c 1
 625 1126 l 1
 591 1061 556 1004 518 942 c 1
 213 496 l 1
 623 496 l 1
 623 874 l 2
961 360 m 1
 782 360 l 1
 782 0 l 1
 623 0 l 1
 623 360 l 1
 35 360 l 1
 35 471 l 1
 594 1307 l 1
 782 1307 l 1
 782 496 l 1
 961 496 l 1
 961 360 l 1
EndSplineSet
Substitution2: "'onum' Oldstyle Figures in Latin lookup 16 subtable" four.tnum
Substitution2: "'pnum' Proportional Numbers in Latin lookup 15 subtable" four.pnum
Substitution2: "'subs' Subscript in Latin lookup 14 subtable" uni2084
Substitution2: "'sups' Superscript in Latin lookup 13 subtable" uni2074
Substitution2: "'dnom' Denominators in Latin lookup 9 subtable" four.dnom
Substitution2: "'numr' Numerators in Latin lookup 8 subtable" four.numr
AlternateSubs2: "'aalt' Access All Alternates in Latin lookup 1 subtable" four.numr four.dnom uni2074 uni2084 four.pnum four.tnum
EndChar

StartChar: five
Encoding: 53 53 474
Width: 1017
Flags: HW
LayerCount: 2
Fore
SplineSet
313 774 m 1
 372 805 428 827 514 827 c 0
 705 827 831 739 888 601 c 128
 909 550 920 489 920 418 c 256
 920 202 801 64 644 5 c 128
 591 -15 536 -25 479 -25 c 0
 281 -25 147 52 51 154 c 1
 133 264 l 1
 209 186 309 115 463 115 c 0
 598 115 687 193 727 291 c 128
 742 328 750 369 750 414 c 0
 750 589 644 700 471 700 c 0
 367 700 318 667 248 621 c 1
 158 678 l 1
 201 1307 l 1
 854 1307 l 1
 854 1161 l 1
 348 1161 l 1
 313 774 l 1
EndSplineSet
Substitution2: "'onum' Oldstyle Figures in Latin lookup 16 subtable" five.tnum
Substitution2: "'pnum' Proportional Numbers in Latin lookup 15 subtable" five.pnum
Substitution2: "'subs' Subscript in Latin lookup 14 subtable" uni2085
Substitution2: "'sups' Superscript in Latin lookup 13 subtable" uni2075
Substitution2: "'dnom' Denominators in Latin lookup 9 subtable" five.dnom
Substitution2: "'numr' Numerators in Latin lookup 8 subtable" five.numr
AlternateSubs2: "'aalt' Access All Alternates in Latin lookup 1 subtable" five.numr five.dnom uni2075 uni2085 five.pnum five.tnum
EndChar

StartChar: six
Encoding: 54 54 475
Width: 1017
Flags: HW
LayerCount: 2
Fore
SplineSet
262 500 m 1
 280 292 349 109 549 109 c 0
 664 109 729 189 759 278 c 128
 771 313 776 351 776 395 c 0
 776 563 702 672 535 672 c 0
 494 672 448 659 400 632 c 128
 352 605 306 561 262 500 c 1
563 799 m 0
 805 799 936 648 936 395 c 0
 936 199 835 66 698 6 c 128
 652 -14 602 -25 549 -25 c 0
 311 -25 190 137 133 329 c 128
 110 408 98 499 98 604 c 0
 98 846 147 1036 250 1164 c 128
 328 1262 438 1331 596 1331 c 0
 742 1331 840 1269 911 1192 c 1
 817 1087 l 1
 770 1141 695 1190 602 1190 c 0
 415 1190 332 1053 289 896 c 128
 270 826 259 739 258 635 c 1
 323 716 433 799 563 799 c 0
EndSplineSet
Substitution2: "'onum' Oldstyle Figures in Latin lookup 16 subtable" six.tnum
Substitution2: "'pnum' Proportional Numbers in Latin lookup 15 subtable" six.pnum
Substitution2: "'subs' Subscript in Latin lookup 14 subtable" uni2086
Substitution2: "'sups' Superscript in Latin lookup 13 subtable" uni2076
Substitution2: "'dnom' Denominators in Latin lookup 9 subtable" six.dnom
Substitution2: "'numr' Numerators in Latin lookup 8 subtable" six.numr
AlternateSubs2: "'aalt' Access All Alternates in Latin lookup 1 subtable" six.numr six.dnom uni2076 uni2086 six.pnum six.tnum
EndChar

StartChar: seven
Encoding: 55 55 476
Width: 1017
Flags: HW
LayerCount: 2
Fore
SplineSet
362 0 m 1
 378 364 445 648 577 897 c 128
 623 983 677 1071 741 1161 c 1
 90 1161 l 1
 90 1307 l 1
 932 1307 l 1
 932 1202 l 1
 740 960 610 717 564 347 c 128
 551 243 542 127 537 0 c 1
 362 0 l 1
EndSplineSet
Substitution2: "'onum' Oldstyle Figures in Latin lookup 16 subtable" seven.tnum
Substitution2: "'pnum' Proportional Numbers in Latin lookup 15 subtable" seven.pnum
Substitution2: "'subs' Subscript in Latin lookup 14 subtable" uni2087
Substitution2: "'sups' Superscript in Latin lookup 13 subtable" uni2077
Substitution2: "'dnom' Denominators in Latin lookup 9 subtable" seven.dnom
Substitution2: "'numr' Numerators in Latin lookup 8 subtable" seven.numr
AlternateSubs2: "'aalt' Access All Alternates in Latin lookup 1 subtable" seven.numr seven.dnom uni2077 uni2087 seven.pnum seven.tnum
EndChar

StartChar: eight
Encoding: 56 56 477
Width: 1017
Flags: HW
LayerCount: 2
Fore
SplineSet
418 635 m 1
 331 575 236 486 236 350 c 0
 236 228 314 152 406 119 c 128
 440 107 476 100 516 100 c 0
 661 100 772 188 772 330 c 0
 772 423 725 477 666 517 c 128
 596 565 504 599 418 635 c 1
514 1206 m 0
 390 1206 303 1121 303 995 c 0
 303 909 343 859 394 819 c 128
 452 774 528 742 604 713 c 1
 674 777 741 858 741 975 c 0
 741 1111 653 1206 514 1206 c 0
707 659 m 1
 821 594 934 502 934 324 c 0
 934 151 817 47 684 2 c 128
 632 -16 575 -25 512 -25 c 0
 319 -25 182 60 117 190 c 128
 95 234 84 282 84 334 c 0
 84 517 209 623 330 686 c 1
 330 694 l 1
 282 728 240 770 203 818 c 128
 166 866 147 925 147 995 c 0
 147 1160 248 1262 371 1307 c 128
 416 1323 465 1331 518 1331 c 0
 694 1331 811 1249 861 1123 c 128
 878 1080 887 1034 887 983 c 0
 887 908 856 846 826 797 c 128
 795 747 752 701 707 668 c 1
 707 659 l 1
EndSplineSet
Substitution2: "'onum' Oldstyle Figures in Latin lookup 16 subtable" eight.tnum
Substitution2: "'pnum' Proportional Numbers in Latin lookup 15 subtable" eight.pnum
Substitution2: "'subs' Subscript in Latin lookup 14 subtable" uni2088
Substitution2: "'sups' Superscript in Latin lookup 13 subtable" uni2078
Substitution2: "'dnom' Denominators in Latin lookup 9 subtable" eight.dnom
Substitution2: "'numr' Numerators in Latin lookup 8 subtable" eight.numr
AlternateSubs2: "'aalt' Access All Alternates in Latin lookup 1 subtable" eight.numr eight.dnom uni2078 uni2088 eight.pnum eight.tnum
EndChar

StartChar: nine
Encoding: 57 57 478
Width: 1017
Flags: HW
LayerCount: 2
Fore
SplineSet
240 911 m 0
 240 743 314 635 481 635 c 0
 523 635 569 648 617 675 c 128
 665 702 712 746 756 809 c 1
 738 1017 667 1198 467 1198 c 0
 353 1198 286 1117 257 1028 c 128
 245 993 240 953 240 911 c 0
453 508 m 0
 211 508 82 658 82 911 c 0
 82 1106 181 1240 318 1300 c 128
 365 1320 415 1331 467 1331 c 0
 705 1331 828 1172 884 978 c 128
 907 899 918 807 918 702 c 0
 918 460 869 270 766 142 c 128
 688 44 578 -25 420 -25 c 0
 277 -25 172 37 104 113 c 1
 199 219 l 1
 246 165 321 115 414 115 c 0
 604 115 686 252 729 412 c 128
 748 483 759 571 760 676 c 1
 694 593 586 508 453 508 c 0
EndSplineSet
Substitution2: "'onum' Oldstyle Figures in Latin lookup 16 subtable" nine.tnum
Substitution2: "'pnum' Proportional Numbers in Latin lookup 15 subtable" nine.pnum
Substitution2: "'subs' Subscript in Latin lookup 14 subtable" uni2089
Substitution2: "'sups' Superscript in Latin lookup 13 subtable" uni2079
Substitution2: "'dnom' Denominators in Latin lookup 9 subtable" nine.dnom
Substitution2: "'numr' Numerators in Latin lookup 8 subtable" nine.numr
AlternateSubs2: "'aalt' Access All Alternates in Latin lookup 1 subtable" nine.numr nine.dnom uni2079 uni2089 nine.pnum nine.tnum
EndChar

StartChar: zero.pnum
Encoding: 65594 -1 479
Width: 1101
Flags: HW
LayerCount: 2
Fore
SplineSet
551 -25 m 256
 396 -25 296 54 229 155 c 128
 149 276 113 451 113 657 c 0
 113 874 151 1041 229 1157 c 128
 307 1273 414 1331 551 1331 c 256
 688 1331 794 1273 872 1156 c 128
 950 1039 989 873 989 657 c 0
 989 364 917 126 734 22 c 128
 680 -9 619 -25 551 -25 c 256
551 115 m 256
 632 115 696 158 745 245 c 128
 794 332 819 469 819 657 c 256
 819 845 794 982 745 1065 c 128
 696 1148 632 1190 551 1190 c 256
 470 1190 405 1148 356 1065 c 128
 307 982 283 845 283 657 c 256
 283 469 307 332 356 245 c 128
 405 158 470 115 551 115 c 256
EndSplineSet
Substitution2: "'onum' Oldstyle Figures in Latin lookup 16 subtable" zero.onum
Substitution2: "'aalt' Access All Alternates in Latin lookup 0 subtable" zero.onum
EndChar

StartChar: one.pnum
Encoding: 65595 -1 480
Width: 755
Flags: HW
LayerCount: 2
Fore
SplineSet
102 1210 m 1
 216 1230 302 1258 381 1307 c 1
 510 1307 l 1
 510 0 l 1
 342 0 l 1
 342 1102 l 1
 102 1102 l 1
 102 1210 l 1
EndSplineSet
Substitution2: "'onum' Oldstyle Figures in Latin lookup 16 subtable" one.onum
Substitution2: "'aalt' Access All Alternates in Latin lookup 0 subtable" one.onum
EndChar

StartChar: two.pnum
Encoding: 65596 -1 481
Width: 1026
Flags: HW
LayerCount: 2
Fore
SplineSet
336 133 m 1
 403 138 485 145 555 145 c 2
 918 145 l 1
 918 0 l 1
 88 0 l 1
 88 100 l 1
 256 268 408 417 539 587 c 128
 591 655 629 716 656 773 c 128
 683 830 696 885 696 938 c 0
 696 1095 615 1194 453 1194 c 0
 329 1194 236 1109 174 1036 c 1
 76 1133 l 1
 133 1196 193 1244 255 1279 c 128
 317 1314 390 1331 473 1331 c 0
 711 1331 860 1181 860 946 c 0
 860 885 847 823 821 761 c 128
 759 612 655 484 545 361 c 128
 481 289 411 214 336 133 c 1
EndSplineSet
Substitution2: "'onum' Oldstyle Figures in Latin lookup 16 subtable" two.onum
Substitution2: "'aalt' Access All Alternates in Latin lookup 0 subtable" two.onum
EndChar

StartChar: seven.pnum
Encoding: 65601 -1 486
Width: 1005
Flags: HW
LayerCount: 2
Fore
SplineSet
342 0 m 1
 358 363 421 647 550 897 c 128
 594 983 649 1071 713 1161 c 1
 90 1161 l 1
 90 1307 l 1
 903 1307 l 1
 903 1202 l 1
 715 960 587 717 543 347 c 128
 531 243 521 127 516 0 c 1
 342 0 l 1
EndSplineSet
Substitution2: "'onum' Oldstyle Figures in Latin lookup 16 subtable" seven.onum
Substitution2: "'aalt' Access All Alternates in Latin lookup 0 subtable" seven.onum
EndChar

StartChar: zero.tnum
Encoding: 65604 -1 489
Width: 1017
Flags: HW
LayerCount: 2
Fore
SplineSet
510 -25 m 256
 382 -25 280 27 204 129 c 128
 128 231 90 385 90 588 c 256
 90 791 128 945 204 1047 c 128
 280 1149 382 1200 510 1200 c 256
 638 1200 740 1149 815 1047 c 128
 890 945 928 791 928 588 c 256
 928 385 890 231 815 129 c 128
 740 27 638 -25 510 -25 c 256
510 111 m 0
 591 111 653 153 697 237 c 128
 741 321 764 438 764 588 c 256
 764 738 741 855 697 938 c 128
 653 1021 591 1063 510 1063 c 0
 428 1063 365 1021 321 938 c 128
 277 855 254 738 254 588 c 256
 254 438 277 321 321 237 c 128
 365 153 428 111 510 111 c 0
EndSplineSet
Substitution2: "'pnum' Proportional Numbers in Latin lookup 15 subtable" zero.onum
Substitution2: "'aalt' Access All Alternates in Latin lookup 0 subtable" zero.onum
EndChar

StartChar: one.tnum
Encoding: 65605 -1 490
Width: 1017
Flags: HW
LayerCount: 2
Fore
SplineSet
223 1079 m 1
 335 1099 422 1128 500 1176 c 1
 629 1176 l 1
 629 139 l 1
 899 139 l 1
 899 0 l 1
 162 0 l 1
 162 139 l 1
 461 139 l 1
 461 971 l 1
 223 971 l 1
 223 1079 l 1
EndSplineSet
Substitution2: "'pnum' Proportional Numbers in Latin lookup 15 subtable" one.onum
Substitution2: "'aalt' Access All Alternates in Latin lookup 0 subtable" one.onum
EndChar

StartChar: two.tnum
Encoding: 65606 -1 491
Width: 1017
Flags: HW
LayerCount: 2
Fore
SplineSet
346 133 m 1
 413 138 495 145 565 145 c 2
 926 145 l 1
 926 0 l 1
 82 0 l 1
 82 100 l 1
 247 237 402 363 532 505 c 128
 584 562 624 615 651 665 c 128
 678 715 692 763 692 811 c 0
 692 963 608 1059 451 1059 c 0
 324 1059 234 977 170 903 c 1
 74 997 l 1
 129 1058 187 1108 248 1143 c 128
 309 1178 383 1196 469 1196 c 0
 704 1196 856 1050 856 817 c 0
 856 761 843 707 818 655 c 128
 757 529 656 426 550 325 c 128
 488 266 420 201 346 133 c 1
EndSplineSet
Substitution2: "'pnum' Proportional Numbers in Latin lookup 15 subtable" two.onum
Substitution2: "'aalt' Access All Alternates in Latin lookup 0 subtable" two.onum
EndChar

StartChar: three.tnum
Encoding: 65607 -1 492
Width: 1017
Flags: HW
LayerCount: 2
Fore
SplineSet
868 864 m 0
 868 694 760 596 631 549 c 1
 631 541 l 1
 754 511 850 438 892 327 c 128
 906 289 913 248 913 203 c 0
 913 14 794 -101 651 -150 c 128
 599 -168 543 -176 483 -176 c 0
 283 -176 147 -98 53 8 c 1
 139 119 l 1
 217 38 315 -35 473 -35 c 0
 626 -35 743 60 743 211 c 0
 743 423 546 473 326 473 c 1
 326 604 l 1
 528 604 696 658 696 852 c 0
 696 984 605 1063 471 1063 c 0
 347 1063 261 998 193 930 c 1
 102 1036 l 1
 194 1123 308 1200 477 1200 c 0
 655 1200 784 1130 840 1007 c 128
 859 965 868 917 868 864 c 0
EndSplineSet
Substitution2: "'pnum' Proportional Numbers in Latin lookup 15 subtable" three.onum
Substitution2: "'aalt' Access All Alternates in Latin lookup 0 subtable" three.onum
EndChar

StartChar: four.tnum
Encoding: 65608 -1 493
Width: 1017
Flags: HW
LayerCount: 2
Fore
SplineSet
623 743 m 2
 623 813 628 924 633 989 c 1
 625 989 l 1
 591 921 555 854 518 788 c 1
 213 328 l 1
 623 328 l 1
 623 743 l 2
961 193 m 1
 782 193 l 1
 782 -152 l 1
 623 -152 l 1
 623 193 l 1
 35 193 l 1
 35 305 l 1
 594 1176 l 1
 782 1176 l 1
 782 328 l 1
 961 328 l 1
 961 193 l 1
EndSplineSet
Substitution2: "'pnum' Proportional Numbers in Latin lookup 15 subtable" four.onum
Substitution2: "'aalt' Access All Alternates in Latin lookup 0 subtable" four.onum
EndChar

StartChar: five.tnum
Encoding: 65609 -1 494
Width: 1017
Flags: HW
LayerCount: 2
Fore
SplineSet
313 633 m 1
 372 664 428 688 514 688 c 0
 707 688 831 599 888 459 c 128
 909 407 920 345 920 274 c 0
 920 55 803 -86 644 -146 c 128
 591 -166 536 -176 479 -176 c 0
 279 -176 148 -97 51 6 c 1
 133 113 l 1
 209 37 310 -35 463 -35 c 0
 599 -35 687 44 727 143 c 128
 742 180 750 222 750 268 c 0
 750 445 645 559 471 559 c 0
 365 559 318 527 248 479 c 1
 158 537 l 1
 201 1176 l 1
 854 1176 l 1
 854 1030 l 1
 348 1030 l 1
 313 633 l 1
EndSplineSet
Substitution2: "'pnum' Proportional Numbers in Latin lookup 15 subtable" five.onum
Substitution2: "'aalt' Access All Alternates in Latin lookup 0 subtable" five.onum
EndChar

StartChar: seven.tnum
Encoding: 65611 -1 496
Width: 1017
Flags: HW
LayerCount: 2
Fore
SplineSet
362 -152 m 1
 378 217 445 508 577 763 c 128
 623 851 677 940 741 1030 c 1
 90 1030 l 1
 90 1176 l 1
 932 1176 l 1
 932 1071 l 1
 740 825 610 577 564 201 c 128
 551 95 542 -24 537 -152 c 1
 362 -152 l 1
EndSplineSet
Substitution2: "'pnum' Proportional Numbers in Latin lookup 15 subtable" seven.onum
Substitution2: "'aalt' Access All Alternates in Latin lookup 0 subtable" seven.onum
EndChar

StartChar: nine.tnum
Encoding: 65613 -1 498
Width: 1017
Flags: HW
LayerCount: 2
Fore
SplineSet
221 764 m 0
 221 585 292 465 469 465 c 0
 515 465 563 478 614 505 c 128
 665 532 713 577 758 641 c 1
 750 782 721 887 670 959 c 128
 619 1031 550 1067 461 1067 c 0
 340 1067 271 981 240 887 c 128
 228 850 221 809 221 764 c 0
440 338 m 0
 186 338 61 504 61 764 c 0
 61 966 164 1106 306 1168 c 128
 354 1189 406 1200 461 1200 c 0
 710 1200 836 1030 890 828 c 128
 911 749 922 661 922 561 c 0
 922 234 837 -26 623 -131 c 128
 562 -161 493 -176 418 -176 c 0
 276 -176 192 -127 111 -59 c 1
 182 59 l 1
 249 -4 325 -35 410 -35 c 0
 599 -35 681 91 725 248 c 128
 744 316 756 401 760 502 c 1
 691 417 578 338 440 338 c 0
EndSplineSet
Substitution2: "'pnum' Proportional Numbers in Latin lookup 15 subtable" nine.onum
Substitution2: "'aalt' Access All Alternates in Latin lookup 0 subtable" nine.onum
EndChar

StartChar: one.onum
Encoding: 65615 -1 500
Width: 755
Flags: HW
LayerCount: 2
Fore
SplineSet
102 1079 m 1
 216 1099 302 1127 381 1176 c 1
 510 1176 l 1
 510 0 l 1
 342 0 l 1
 342 971 l 1
 102 971 l 1
 102 1079 l 1
EndSplineSet
EndChar

StartChar: two.onum
Encoding: 65616 -1 501
Width: 1017
Flags: HW
LayerCount: 2
Fore
SplineSet
356 133 m 1
 423 138 505 145 575 145 c 2
 909 145 l 1
 909 0 l 1
 98 0 l 1
 98 100 l 1
 262 236 414 361 539 505 c 128
 588 562 624 615 649 665 c 128
 674 715 686 763 686 811 c 0
 686 963 608 1059 451 1059 c 0
 395 1059 345 1044 302 1014 c 128
 259 984 218 947 180 903 c 1
 84 997 l 1
 139 1057 195 1106 254 1142 c 128
 313 1178 384 1196 469 1196 c 0
 653 1196 774 1109 824 973 c 128
 841 927 850 874 850 817 c 0
 850 761 838 707 814 655 c 128
 756 529 661 426 558 325 c 128
 497 266 430 201 356 133 c 1
EndSplineSet
EndChar

StartChar: seven.onum
Encoding: 65621 -1 506
Width: 1001
Flags: HW
LayerCount: 2
Fore
SplineSet
338 -152 m 1
 349 93 376 298 438 490 c 128
 504 696 594 863 713 1030 c 1
 90 1030 l 1
 90 1176 l 1
 903 1176 l 1
 903 1071 l 1
 714 824 583 577 539 202 c 128
 527 96 517 -22 512 -152 c 1
 338 -152 l 1
EndSplineSet
EndChar

StartChar: period
Encoding: 46 46 509
Width: 509
Flags: HW
LayerCount: 2
Fore
SplineSet
256 -25 m 0
 186 -25 133 31 133 102 c 0
 133 176 184 233 256 233 c 0
 326 233 377 175 377 102 c 0
 377 32 324 -25 256 -25 c 0
EndSplineSet
Substitution2: "'subs' Subscript in Latin lookup 14 subtable" period.subs
Substitution2: "'sups' Superscript in Latin lookup 13 subtable" period.sups
Substitution2: "'dnom' Denominators in Latin lookup 9 subtable" period.dnom
Substitution2: "'numr' Numerators in Latin lookup 8 subtable" period.numr
AlternateSubs2: "'aalt' Access All Alternates in Latin lookup 1 subtable" period.numr period.dnom period.sups period.subs
EndChar

StartChar: comma
Encoding: 44 44 510
Width: 509
Flags: HW
LayerCount: 2
Fore
SplineSet
264 233 m 0
 363 233 406 141 406 35 c 0
 406 -162 284 -285 137 -348 c 1
 96 -250 l 1
 193 -206 281 -129 281 0 c 1
 277 -1 270 -2 260 -2 c 0
 191 -2 139 43 139 115 c 0
 139 186 194 233 264 233 c 0
EndSplineSet
Substitution2: "'subs' Subscript in Latin lookup 14 subtable" comma.subs
Substitution2: "'sups' Superscript in Latin lookup 13 subtable" comma.sups
Substitution2: "'dnom' Denominators in Latin lookup 9 subtable" comma.dnom
Substitution2: "'numr' Numerators in Latin lookup 8 subtable" comma.numr
AlternateSubs2: "'aalt' Access All Alternates in Latin lookup 1 subtable" comma.numr comma.dnom comma.sups comma.subs
EndChar

StartChar: exclam
Encoding: 33 33 514
Width: 591
Flags: HW
LayerCount: 2
Fore
SplineSet
215 1180 m 1
 211 1372 l 1
 381 1372 l 1
 377 1180 l 1
 354 406 l 1
 238 406 l 1
 215 1180 l 1
297 -25 m 0
 227 -25 174 31 174 102 c 0
 174 176 225 233 297 233 c 0
 367 233 418 175 418 102 c 0
 418 32 365 -25 297 -25 c 0
EndSplineSet
EndChar

StartChar: exclamdown
Encoding: 161 161 515
Width: 591
Flags: HW
LayerCount: 2
Fore
SplineSet
377 -184 m 1
 381 -377 l 1
 211 -377 l 1
 215 -184 l 1
 238 590 l 1
 354 590 l 1
 377 -184 l 1
297 1020 m 0
 365 1020 418 963 418 893 c 0
 418 820 367 762 297 762 c 0
 225 762 174 819 174 893 c 0
 174 964 227 1020 297 1020 c 0
EndSplineSet
EndChar

StartChar: question
Encoding: 63 63 516
Width: 870
Flags: HW
LayerCount: 2
Fore
SplineSet
422 1397 m 0
 631 1397 772 1276 772 1069 c 0
 772 971 730 902 687 842 c 128
 617 746 524 660 485 536 c 128
 476 509 473 479 473 448 c 0
 473 434 473 421 475 406 c 1
 328 406 l 1
 325 427 323 447 323 466 c 0
 323 548 350 613 381 669 c 128
 440 772 532 849 585 956 c 128
 601 987 608 1022 608 1059 c 0
 608 1176 533 1257 410 1257 c 0
 305 1257 227 1201 174 1139 c 1
 78 1227 l 1
 157 1316 263 1397 422 1397 c 0
406 -25 m 256
 336 -25 285 31 285 102 c 0
 285 176 334 233 406 233 c 256
 478 233 528 176 528 102 c 0
 528 31 476 -25 406 -25 c 256
EndSplineSet
EndChar

StartChar: questiondown
Encoding: 191 191 517
Width: 870
Flags: HW
LayerCount: 2
Fore
SplineSet
449 -401 m 0
 240 -401 98 -281 98 -74 c 0
 98 24 140 94 183 154 c 128
 253 250 344 335 383 460 c 128
 392 487 396 516 396 547 c 0
 396 561 395 575 393 590 c 1
 543 590 l 1
 546 569 547 548 547 529 c 0
 547 300 368 205 286 38 c 128
 270 6 262 -28 262 -63 c 0
 262 -181 337 -260 461 -260 c 0
 566 -260 641 -205 694 -143 c 1
 793 -231 l 1
 714 -318 607 -401 449 -401 c 0
465 1020 m 0
 533 1020 586 963 586 893 c 0
 586 820 535 762 465 762 c 0
 393 762 342 819 342 893 c 0
 342 964 395 1020 465 1020 c 0
EndSplineSet
EndChar

StartChar: quotesingle
Encoding: 39 39 518
Width: 509
Flags: HW
LayerCount: 2
Fore
SplineSet
170 1225 m 1
 164 1413 l 1
 344 1413 l 1
 338 1225 l 1
 305 883 l 1
 203 883 l 1
 170 1225 l 1
EndSplineSet
EndChar

StartChar: quoteleft
Encoding: 8216 8216 520
Width: 509
Flags: HW
LayerCount: 2
Fore
SplineSet
246 877 m 0
 152 877 117 958 117 1061 c 0
 117 1245 209 1353 334 1425 c 1
 383 1346 l 1
 331 1312 292 1275 266 1237 c 128
 240 1199 227 1151 227 1092 c 1
 231 1093 238 1094 246 1094 c 0
 306 1094 354 1052 354 989 c 0
 354 921 312 877 246 877 c 0
EndSplineSet
EndChar

StartChar: quoteright
Encoding: 8217 8217 521
Width: 509
Flags: HW
LayerCount: 2
Fore
SplineSet
266 1432 m 0
 358 1432 395 1347 395 1245 c 0
 395 1061 301 955 176 883 c 1
 129 961 l 1
 181 995 220 1031 245 1069 c 128
 270 1107 283 1157 283 1217 c 1
 279 1216 273 1214 266 1214 c 0
 206 1214 158 1255 158 1317 c 0
 158 1385 200 1432 266 1432 c 0
EndSplineSet
EndChar

StartChar: guilsinglleft
Encoding: 8249 8249 526
Width: 555
Flags: HW
LayerCount: 2
Fore
SplineSet
92 453 m 1
 92 580 l 1
 371 897 l 1
 444 836 l 1
 203 516 l 1
 444 193 l 1
 371 135 l 1
 92 453 l 1
EndSplineSet
EndChar

StartChar: guilsinglright
Encoding: 8250 8250 527
Width: 555
Flags: HW
LayerCount: 2
Fore
SplineSet
352 516 m 1
 111 836 l 1
 182 897 l 1
 463 580 l 1
 463 453 l 1
 182 135 l 1
 111 193 l 1
 352 516 l 1
EndSplineSet
EndChar

StartChar: hyphen
Encoding: 45 45 530
Width: 636
Flags: HW
LayerCount: 2
Fore
SplineSet
84 578 m 1
 555 578 l 1
 555 449 l 1
 84 449 l 1
 84 578 l 1
EndSplineSet
EndChar

StartChar: endash
Encoding: 8211 8211 532
Width: 983
Flags: HW
LayerCount: 2
Fore
SplineSet
84 573 m 1
 899 573 l 1
 899 457 l 1
 84 457 l 1
 84 573 l 1
EndSplineSet
EndChar

StartChar: emdash
Encoding: 8212 8212 533
Width: 1638
Flags: HW
LayerCount: 2
Fore
SplineSet
84 573 m 1
 1554 573 l 1
 1554 457 l 1
 84 457 l 1
 84 573 l 1
EndSplineSet
EndChar

StartChar: figuredash
Encoding: 8210 8210 534
Width: 1017
Flags: HW
LayerCount: 2
Fore
SplineSet
84 573 m 1
 936 573 l 1
 936 457 l 1
 84 457 l 1
 84 573 l 1
EndSplineSet
EndChar

StartChar: bullet
Encoding: 8226 8226 537
Width: 622
Flags: HW
LayerCount: 2
Fore
SplineSet
311 293 m 0
 202 293 132 359 100 438 c 128
 88 468 82 502 82 539 c 256
 82 656 142 732 223 768 c 128
 250 780 280 786 311 786 c 0
 417 786 491 718 522 640 c 128
 534 609 541 576 541 539 c 256
 541 424 480 344 398 310 c 128
 370 298 341 293 311 293 c 0
EndSplineSet
EndChar

StartChar: underscore
Encoding: 95 95 538
Width: 1024
Flags: HW
LayerCount: 2
Fore
SplineSet
999 -145 m 1
 999 -258 l 1
 25 -258 l 1
 25 -145 l 1
 999 -145 l 1
EndSplineSet
EndChar

StartChar: parenleft
Encoding: 40 40 539
Width: 620
Flags: HW
LayerCount: 2
Fore
SplineSet
438 -360 m 1
 281 -107 168 178 168 569 c 256
 168 749 192 915 240 1066 c 128
 288 1217 353 1361 438 1499 c 1
 543 1450 l 1
 401 1215 307 922 307 569 c 256
 307 216 401 -77 543 -311 c 1
 438 -360 l 1
EndSplineSet
Substitution2: "'subs' Subscript in Latin lookup 14 subtable" uni208D
Substitution2: "'sups' Superscript in Latin lookup 13 subtable" uni207D
Substitution2: "'dnom' Denominators in Latin lookup 9 subtable" parenleft.dnom
Substitution2: "'numr' Numerators in Latin lookup 8 subtable" parenleft.numr
AlternateSubs2: "'aalt' Access All Alternates in Latin lookup 1 subtable" parenleft.numr parenleft.dnom uni207D uni208D
EndChar

StartChar: parenright
Encoding: 41 41 540
Width: 620
Flags: HW
LayerCount: 2
Fore
SplineSet
78 -311 m 1
 220 -76 313 216 313 569 c 256
 313 922 220 1216 78 1450 c 1
 182 1499 l 1
 267 1361 333 1217 381 1066 c 128
 429 915 453 749 453 569 c 256
 453 179 339 -107 182 -360 c 1
 78 -311 l 1
EndSplineSet
Substitution2: "'subs' Subscript in Latin lookup 14 subtable" uni208E
Substitution2: "'sups' Superscript in Latin lookup 13 subtable" uni207E
Substitution2: "'dnom' Denominators in Latin lookup 9 subtable" parenright.dnom
Substitution2: "'numr' Numerators in Latin lookup 8 subtable" parenright.numr
AlternateSubs2: "'aalt' Access All Alternates in Latin lookup 1 subtable" parenright.numr parenright.dnom uni207E uni208E
EndChar

StartChar: bracketleft
Encoding: 91 91 541
Width: 620
Flags: HW
LayerCount: 2
Fore
SplineSet
193 1450 m 1
 559 1450 l 1
 559 1352 l 1
 319 1352 l 1
 319 -215 l 1
 559 -215 l 1
 559 -311 l 1
 193 -311 l 1
 193 1450 l 1
EndSplineSet
EndChar

StartChar: bracketright
Encoding: 93 93 542
Width: 620
Flags: HW
LayerCount: 2
Fore
SplineSet
301 -215 m 1
 301 1352 l 1
 63 1352 l 1
 63 1450 l 1
 428 1450 l 1
 428 -311 l 1
 63 -311 l 1
 63 -215 l 1
 301 -215 l 1
EndSplineSet
EndChar

StartChar: braceleft
Encoding: 123 123 543
Width: 620
Flags: HW
LayerCount: 2
Fore
SplineSet
365 -29 m 0
 365 -153 385 -215 502 -215 c 2
 559 -215 l 1
 559 -311 l 1
 465 -311 l 2
 285 -311 227 -222 227 -39 c 0
 227 32 233 98 237 164 c 128
 240 211 240 211 243 258 c 128
 245 289 246 322 246 356 c 0
 246 463 180 516 70 516 c 1
 70 623 l 1
 180 623 246 674 246 780 c 0
 246 916 227 1039 227 1178 c 0
 227 1359 286 1450 465 1450 c 2
 559 1450 l 1
 559 1352 l 1
 502 1352 l 2
 385 1352 365 1291 365 1167 c 0
 365 1045 377 920 377 797 c 0
 377 672 348 599 254 573 c 1
 254 565 l 1
 347 539 377 466 377 342 c 0
 377 205 365 104 365 -29 c 0
EndSplineSet
EndChar

StartChar: braceright
Encoding: 125 125 544
Width: 620
Flags: HW
LayerCount: 2
Fore
SplineSet
551 516 m 1
 442 516 375 462 375 356 c 0
 375 322 376 289 378 258 c 128
 381 211 381 211 384 164 c 128
 388 99 393 32 393 -39 c 0
 393 -223 336 -311 154 -311 c 2
 63 -311 l 1
 63 -215 l 1
 117 -215 l 2
 236 -215 256 -154 256 -29 c 0
 256 104 246 205 246 342 c 0
 246 466 274 539 367 565 c 1
 367 573 l 1
 273 599 246 672 246 797 c 0
 246 920 256 1045 256 1167 c 0
 256 1292 236 1352 117 1352 c 2
 63 1352 l 1
 63 1450 l 1
 154 1450 l 2
 334 1450 393 1370 393 1178 c 0
 393 1039 375 916 375 780 c 0
 375 679 437 625 551 623 c 1
 551 516 l 1
EndSplineSet
EndChar

StartChar: slash
Encoding: 47 47 545
Width: 716
Flags: HW
LayerCount: 2
Fore
SplineSet
567 1454 m 1
 690 1454 l 1
 145 -328 l 1
 20 -328 l 1
 567 1454 l 1
EndSplineSet
Substitution2: "'frac' Diagonal Fractions in Latin lookup 10 subtable" slash.frac
EndChar

StartChar: bar
Encoding: 124 124 546
Width: 493
Flags: HW
LayerCount: 2
Fore
SplineSet
188 1536 m 1
 307 1536 l 1
 307 -512 l 1
 188 -512 l 1
 188 1536 l 1
EndSplineSet
EndChar

StartChar: backslash
Encoding: 92 92 547
Width: 716
Flags: HW
LayerCount: 2
Fore
SplineSet
29 1454 m 1
 150 1454 l 1
 696 -328 l 1
 573 -328 l 1
 29 1454 l 1
EndSplineSet
EndChar

StartChar: brokenbar
Encoding: 166 166 548
Width: 493
Flags: HW
LayerCount: 2
Fore
SplineSet
188 1536 m 1
 307 1536 l 1
 307 596 l 1
 188 596 l 1
 188 1536 l 1
307 438 m 1
 307 -512 l 1
 188 -512 l 1
 188 438 l 1
 307 438 l 1
EndSplineSet
EndChar

StartChar: asterisk
Encoding: 42 42 549
Width: 856
Flags: HW
LayerCount: 2
Fore
SplineSet
201 920 m 1
 317 1112 l 1
 119 1194 l 1
 150 1288 l 1
 358 1237 l 1
 377 1458 l 1
 477 1458 l 1
 496 1239 l 1
 707 1288 l 1
 737 1194 l 1
 539 1112 l 1
 653 920 l 1
 573 860 l 1
 428 1036 l 1
 283 860 l 1
 201 920 l 1
EndSplineSet
EndChar

StartChar: dagger
Encoding: 8224 8224 550
Width: 929
Flags: HW
LayerCount: 2
Fore
SplineSet
403 1006 m 1
 111 995 l 1
 111 1141 l 1
 403 1130 l 1
 393 1458 l 1
 537 1458 l 1
 526 1130 l 1
 819 1141 l 1
 819 995 l 1
 526 1006 l 1
 537 -164 l 1
 393 -164 l 1
 403 1006 l 1
EndSplineSet
EndChar

StartChar: daggerdbl
Encoding: 8225 8225 551
Width: 929
Flags: HW
LayerCount: 2
Fore
SplineSet
111 299 m 1
 403 285 l 1
 393 647 l 1
 403 1010 l 1
 111 995 l 1
 111 1141 l 1
 403 1130 l 1
 393 1458 l 1
 537 1458 l 1
 526 1130 l 1
 819 1141 l 1
 819 995 l 1
 526 1010 l 1
 537 647 l 1
 526 285 l 1
 819 299 l 1
 819 154 l 1
 526 164 l 1
 537 -164 l 1
 393 -164 l 1
 403 164 l 1
 111 154 l 1
 111 299 l 1
EndSplineSet
EndChar

StartChar: section
Encoding: 167 167 552
Width: 1017
Flags: HW
LayerCount: 2
Fore
SplineSet
365 891 m 1
 297 854 240 809 240 713 c 0
 240 613 313 561 384 524 c 128
 468 480 573 443 655 395 c 1
 726 429 778 470 778 569 c 0
 778 671 706 724 635 763 c 128
 552 808 447 843 365 891 c 1
268 967 m 1
 230 1008 203 1059 203 1135 c 256
 203 1265 281 1342 379 1379 c 128
 417 1393 462 1401 514 1401 c 0
 648 1401 753 1344 829 1284 c 1
 748 1176 l 1
 690 1225 620 1270 520 1270 c 0
 423 1270 358 1227 358 1141 c 0
 358 1104 372 1074 400 1049 c 128
 462 994 555 957 642 920 c 128
 739 879 828 821 884 738 c 128
 912 696 926 645 926 582 c 0
 926 516 910 463 878 423 c 128
 846 383 804 347 752 317 c 1
 788 274 813 226 813 150 c 0
 813 10 721 -72 615 -110 c 128
 575 -124 531 -131 483 -131 c 0
 326 -131 208 -70 129 14 c 1
 231 106 l 1
 294 45 365 0 483 0 c 256
 579 0 657 51 657 141 c 0
 657 179 643 212 615 238 c 128
 518 328 352 362 239 440 c 128
 160 494 92 571 92 702 c 0
 92 835 177 917 268 967 c 1
EndSplineSet
EndChar

StartChar: paragraph
Encoding: 182 182 553
Width: 1146
Flags: HW
LayerCount: 2
Fore
SplineSet
778 1343 m 1
 950 1343 l 1
 950 -164 l 1
 778 -164 l 1
 778 1343 l 1
84 907 m 0
 84 1214 273 1343 578 1343 c 2
 668 1343 l 1
 668 463 l 1
 600 463 l 2
 364 463 198 544 123 707 c 128
 97 763 84 829 84 907 c 0
EndSplineSet
EndChar

StartChar: copyright
Encoding: 169 169 554
Width: 1523
Flags: HW
LayerCount: 2
Fore
SplineSet
100 662 m 0
 100 880 184 1044 297 1155 c 128
 404 1259 564 1337 762 1337 c 256
 961 1337 1118 1259 1226 1155 c 128
 1340 1045 1423 880 1423 662 c 0
 1423 442 1341 275 1226 163 c 128
 1119 58 961 -23 762 -23 c 256
 564 -23 403 58 297 163 c 128
 183 275 100 442 100 662 c 0
197 662 m 0
 197 473 268 327 364 228 c 128
 455 135 589 63 762 63 c 256
 935 63 1069 135 1160 228 c 128
 1256 327 1327 473 1327 662 c 0
 1327 849 1256 995 1160 1092 c 128
 1069 1185 935 1253 762 1253 c 256
 589 1253 455 1184 364 1092 c 128
 268 995 197 849 197 662 c 0
1055 373 m 1
 983 311 908 256 778 256 c 0
 600 256 485 358 434 490 c 128
 415 540 406 598 406 662 c 0
 406 845 509 971 642 1022 c 128
 688 1040 735 1049 784 1049 c 0
 904 1049 978 994 1040 932 c 1
 969 852 l 1
 923 898 874 936 791 936 c 0
 637 936 541 818 541 662 c 0
 541 496 625 369 784 369 c 0
 879 369 939 412 993 459 c 1
 1055 373 l 1
EndSplineSet
EndChar

StartChar: uni2117
Encoding: 8471 8471 555
Width: 1521
Flags: HW
LayerCount: 2
Fore
SplineSet
801 1024 m 2
 971 1024 1104 954 1104 784 c 0
 1104 605 979 516 801 516 c 2
 651 516 l 1
 651 281 l 1
 518 281 l 1
 518 1024 l 1
 801 1024 l 2
971 780 m 0
 971 886 890 920 778 920 c 2
 651 920 l 1
 651 618 l 1
 778 618 l 2
 897 618 971 662 971 780 c 0
100 662 m 0
 100 880 184 1044 297 1155 c 128
 404 1259 564 1337 762 1337 c 256
 961 1337 1118 1259 1226 1155 c 128
 1340 1045 1423 880 1423 662 c 0
 1423 442 1341 275 1226 163 c 128
 1119 58 961 -23 762 -23 c 256
 564 -23 403 58 297 163 c 128
 183 275 100 442 100 662 c 0
197 662 m 0
 197 473 268 327 364 228 c 128
 455 135 589 63 762 63 c 256
 935 63 1069 135 1160 228 c 128
 1256 327 1327 473 1327 662 c 0
 1327 849 1256 995 1160 1092 c 128
 1069 1185 935 1253 762 1253 c 256
 589 1253 455 1184 364 1092 c 128
 268 995 197 849 197 662 c 0
EndSplineSet
EndChar

StartChar: registered
Encoding: 174 174 556
Width: 866
Flags: HW
LayerCount: 2
Fore
SplineSet
432 653 m 256
 250 653 133 762 78 893 c 128
 58 942 47 997 47 1057 c 256
 47 1246 149 1374 283 1431 c 128
 329 1451 379 1460 432 1460 c 256
 614 1460 733 1353 788 1221 c 128
 808 1172 819 1117 819 1057 c 256
 819 868 718 740 583 683 c 128
 536 663 485 653 432 653 c 256
432 729 m 0
 578 729 672 815 714 923 c 128
 730 963 737 1008 737 1057 c 0
 737 1209 659 1315 552 1362 c 128
 514 1378 474 1386 432 1386 c 0
 284 1386 195 1298 153 1189 c 128
 137 1149 129 1105 129 1057 c 0
 129 905 204 799 311 753 c 128
 348 737 388 729 432 729 c 0
600 1137 m 0
 600 1083 566 1039 524 1024 c 1
 618 854 l 1
 524 854 l 1
 453 997 l 1
 369 997 l 1
 369 854 l 1
 285 854 l 1
 285 1270 l 1
 440 1270 l 2
 531 1270 600 1232 600 1137 c 0
510 1133 m 0
 510 1182 480 1200 426 1200 c 2
 369 1200 l 1
 369 1063 l 1
 422 1063 l 2
 481 1063 510 1087 510 1133 c 0
EndSplineSet
EndChar

StartChar: trademark
Encoding: 8482 8482 557
Width: 1304
Flags: HW
LayerCount: 2
Fore
SplineSet
635 1384 m 1
 788 1384 l 1
 883 1155 l 1
 938 993 l 1
 946 993 l 1
 1001 1155 l 1
 1094 1384 l 1
 1245 1384 l 1
 1245 750 l 1
 1128 750 l 1
 1128 1030 l 1
 1141 1245 l 1
 1133 1245 l 1
 987 848 l 1
 895 848 l 1
 748 1245 l 1
 739 1245 l 1
 754 1030 l 1
 754 750 l 1
 635 750 l 1
 635 1384 l 1
209 1274 m 1
 6 1274 l 1
 6 1384 l 1
 537 1384 l 1
 537 1274 l 1
 332 1274 l 1
 332 750 l 1
 209 750 l 1
 209 1274 l 1
EndSplineSet
EndChar

StartChar: uni2120
Encoding: 8480 8480 558
Width: 1304
Flags: HW
LayerCount: 2
Fore
SplineSet
297 1303 m 0
 243 1303 201 1274 201 1225 c 256
 201 1175 246 1156 287 1137 c 2
 381 1090 l 1
 454 1057 510 1013 510 911 c 0
 510 821 447 765 379 740 c 128
 352 730 321 725 287 725 c 0
 185 725 110 768 55 823 c 1
 123 899 l 1
 166 859 218 821 295 821 c 0
 352 821 395 847 395 901 c 0
 395 928 388 947 374 957 c 128
 360 967 337 980 307 995 c 2
 211 1042 l 2
 148 1072 88 1124 88 1219 c 0
 88 1333 185 1399 303 1399 c 0
 383 1399 455 1361 498 1321 c 1
 438 1241 l 1
 403 1267 352 1303 297 1303 c 0
635 1384 m 1
 788 1384 l 1
 883 1155 l 1
 938 993 l 1
 946 993 l 1
 1001 1155 l 1
 1094 1384 l 1
 1245 1384 l 1
 1245 750 l 1
 1128 750 l 1
 1128 1030 l 1
 1141 1245 l 1
 1133 1245 l 1
 987 848 l 1
 895 848 l 1
 748 1245 l 1
 739 1245 l 1
 754 1030 l 1
 754 750 l 1
 635 750 l 1
 635 1384 l 1
EndSplineSet
EndChar

StartChar: at
Encoding: 64 64 559
Width: 1734
Flags: HW
LayerCount: 2
Fore
SplineSet
838 -205 m 0
 971 -205 1082 -164 1169 -113 c 1
 1214 -213 l 1
 1098 -283 968 -317 825 -317 c 0
 482 -317 263 -148 161 100 c 128
 123 191 104 297 104 416 c 0
 104 703 212 927 359 1075 c 128
 497 1214 699 1323 958 1323 c 0
 1285 1323 1493 1161 1583 922 c 128
 1614 839 1630 746 1630 645 c 0
 1630 468 1576 332 1495 239 c 128
 1432 167 1339 100 1221 100 c 0
 1107 100 1023 154 1010 256 c 1
 1006 256 l 1
 951 192 863 117 756 117 c 0
 599 117 510 238 510 406 c 0
 510 532 558 648 616 726 c 128
 676 807 770 881 903 881 c 0
 986 881 1034 841 1067 782 c 1
 1071 782 l 1
 1094 864 l 1
 1206 864 l 1
 1126 455 l 1
 1115 413 1110 376 1110 345 c 0
 1110 258 1152 215 1237 215 c 0
 1321 215 1381 271 1422 327 c 128
 1476 401 1511 509 1511 639 c 0
 1511 912 1388 1087 1190 1167 c 128
 1119 1196 1037 1210 944 1210 c 0
 732 1210 563 1111 449 995 c 128
 322 866 227 672 227 422 c 0
 227 117 373 -80 595 -163 c 128
 669 -191 751 -205 838 -205 c 0
1036 678 m 1
 1005 729 974 764 905 764 c 0
 814 764 753 706 714 647 c 128
 676 589 645 505 645 416 c 0
 645 305 689 231 788 231 c 0
 817 231 847 241 878 260 c 128
 909 279 942 310 977 352 c 1
 1036 678 l 1
EndSplineSet
Substitution2: "'case' Case-Sensitive Forms in Latin lookup 17 subtable" at.case
Substitution2: "'aalt' Access All Alternates in Latin lookup 0 subtable" at.case
EndChar

StartChar: at.case
Encoding: 65624 -1 560
Width: 1601
Flags: HW
LayerCount: 2
Fore
SplineSet
1079 35 m 1
 985 -19 889 -49 752 -49 c 0
 450 -49 248 94 156 311 c 128
 122 392 104 486 104 594 c 0
 104 853 205 1053 339 1186 c 128
 466 1312 653 1409 891 1409 c 0
 1181 1409 1371 1267 1455 1058 c 128
 1484 985 1499 903 1499 813 c 0
 1499 584 1412 412 1262 337 c 128
 1217 314 1170 303 1124 303 c 0
 1017 303 951 366 938 461 c 1
 934 461 l 1
 882 395 797 319 688 319 c 0
 580 319 513 392 484 475 c 128
 472 508 467 544 467 584 c 0
 467 772 562 919 684 991 c 128
 730 1018 783 1032 840 1032 c 0
 918 1032 965 991 995 934 c 1
 999 934 l 1
 1024 1016 l 1
 1139 1016 l 1
 1057 651 l 2
 1047 607 1040 566 1040 531 c 0
 1040 463 1066 418 1143 418 c 0
 1213 418 1268 467 1302 516 c 128
 1349 585 1380 685 1380 805 c 0
 1380 1044 1270 1198 1094 1265 c 128
 1031 1289 957 1300 874 1300 c 256
 681 1300 529 1215 425 1110 c 128
 311 994 225 824 225 600 c 0
 225 329 351 159 553 92 c 128
 619 70 689 59 764 59 c 0
 869 59 963 87 1032 129 c 1
 1079 35 l 1
602 598 m 0
 602 503 640 434 725 434 c 0
 780 434 840 474 907 553 c 1
 963 834 l 1
 932 885 908 918 840 918 c 0
 757 918 701 865 666 811 c 128
 631 757 602 680 602 598 c 0
EndSplineSet
EndChar

StartChar: numbersign
Encoding: 35 35 561
Width: 1017
Flags: HW
LayerCount: 2
Fore
SplineSet
236 418 m 1
 72 418 l 1
 72 535 l 1
 250 535 l 1
 287 838 l 1
 113 838 l 1
 113 956 l 1
 301 956 l 1
 348 1331 l 1
 457 1331 l 1
 410 956 l 1
 682 956 l 1
 731 1331 l 1
 840 1331 l 1
 791 956 l 1
 956 956 l 1
 956 838 l 1
 778 838 l 1
 741 535 l 1
 915 535 l 1
 915 418 l 1
 727 418 l 1
 676 0 l 1
 567 0 l 1
 616 418 l 1
 346 418 l 1
 295 0 l 1
 184 0 l 1
 236 418 l 1
631 535 m 1
 668 838 l 1
 397 838 l 1
 360 535 l 1
 631 535 l 1
EndSplineSet
EndChar

StartChar: zero.dnom
Encoding: 65629 -1 590
Width: 751
Flags: HW
LayerCount: 2
Fore
SplineSet
682 401 m 0
 682 168 589 -25 377 -25 c 0
 163 -25 72 167 72 401 c 0
 72 634 163 823 377 823 c 0
 589 823 682 632 682 401 c 0
377 80 m 0
 429 80 471 107 504 161 c 128
 537 215 553 295 553 401 c 256
 553 507 537 587 504 640 c 128
 471 693 429 719 377 719 c 0
 324 719 281 693 248 640 c 128
 215 587 199 507 199 401 c 256
 199 295 215 215 248 161 c 128
 281 107 324 80 377 80 c 0
EndSplineSet
EndChar

StartChar: one.dnom
Encoding: 65630 -1 591
Width: 751
Flags: HW
LayerCount: 2
Fore
SplineSet
178 717 m 1
 266 733 319 755 377 799 c 1
 483 799 l 1
 483 0 l 1
 352 0 l 1
 352 631 l 1
 178 631 l 1
 178 717 l 1
EndSplineSet
EndChar

StartChar: two.dnom
Encoding: 65631 -1 592
Width: 751
Flags: HW
LayerCount: 2
Fore
SplineSet
348 823 m 0
 512 823 614 731 614 565 c 0
 614 473 573 407 529 347 c 128
 468 264 393 191 317 113 c 1
 655 113 l 1
 655 0 l 1
 106 0 l 1
 106 76 l 1
 209 170 308 253 389 348 c 128
 420 385 445 420 461 452 c 128
 477 484 485 515 485 545 c 0
 485 645 430 713 332 713 c 0
 252 713 197 648 160 596 c 1
 82 668 l 1
 136 747 224 823 348 823 c 0
EndSplineSet
EndChar

StartChar: three.dnom
Encoding: 65632 -1 593
Width: 751
Flags: HW
LayerCount: 2
Fore
SplineSet
481 412 m 1
 568 391 653 323 653 215 c 0
 653 59 525 -25 369 -25 c 0
 231 -25 130 47 72 131 c 1
 160 199 l 1
 202 136 265 80 362 80 c 0
 451 80 522 132 522 223 c 256
 522 334 399 365 274 365 c 1
 274 449 l 1
 387 449 492 492 492 592 c 0
 492 672 428 719 346 719 c 0
 275 719 221 666 184 623 c 1
 104 692 l 1
 167 762 243 823 367 823 c 0
 479 823 561 774 600 699 c 128
 614 672 621 642 621 608 c 0
 621 505 555 446 481 412 c 1
EndSplineSet
EndChar

StartChar: four.dnom
Encoding: 65633 -1 594
Width: 751
Flags: HW
LayerCount: 2
Fore
SplineSet
451 307 m 1
 451 451 l 1
 459 674 l 1
 451 674 l 1
 376 551 299 429 223 307 c 1
 451 307 l 1
688 213 m 1
 569 213 l 1
 569 0 l 1
 451 0 l 1
 451 213 l 1
 86 213 l 1
 86 281 l 1
 422 799 l 1
 569 799 l 1
 569 307 l 1
 688 307 l 1
 688 213 l 1
EndSplineSet
EndChar

StartChar: five.dnom
Encoding: 65634 -1 595
Width: 751
Flags: HW
LayerCount: 2
Fore
SplineSet
270 489 m 1
 306 504 350 520 399 520 c 0
 523 520 604 456 641 366 c 128
 655 333 662 294 662 252 c 0
 662 119 585 34 488 -4 c 128
 453 -18 416 -25 375 -25 c 0
 229 -25 133 44 72 131 c 1
 160 199 l 1
 206 134 264 80 367 80 c 0
 465 80 530 156 530 256 c 0
 530 361 464 432 362 432 c 0
 293 432 250 401 211 367 c 1
 147 414 l 1
 184 799 l 1
 621 799 l 1
 621 684 l 1
 293 684 l 1
 270 489 l 1
EndSplineSet
EndChar

StartChar: six.dnom
Encoding: 65635 -1 596
Width: 751
Flags: HW
LayerCount: 2
Fore
SplineSet
217 317 m 1
 228 190 278 80 399 80 c 0
 489 80 545 152 545 244 c 256
 545 341 490 406 391 406 c 0
 310 406 266 368 217 317 c 1
401 -25 m 0
 191 -25 92 154 92 379 c 0
 92 584 161 738 303 797 c 128
 345 815 391 823 440 823 c 0
 529 823 585 798 635 762 c 1
 582 670 l 1
 547 695 502 719 444 719 c 0
 384 719 333 694 291 646 c 128
 249 598 224 522 217 420 c 1
 276 475 343 502 418 502 c 0
 576 502 668 401 668 246 c 0
 668 121 596 34 507 -4 c 128
 475 -18 439 -25 401 -25 c 0
EndSplineSet
EndChar

StartChar: seven.dnom
Encoding: 65636 -1 597
Width: 751
Flags: HW
LayerCount: 2
Fore
SplineSet
268 0 m 1
 286 303 377 499 514 686 c 1
 102 686 l 1
 102 799 l 1
 662 799 l 1
 662 725 l 1
 543 576 457 418 425 196 c 128
 416 135 410 70 406 0 c 1
 268 0 l 1
EndSplineSet
EndChar

StartChar: eight.dnom
Encoding: 65637 -1 598
Width: 751
Flags: HW
LayerCount: 2
Fore
SplineSet
373 72 m 0
 455 72 532 129 532 209 c 0
 532 319 407 345 326 377 c 1
 252 333 215 278 215 211 c 0
 215 131 288 72 373 72 c 0
373 723 m 0
 305 723 246 677 246 610 c 0
 246 517 343 481 420 457 c 1
 467 493 506 537 506 608 c 0
 506 680 445 723 373 723 c 0
506 412 m 1
 585 372 655 314 655 205 c 0
 655 90 573 23 485 -7 c 128
 451 -19 414 -25 373 -25 c 0
 247 -25 155 29 113 113 c 128
 99 140 92 169 92 199 c 0
 92 307 173 381 244 422 c 1
 244 430 l 1
 182 470 125 518 125 612 c 0
 125 718 195 781 276 808 c 128
 306 818 339 823 373 823 c 0
 511 823 629 748 629 612 c 0
 629 516 563 460 506 420 c 1
 506 412 l 1
EndSplineSet
EndChar

StartChar: nine.dnom
Encoding: 65638 -1 599
Width: 751
Flags: HW
LayerCount: 2
Fore
SplineSet
201 555 m 256
 201 459 257 393 354 393 c 0
 437 393 480 429 530 481 c 1
 519 609 469 719 346 719 c 0
 258 719 201 645 201 555 c 256
344 823 m 0
 556 823 655 646 655 420 c 0
 655 215 586 61 444 2 c 128
 402 -16 356 -25 307 -25 c 0
 218 -25 161 2 111 37 c 1
 166 129 l 1
 201 104 245 80 303 80 c 0
 363 80 415 105 457 154 c 128
 499 203 523 279 530 381 c 1
 471 325 405 297 330 297 c 0
 172 297 80 398 80 553 c 0
 80 678 150 766 240 803 c 128
 273 817 307 823 344 823 c 0
EndSplineSet
EndChar

StartChar: parenleft.dnom
Encoding: 65639 -1 600
Width: 485
Flags: HW
LayerCount: 2
Fore
SplineSet
313 -162 m 1
 203 -6 133 147 133 399 c 0
 133 649 204 801 313 956 c 1
 406 911 l 1
 315 770 260 611 260 399 c 0
 260 185 315 27 406 -117 c 1
 313 -162 l 1
EndSplineSet
EndChar

StartChar: parenright.dnom
Encoding: 65640 -1 601
Width: 485
Flags: HW
LayerCount: 2
Fore
SplineSet
80 -117 m 1
 171 27 225 184 225 399 c 0
 225 610 171 770 80 911 c 1
 176 956 l 1
 281 800 352 647 352 399 c 0
 352 148 284 -6 176 -162 c 1
 80 -117 l 1
EndSplineSet
EndChar

StartChar: period.dnom
Encoding: 65641 -1 602
Width: 362
Flags: HW
LayerCount: 2
Fore
SplineSet
182 -16 m 256
 127 -16 88 24 88 80 c 0
 88 138 126 178 182 178 c 256
 238 178 274 138 274 80 c 0
 274 24 237 -16 182 -16 c 256
EndSplineSet
EndChar

StartChar: comma.dnom
Encoding: 65642 -1 603
Width: 362
Flags: HW
LayerCount: 2
Fore
SplineSet
186 178 m 0
 264 178 295 114 295 29 c 0
 295 -109 207 -197 100 -238 c 1
 68 -162 l 1
 138 -135 196 -88 199 0 c 1
 195 -1 189 -2 182 -2 c 0
 132 -2 90 31 90 84 c 256
 90 139 132 178 186 178 c 0
EndSplineSet
EndChar

StartChar: uni1D43
Encoding: 7491 7491 621
Width: 706
Flags: HW
LayerCount: 2
Fore
SplineSet
485 608 m 1
 435 563 369 516 279 516 c 0
 160 516 76 592 76 709 c 0
 76 781 108 836 173 874 c 128
 238 912 341 938 483 952 c 1
 480 1041 450 1104 356 1104 c 0
 281 1104 198 1063 150 1034 c 1
 102 1120 l 1
 168 1162 268 1208 375 1208 c 0
 543 1208 610 1104 610 934 c 2
 610 532 l 1
 508 532 l 1
 494 608 l 1
 485 608 l 1
201 719 m 0
 201 648 244 618 315 618 c 0
 368 618 424 645 483 700 c 1
 483 872 l 1
 378 861 305 843 263 816 c 128
 221 789 201 757 201 719 c 0
EndSplineSet
Substitution2: "'ss02' Style Set 2 in Latin lookup 19 subtable" a.supa
Substitution2: "'aalt' Access All Alternates in Latin lookup 0 subtable" a.supa
EndChar

StartChar: uni1D47
Encoding: 7495 7495 622
Width: 765
Flags: HW
LayerCount: 2
Fore
SplineSet
412 516 m 0
 334 516 269 554 225 598 c 1
 217 598 l 1
 205 532 l 1
 106 532 l 1
 106 1493 l 1
 233 1493 l 1
 233 1233 l 1
 227 1116 l 1
 280 1160 344 1208 432 1208 c 0
 615 1208 698 1064 698 874 c 0
 698 711 631 591 520 540 c 128
 486 524 450 516 412 516 c 0
567 872 m 0
 567 1001 525 1102 401 1102 c 0
 349 1102 293 1073 233 1016 c 1
 233 686 l 1
 275 650 328 621 393 621 c 0
 512 621 567 739 567 872 c 0
EndSplineSet
EndChar

StartChar: uni1D9C
Encoding: 7580 7580 623
Width: 626
Flags: HW
LayerCount: 2
Fore
SplineSet
594 594 m 1
 543 552 475 516 377 516 c 0
 181 516 61 657 61 862 c 0
 61 1027 141 1137 259 1185 c 128
 298 1201 339 1208 381 1208 c 0
 470 1208 539 1176 584 1137 c 1
 522 1053 l 1
 483 1084 454 1104 389 1104 c 0
 265 1104 190 991 190 862 c 0
 190 730 262 621 389 621 c 0
 460 621 502 647 541 678 c 1
 594 594 l 1
EndSplineSet
EndChar

StartChar: uni1D48
Encoding: 7496 7496 624
Width: 765
Flags: HW
LayerCount: 2
Fore
SplineSet
537 604 m 1
 489 563 432 516 348 516 c 0
 154 516 68 667 68 874 c 0
 68 1028 141 1137 247 1185 c 128
 282 1201 317 1208 354 1208 c 0
 435 1208 492 1173 539 1133 c 1
 532 1247 l 1
 532 1493 l 1
 659 1493 l 1
 659 532 l 1
 557 532 l 1
 543 604 l 1
 537 604 l 1
199 874 m 0
 199 729 241 621 377 621 c 0
 447 621 490 665 532 707 c 1
 532 1036 l 1
 489 1074 443 1104 375 1104 c 0
 266 1104 199 992 199 874 c 0
EndSplineSet
EndChar

StartChar: uni1D49
Encoding: 7497 7497 625
Width: 688
Flags: HW
LayerCount: 2
Fore
SplineSet
612 588 m 1
 553 552 474 516 381 516 c 256
 224 516 129 600 83 715 c 128
 66 757 57 806 57 862 c 0
 57 1023 135 1135 247 1184 c 128
 285 1200 324 1208 365 1208 c 0
 542 1208 635 1078 635 905 c 0
 635 871 633 864 627 834 c 1
 182 834 l 1
 190 706 264 618 395 618 c 0
 462 618 521 643 563 670 c 1
 612 588 l 1
522 915 m 1
 522 1023 475 1106 365 1106 c 0
 253 1106 194 1022 180 915 c 1
 522 915 l 1
EndSplineSet
EndChar

StartChar: uni1DA0
Encoding: 7584 7584 626
Width: 411
Flags: HW
LayerCount: 2
Fore
SplineSet
131 1278 m 2
 131 1416 196 1516 336 1516 c 0
 384 1516 416 1507 451 1493 c 1
 424 1399 l 1
 402 1405 378 1413 348 1413 c 0
 282 1413 258 1356 258 1286 c 2
 258 1192 l 1
 397 1192 l 1
 397 1092 l 1
 258 1092 l 1
 258 532 l 1
 131 532 l 1
 131 1092 l 1
 39 1092 l 1
 39 1186 l 1
 131 1192 l 1
 131 1278 l 2
EndSplineSet
EndChar

StartChar: uni1D4D
Encoding: 7501 7501 627
Width: 702
Flags: HW
LayerCount: 2
Fore
SplineSet
319 518 m 2
 291 518 257 519 233 526 c 1
 191 496 170 463 170 428 c 0
 170 346 263 322 356 322 c 0
 450 322 557 362 557 444 c 0
 557 506 496 518 428 518 c 2
 319 518 l 2
336 233 m 0
 195 233 61 278 61 410 c 0
 61 466 93 513 156 551 c 1
 156 559 l 1
 121 580 96 614 96 670 c 0
 96 723 136 766 170 788 c 1
 170 797 l 1
 124 829 82 892 82 971 c 0
 82 1089 153 1161 241 1192 c 128
 272 1203 305 1208 340 1208 c 0
 378 1208 413 1202 444 1190 c 1
 670 1190 l 1
 670 1092 l 1
 543 1092 l 1
 568 1067 590 1018 590 969 c 0
 590 822 486 737 340 737 c 0
 303 737 269 746 242 760 c 1
 222 743 203 723 203 688 c 0
 203 634 250 623 317 623 c 2
 444 623 l 2
 585 623 680 592 680 463 c 0
 680 341 579 281 479 252 c 128
 437 240 389 233 336 233 c 0
203 971 m 0
 203 886 257 823 340 823 c 0
 419 823 475 888 475 971 c 0
 475 1056 421 1116 340 1116 c 0
 256 1116 203 1058 203 971 c 0
EndSplineSet
Substitution2: "'ss03' Style Set 3 in Latin lookup 20 subtable" g.supa
Substitution2: "'aalt' Access All Alternates in Latin lookup 0 subtable" g.supa
EndChar

StartChar: uni02B0
Encoding: 688 688 628
Width: 749
Flags: HW
LayerCount: 2
Fore
SplineSet
530 930 m 2
 530 1033 511 1100 406 1100 c 0
 355 1100 297 1068 233 1004 c 1
 233 532 l 1
 106 532 l 1
 106 1493 l 1
 233 1493 l 1
 233 1235 l 1
 227 1098 l 1
 275 1151 354 1208 449 1208 c 0
 602 1208 657 1100 657 948 c 2
 657 532 l 1
 530 532 l 1
 530 930 l 2
EndSplineSet
EndChar

StartChar: uni2071
Encoding: 8305 8305 629
Width: 339
Flags: HW
LayerCount: 2
Fore
SplineSet
258 1399 m 256
 258 1352 220 1319 172 1319 c 256
 124 1319 86 1352 86 1399 c 256
 86 1446 124 1479 172 1479 c 256
 220 1479 258 1446 258 1399 c 256
106 1192 m 1
 233 1192 l 1
 233 532 l 1
 106 532 l 1
 106 1192 l 1
EndSplineSet
EndChar

StartChar: uni02B2
Encoding: 690 690 630
Width: 346
Flags: HW
LayerCount: 2
Fore
SplineSet
238 471 m 2
 238 327 190 236 47 236 c 0
 1 236 -20 240 -53 252 c 1
 -27 352 l 1
 -8 346 5 342 31 342 c 0
 99 342 111 391 111 463 c 2
 111 1192 l 1
 238 1192 l 1
 238 471 l 2
262 1399 m 256
 262 1352 224 1319 176 1319 c 256
 128 1319 90 1352 90 1399 c 256
 90 1446 128 1479 176 1479 c 256
 224 1479 262 1446 262 1399 c 256
EndSplineSet
EndChar

StartChar: uni1D4F
Encoding: 7503 7503 631
Width: 690
Flags: HW
LayerCount: 2
Fore
SplineSet
106 1493 m 1
 233 1493 l 1
 233 862 l 1
 242 862 l 1
 510 1192 l 1
 651 1192 l 1
 422 922 l 1
 680 532 l 1
 539 532 l 1
 348 836 l 1
 233 698 l 1
 233 532 l 1
 106 532 l 1
 106 1493 l 1
EndSplineSet
EndChar

StartChar: uni02E1
Encoding: 737 737 632
Width: 356
Flags: HW
LayerCount: 2
Fore
SplineSet
240 516 m 0
 139 516 106 581 106 682 c 2
 106 1493 l 1
 233 1493 l 1
 233 672 l 2
 233 638 244 621 266 621 c 0
 272 621 273 621 279 621 c 128
 283 621 288 622 295 625 c 1
 313 528 l 1
 290 521 273 516 240 516 c 0
EndSplineSet
Substitution2: "'ss01' Style Set 1 in Latin lookup 18 subtable" l.supa
Substitution2: "'aalt' Access All Alternates in Latin lookup 0 subtable" l.supa
EndChar

StartChar: uni1D50
Encoding: 7504 7504 633
Width: 1144
Flags: HW
LayerCount: 2
Fore
SplineSet
512 930 m 2
 512 1030 490 1100 391 1100 c 0
 368 1100 343 1092 318 1076 c 128
 293 1060 264 1037 233 1004 c 1
 233 532 l 1
 106 532 l 1
 106 1192 l 1
 209 1192 l 1
 219 1098 l 1
 227 1098 l 1
 276 1154 336 1208 434 1208 c 0
 525 1208 587 1167 618 1085 c 1
 649 1116 684 1145 720 1170 c 128
 756 1195 796 1208 840 1208 c 0
 991 1208 1047 1099 1047 948 c 2
 1047 532 l 1
 920 532 l 1
 920 930 l 2
 920 1030 898 1100 799 1100 c 0
 774 1100 749 1092 724 1076 c 128
 699 1060 670 1037 639 1004 c 1
 639 532 l 1
 512 532 l 1
 512 930 l 2
EndSplineSet
EndChar

StartChar: uni207F
Encoding: 8319 8319 634
Width: 755
Flags: HW
LayerCount: 2
Fore
SplineSet
530 930 m 2
 530 1032 511 1100 408 1100 c 0
 356 1100 297 1068 233 1004 c 1
 233 532 l 1
 106 532 l 1
 106 1192 l 1
 207 1192 l 1
 219 1098 l 1
 227 1098 l 1
 277 1152 352 1208 449 1208 c 0
 602 1208 657 1100 657 948 c 2
 657 532 l 1
 530 532 l 1
 530 930 l 2
EndSplineSet
EndChar

StartChar: uni1D52
Encoding: 7506 7506 635
Width: 747
Flags: HW
LayerCount: 2
Fore
SplineSet
373 516 m 256
 224 516 128 605 86 716 c 128
 70 759 61 807 61 862 c 256
 61 1026 138 1137 253 1185 c 128
 291 1201 331 1208 373 1208 c 256
 522 1208 617 1120 659 1009 c 128
 675 966 684 917 684 862 c 256
 684 698 608 588 493 540 c 128
 455 524 415 516 373 516 c 256
190 862 m 0
 190 731 248 621 373 621 c 256
 498 621 553 731 553 862 c 0
 553 994 499 1104 373 1104 c 256
 247 1104 190 994 190 862 c 0
EndSplineSet
EndChar

StartChar: uni1D56
Encoding: 7510 7510 636
Width: 765
Flags: HW
LayerCount: 2
Fore
SplineSet
412 516 m 0
 338 516 269 552 225 592 c 1
 233 465 l 1
 233 252 l 1
 106 252 l 1
 106 1192 l 1
 207 1192 l 1
 221 1116 l 1
 227 1116 l 1
 275 1157 347 1208 432 1208 c 0
 615 1208 698 1064 698 874 c 0
 698 711 631 591 520 540 c 128
 486 524 450 516 412 516 c 0
567 872 m 0
 567 1001 525 1102 401 1102 c 0
 349 1102 293 1073 233 1016 c 1
 233 686 l 1
 275 650 328 621 393 621 c 0
 512 621 567 739 567 872 c 0
EndSplineSet
EndChar

StartChar: q.sups
Encoding: 65658 -1 637
Width: 765
Flags: HW
LayerCount: 2
Fore
SplineSet
350 516 m 0
 160 516 68 663 68 862 c 0
 68 1019 141 1136 249 1185 c 128
 284 1201 319 1208 356 1208 c 0
 427 1208 489 1181 541 1126 c 1
 549 1126 l 1
 561 1192 l 1
 659 1192 l 1
 659 252 l 1
 532 252 l 1
 532 479 l 1
 539 598 l 1
 496 557 429 516 350 516 c 0
199 864 m 0
 199 726 245 623 377 623 c 0
 430 623 481 647 532 698 c 1
 532 1036 l 1
 489 1072 442 1102 375 1102 c 0
 262 1102 199 988 199 864 c 0
EndSplineSet
EndChar

StartChar: uni02B3
Encoding: 691 691 638
Width: 491
Flags: HW
LayerCount: 2
Fore
SplineSet
469 1081 m 1
 453 1086 424 1092 403 1092 c 0
 374 1092 345 1081 315 1060 c 128
 285 1039 259 1001 236 948 c 1
 236 532 l 1
 106 532 l 1
 106 1192 l 1
 209 1192 l 1
 223 1075 l 1
 229 1075 l 1
 282 1164 345 1208 416 1208 c 0
 449 1208 475 1204 494 1194 c 1
 469 1081 l 1
EndSplineSet
EndChar

StartChar: uni02E2
Encoding: 738 738 639
Width: 579
Flags: HW
LayerCount: 2
Fore
SplineSet
539 719 m 0
 539 590 431 516 295 516 c 0
 191 516 99 558 39 606 c 1
 100 690 l 1
 152 650 213 614 297 614 c 0
 364 614 416 647 416 709 c 0
 416 764 363 785 322 802 c 128
 232 840 135 864 89 946 c 128
 77 966 72 991 72 1020 c 0
 72 1136 173 1208 299 1208 c 0
 395 1208 463 1174 518 1133 c 1
 455 1053 l 1
 411 1085 373 1110 303 1110 c 0
 242 1110 193 1080 193 1026 c 0
 193 955 286 934 340 915 c 1
 430 878 539 846 539 719 c 0
EndSplineSet
EndChar

StartChar: uni1D57
Encoding: 7511 7511 640
Width: 475
Flags: HW
LayerCount: 2
Fore
SplineSet
328 516 m 0
 186 516 131 609 131 748 c 2
 131 1090 l 1
 33 1090 l 1
 33 1186 l 1
 135 1192 l 1
 152 1376 l 1
 258 1376 l 1
 258 1192 l 1
 438 1192 l 1
 438 1090 l 1
 258 1090 l 1
 258 745 l 2
 258 660 291 618 358 618 c 0
 383 618 408 624 434 635 c 1
 461 541 l 1
 425 528 376 516 328 516 c 0
EndSplineSet
EndChar

StartChar: uni1D58
Encoding: 7512 7512 641
Width: 757
Flags: HW
LayerCount: 2
Fore
SplineSet
532 625 m 1
 484 574 407 516 313 516 c 0
 160 516 102 622 102 774 c 2
 102 1192 l 1
 229 1192 l 1
 229 793 l 2
 229 690 249 625 354 625 c 256
 406 625 463 657 526 721 c 1
 526 1192 l 1
 653 1192 l 1
 653 532 l 1
 553 532 l 1
 539 625 l 1
 532 625 l 1
EndSplineSet
EndChar

StartChar: uni1D5B
Encoding: 7515 7515 642
Width: 657
Flags: HW
LayerCount: 2
Fore
SplineSet
16 1192 m 1
 143 1192 l 1
 204 1006 267 821 326 633 c 1
 334 633 l 1
 393 821 455 1006 516 1192 c 1
 641 1192 l 1
 403 532 l 1
 254 532 l 1
 16 1192 l 1
EndSplineSet
EndChar

StartChar: uni02B7
Encoding: 695 695 643
Width: 997
Flags: HW
LayerCount: 2
Fore
SplineSet
33 1192 m 1
 164 1192 l 1
 254 825 l 1
 293 637 l 1
 301 637 l 1
 344 826 394 1008 442 1192 c 1
 557 1192 l 1
 659 825 l 1
 705 637 l 1
 713 637 l 1
 755 824 800 1007 844 1192 c 1
 965 1192 l 1
 786 532 l 1
 633 532 l 1
 545 868 l 1
 502 1055 l 1
 498 1055 l 1
 459 876 412 705 367 532 c 1
 215 532 l 1
 33 1192 l 1
EndSplineSet
EndChar

StartChar: uni02E3
Encoding: 739 739 644
Width: 628
Flags: HW
LayerCount: 2
Fore
SplineSet
238 877 m 1
 35 1192 l 1
 174 1192 l 1
 224 1112 274 1032 322 950 c 1
 330 950 l 1
 372 1033 416 1113 461 1192 c 1
 596 1192 l 1
 395 864 l 1
 610 532 l 1
 471 532 l 1
 418 617 365 702 311 786 c 1
 303 786 l 1
 252 702 202 617 152 532 c 1
 16 532 l 1
 238 877 l 1
EndSplineSet
EndChar

StartChar: uni02B8
Encoding: 696 696 645
Width: 653
Flags: HW
LayerCount: 2
Fore
SplineSet
125 362 m 0
 206 362 249 429 270 496 c 1
 285 537 l 1
 16 1192 l 1
 145 1192 l 1
 274 844 l 2
 296 782 317 719 338 655 c 1
 346 655 l 1
 365 721 384 781 406 844 c 1
 512 1192 l 1
 637 1192 l 1
 393 494 l 2
 368 424 337 368 297 324 c 128
 257 280 203 258 133 258 c 0
 102 258 74 262 49 270 c 1
 76 373 l 1
 91 366 107 362 125 362 c 0
EndSplineSet
EndChar

StartChar: uni1DBB
Encoding: 7611 7611 646
Width: 593
Flags: HW
LayerCount: 2
Fore
SplineSet
43 602 m 1
 387 1090 l 1
 84 1090 l 1
 84 1192 l 1
 547 1192 l 1
 547 1120 l 1
 205 635 l 1
 557 635 l 1
 557 532 l 1
 43 532 l 1
 43 602 l 1
EndSplineSet
EndChar

StartChar: egrave.sups
Encoding: 65659 -1 647
Width: 688
Flags: HW
LayerCount: 2
Fore
SplineSet
205 1501 m 1
 338 1501 l 1
 459 1309 l 1
 358 1309 l 1
 205 1501 l 1
612 588 m 1
 553 552 474 516 381 516 c 256
 224 516 129 600 83 715 c 128
 66 757 57 806 57 862 c 0
 57 1023 135 1135 247 1184 c 128
 285 1200 324 1208 365 1208 c 0
 542 1208 635 1078 635 905 c 0
 635 871 633 864 627 834 c 1
 182 834 l 1
 190 706 264 618 395 618 c 0
 462 618 521 643 563 670 c 1
 612 588 l 1
522 915 m 1
 522 1023 475 1106 365 1106 c 0
 253 1106 194 1022 180 915 c 1
 522 915 l 1
EndSplineSet
EndChar

StartChar: eacute.sups
Encoding: 65660 -1 648
Width: 688
Flags: HW
LayerCount: 2
Fore
SplineSet
393 1501 m 1
 526 1501 l 1
 371 1309 l 1
 270 1309 l 1
 393 1501 l 1
612 588 m 1
 553 552 474 516 381 516 c 256
 224 516 129 600 83 715 c 128
 66 757 57 806 57 862 c 0
 57 1023 135 1135 247 1184 c 128
 285 1200 324 1208 365 1208 c 0
 542 1208 635 1078 635 905 c 0
 635 871 633 864 627 834 c 1
 182 834 l 1
 190 706 264 618 395 618 c 0
 462 618 521 643 563 670 c 1
 612 588 l 1
522 915 m 1
 522 1023 475 1106 365 1106 c 0
 253 1106 194 1022 180 915 c 1
 522 915 l 1
EndSplineSet
EndChar

StartChar: uni2094
Encoding: 8340 8340 649
Width: 688
Flags: HW
LayerCount: 2
Fore
SplineSet
319 1208 m 0
 518 1208 629 1068 629 862 c 0
 629 701 556 591 445 541 c 128
 409 525 370 516 328 516 c 0
 145 516 51 647 51 827 c 0
 51 861 53 869 59 899 c 1
 504 899 l 1
 499 1021 437 1106 311 1106 c 0
 241 1106 191 1083 145 1055 c 1
 98 1135 l 1
 156 1173 226 1208 319 1208 c 0
164 815 m 1
 164 703 211 618 326 618 c 0
 441 618 497 697 504 815 c 1
 164 815 l 1
EndSplineSet
EndChar

StartChar: a.supa
Encoding: 65661 -1 650
Width: 765
Flags: HW
LayerCount: 2
Fore
SplineSet
375 1104 m 0
 266 1104 199 992 199 874 c 0
 199 729 241 623 377 623 c 0
 447 623 490 665 532 707 c 1
 532 1036 l 1
 489 1074 443 1104 375 1104 c 0
348 516 m 0
 156 516 68 666 68 870 c 0
 68 1024 143 1137 249 1185 c 128
 284 1201 319 1208 356 1208 c 0
 440 1208 495 1172 541 1126 c 1
 549 1126 l 1
 561 1192 l 1
 659 1192 l 1
 659 532 l 1
 555 532 l 1
 545 604 l 1
 537 604 l 1
 489 563 432 516 348 516 c 0
EndSplineSet
EndChar

StartChar: g.supa
Encoding: 65662 -1 651
Width: 772
Flags: HW
LayerCount: 2
Fore
SplineSet
662 510 m 2
 662 329 540 233 354 233 c 0
 262 233 175 270 115 309 c 1
 162 397 l 1
 214 363 279 338 356 338 c 0
 468 338 537 409 537 518 c 2
 537 545 l 1
 541 633 l 1
 490 592 435 549 352 549 c 0
 170 549 70 687 70 874 c 0
 70 1027 146 1137 251 1185 c 128
 286 1201 321 1208 358 1208 c 0
 428 1208 490 1181 543 1128 c 1
 549 1128 l 1
 561 1192 l 1
 662 1192 l 1
 662 510 l 2
201 877 m 0
 201 748 252 655 379 655 c 0
 450 655 493 695 537 737 c 1
 537 1036 l 1
 494 1072 444 1102 377 1102 c 0
 267 1102 201 995 201 877 c 0
EndSplineSet
EndChar

StartChar: l.supa
Encoding: 65663 -1 652
Width: 339
Flags: HW
LayerCount: 2
Fore
SplineSet
106 1493 m 1
 233 1493 l 1
 233 532 l 1
 106 532 l 1
 106 1493 l 1
EndSplineSet
EndChar

StartChar: degree
Encoding: 176 176 653
Width: 677
Flags: HW
LayerCount: 2
Fore
SplineSet
340 879 m 256
 222 879 140 946 104 1031 c 128
 90 1063 84 1099 84 1139 c 0
 84 1265 152 1348 243 1384 c 128
 274 1396 306 1403 340 1403 c 256
 459 1403 539 1334 575 1248 c 128
 589 1216 596 1180 596 1139 c 0
 596 1014 527 933 437 897 c 128
 406 885 374 879 340 879 c 256
186 1139 m 0
 186 1046 248 973 340 973 c 256
 432 973 494 1046 494 1139 c 0
 494 1235 434 1309 340 1309 c 256
 246 1309 186 1235 186 1139 c 0
EndSplineSet
EndChar

StartChar: currency
Encoding: 164 164 654
Width: 1017
Flags: HW
LayerCount: 2
Fore
SplineSet
735 352 m 1
 681 307 602 274 510 274 c 0
 423 274 347 300 283 352 c 1
 143 211 l 1
 53 303 l 1
 184 436 l 1
 140 495 111 574 111 674 c 256
 111 774 140 854 184 913 c 1
 53 1049 l 1
 143 1141 l 1
 283 997 l 1
 349 1048 424 1073 510 1073 c 0
 600 1073 681 1040 735 997 c 1
 874 1141 l 1
 965 1049 l 1
 831 913 l 1
 875 854 907 774 907 674 c 256
 907 574 875 495 831 436 c 1
 965 303 l 1
 874 211 l 1
 735 352 l 1
266 674 m 256
 266 549 328 457 416 419 c 128
 446 406 477 399 510 399 c 256
 628 399 698 475 732 562 c 128
 745 595 752 633 752 674 c 256
 752 799 690 891 603 929 c 128
 574 942 543 948 510 948 c 256
 392 948 320 873 286 785 c 128
 273 752 266 715 266 674 c 256
EndSplineSet
EndChar

StartChar: dollar
Encoding: 36 36 655
Width: 1017
Flags: HW
LayerCount: 2
Fore
SplineSet
158 985 m 0
 158 1177 286 1299 455 1327 c 1
 455 1532 l 1
 578 1532 l 1
 578 1329 l 1
 712 1315 796 1252 868 1174 c 1
 778 1073 l 1
 740 1110 703 1139 667 1159 c 128
 631 1179 584 1190 528 1190 c 0
 405 1190 324 1115 324 993 c 0
 324 944 338 903 366 872 c 128
 460 766 632 726 748 638 c 128
 832 574 895 486 895 338 c 0
 895 132 764 8 578 -18 c 1
 578 -225 l 1
 455 -225 l 1
 455 -23 l 1
 318 -9 187 61 106 135 c 1
 184 252 l 1
 262 184 365 115 502 115 c 0
 645 115 729 189 729 326 c 0
 729 444 658 508 582 556 c 128
 413 662 158 712 158 985 c 0
EndSplineSet
EndChar

StartChar: sterling
Encoding: 163 163 656
Width: 1017
Flags: HW
LayerCount: 2
Fore
SplineSet
479 469 m 0
 479 316 430 235 352 154 c 1
 352 145 l 1
 928 145 l 1
 928 0 l 1
 111 0 l 1
 111 102 l 1
 233 169 328 295 328 471 c 0
 328 512 321 548 313 584 c 1
 109 584 l 1
 109 690 l 1
 246 698 l 1
 283 698 l 1
 258 777 227 857 227 954 c 0
 227 1136 320 1254 453 1305 c 128
 499 1323 551 1331 608 1331 c 0
 759 1331 857 1262 926 1178 c 1
 827 1081 l 1
 780 1138 721 1190 621 1190 c 0
 476 1190 393 1094 393 950 c 0
 393 853 419 778 442 698 c 1
 768 698 l 1
 768 584 l 1
 469 584 l 1
 474 546 479 511 479 469 c 0
EndSplineSet
EndChar

StartChar: yen
Encoding: 165 165 657
Width: 1017
Flags: HW
LayerCount: 2
Fore
SplineSet
223 1307 m 1
 383 956 l 2
 425 863 463 774 506 680 c 1
 514 680 l 1
 559 773 596 862 639 956 c 2
 799 1307 l 1
 971 1307 l 1
 635 651 l 1
 926 651 l 1
 926 555 l 1
 592 555 l 1
 592 422 l 1
 926 422 l 1
 926 324 l 1
 592 324 l 1
 592 0 l 1
 424 0 l 1
 424 324 l 1
 92 324 l 1
 92 422 l 1
 424 422 l 1
 424 555 l 1
 92 555 l 1
 92 651 l 1
 381 651 l 1
 47 1307 l 1
 223 1307 l 1
EndSplineSet
EndChar

StartChar: Euro
Encoding: 8364 8364 658
Width: 1017
Flags: HW
LayerCount: 2
Fore
SplineSet
352 481 m 1
 381 290 465 111 664 111 c 0
 715 111 758 122 796 147 c 128
 834 172 870 208 905 256 c 1
 1006 166 l 1
 927 61 823 -25 653 -25 c 0
 433 -25 310 110 239 267 c 128
 211 329 190 400 178 481 c 1
 47 481 l 1
 47 569 l 1
 168 578 l 1
 167 590 166 602 166 614 c 130
 166 684 l 130
 166 695 167 706 168 717 c 1
 47 717 l 1
 47 807 l 1
 178 817 l 1
 213 1043 314 1221 497 1296 c 128
 554 1319 615 1331 682 1331 c 0
 816 1331 925 1250 987 1171 c 1
 887 1075 l 1
 838 1135 775 1196 676 1196 c 0
 468 1196 378 1017 350 817 c 1
 870 817 l 1
 870 717 l 1
 342 717 l 1
 341 707 340 698 340 688 c 130
 340 617 l 130
 340 604 341 592 342 580 c 1
 788 580 l 1
 788 481 l 1
 352 481 l 1
EndSplineSet
EndChar

StartChar: cent
Encoding: 162 162 659
Width: 1017
Flags: HW
LayerCount: 2
Fore
SplineSet
537 977 m 1
 389 942 293 817 293 635 c 0
 293 449 384 326 537 291 c 1
 537 977 l 1
643 283 m 1
 734 289 804 332 856 379 c 1
 930 272 l 1
 859 209 761 152 643 143 c 1
 643 -68 l 1
 537 -68 l 1
 537 145 l 1
 342 167 211 277 155 440 c 128
 135 497 125 563 125 635 c 0
 125 854 228 997 375 1070 c 128
 426 1095 480 1112 537 1120 c 1
 537 1337 l 1
 643 1337 l 1
 643 1126 l 1
 762 1121 848 1068 911 1008 c 1
 829 901 l 1
 781 945 723 981 643 987 c 1
 643 283 l 1
EndSplineSet
EndChar

StartChar: florin
Encoding: 402 402 660
Width: 1017
Flags: HW
LayerCount: 2
Fore
SplineSet
909 1202 m 1
 876 1217 845 1231 795 1231 c 0
 659 1231 621 1087 606 965 c 2
 592 836 l 1
 850 836 l 1
 850 707 l 1
 578 707 l 1
 524 221 l 2
 500 -2 431 -199 186 -199 c 0
 128 -199 72 -189 37 -168 c 1
 68 -41 l 1
 99 -55 133 -61 170 -61 c 0
 234 -61 280 -35 308 19 c 128
 336 73 356 153 367 258 c 2
 416 707 l 1
 238 707 l 1
 238 827 l 1
 379 836 l 1
 430 836 l 1
 442 950 l 2
 457 1087 491 1191 544 1262 c 128
 597 1333 677 1368 786 1368 c 0
 844 1368 908 1350 946 1331 c 1
 909 1202 l 1
EndSplineSet
EndChar

StartChar: colonmonetary
Encoding: 8353 8353 661
Width: 1017
Flags: HW
LayerCount: 2
Fore
SplineSet
713 1188 m 1
 692 1193 675 1196 651 1196 c 256
 629 1196 614 1195 594 1192 c 1
 471 160 l 1
 505 135 544 120 586 115 c 1
 713 1188 l 1
514 1165 m 1
 364 1089 299 893 299 657 c 0
 299 480 331 331 403 231 c 1
 514 1165 l 1
664 113 m 1
 766 126 827 183 881 256 c 1
 979 166 l 1
 902 67 802 -16 647 -25 c 1
 623 -225 l 1
 545 -225 l 1
 569 -23 l 1
 531 -19 493 -9 453 6 c 1
 426 -225 l 1
 348 -225 l 1
 381 43 l 1
 215 151 125 370 125 651 c 0
 125 994 265 1253 532 1317 c 1
 557 1532 l 1
 635 1532 l 1
 610 1329 l 1
 617 1330 625 1331 633 1331 c 128
 645 1331 645 1331 655 1331 c 0
 682 1331 707 1328 729 1323 c 1
 754 1532 l 1
 831 1532 l 1
 803 1298 l 1
 869 1268 926 1217 969 1163 c 1
 868 1069 l 1
 842 1102 815 1129 786 1149 c 1
 664 113 l 1
EndSplineSet
EndChar

StartChar: lira
Encoding: 8356 8356 662
Width: 1017
Flags: HW
LayerCount: 2
Fore
SplineSet
479 469 m 2
 479 316 430 235 352 154 c 1
 352 145 l 1
 928 145 l 1
 928 0 l 1
 111 0 l 1
 111 102 l 1
 233 169 328 295 328 471 c 2
 328 481 l 1
 109 481 l 1
 109 571 l 1
 250 582 l 1
 315 582 l 1
 304 624 294 662 281 702 c 1
 109 702 l 1
 109 793 l 1
 233 803 l 1
 252 803 l 1
 239 851 227 897 227 954 c 0
 227 1136 320 1254 453 1305 c 128
 499 1323 551 1331 608 1331 c 0
 759 1331 857 1262 926 1178 c 1
 827 1081 l 1
 780 1138 721 1190 621 1190 c 0
 476 1190 393 1094 393 950 c 0
 393 894 401 849 414 803 c 1
 768 803 l 1
 768 702 l 1
 440 702 l 1
 454 660 464 620 469 582 c 1
 768 582 l 1
 768 481 l 1
 479 481 l 1
 479 469 l 2
EndSplineSet
EndChar

StartChar: uni20A6
Encoding: 8358 8358 663
Width: 1017
Flags: HW
LayerCount: 2
Fore
SplineSet
709 649 m 1
 709 702 l 1
 561 702 l 1
 594 608 l 1
 602 580 l 1
 713 580 l 1
 709 649 l 1
719 492 m 1
 629 492 l 1
 733 152 l 1
 741 152 l 1
 719 492 l 1
467 580 m 1
 424 700 l 1
 424 702 l 1
 307 702 l 1
 309 657 l 1
 309 580 l 1
 467 580 l 1
301 788 m 1
 397 788 l 1
 285 1153 l 1
 276 1153 l 1
 301 788 l 1
842 702 m 1
 842 580 l 1
 989 580 l 1
 989 492 l 1
 842 492 l 1
 842 0 l 1
 670 0 l 1
 498 492 l 1
 309 492 l 1
 309 0 l 1
 176 0 l 1
 176 492 l 1
 23 492 l 1
 23 569 l 1
 176 580 l 1
 176 702 l 1
 23 702 l 1
 23 778 l 1
 176 788 l 1
 176 1307 l 1
 348 1307 l 1
 530 788 l 1
 709 788 l 1
 709 1307 l 1
 842 1307 l 1
 842 788 l 1
 989 788 l 1
 989 702 l 1
 842 702 l 1
EndSplineSet
EndChar

StartChar: peseta
Encoding: 8359 8359 664
Width: 1017
Flags: HW
LayerCount: 2
Fore
SplineSet
397 616 m 2
 575 616 683 697 702 854 c 1
 332 854 l 1
 332 616 l 1
 397 616 l 2
702 969 m 1
 680 1130 578 1190 397 1190 c 2
 332 1190 l 1
 332 969 l 1
 702 969 l 1
418 1307 m 2
 676 1307 838 1203 864 969 c 1
 991 969 l 1
 991 854 l 1
 864 854 l 1
 838 623 674 500 418 500 c 2
 332 500 l 1
 332 0 l 1
 170 0 l 1
 170 854 l 1
 20 854 l 1
 20 958 l 1
 170 969 l 1
 170 1307 l 1
 418 1307 l 2
EndSplineSet
EndChar

StartChar: dong
Encoding: 8363 8363 665
Width: 1017
Flags: HW
LayerCount: 2
Fore
SplineSet
162 100 m 1
 897 100 l 1
 897 0 l 1
 162 0 l 1
 162 100 l 1
489 346 m 0
 582 346 637 395 688 455 c 1
 688 772 l 1
 630 823 591 856 498 856 c 0
 397 856 333 786 305 710 c 128
 294 681 289 648 289 614 c 0
 289 463 347 346 489 346 c 0
473 979 m 0
 584 979 633 941 696 885 c 1
 688 1055 l 1
 688 1124 l 1
 389 1124 l 1
 389 1225 l 1
 688 1225 l 1
 688 1362 l 1
 831 1362 l 1
 831 1225 l 1
 991 1225 l 1
 991 1135 l 1
 831 1124 l 1
 831 246 l 1
 713 246 l 1
 700 334 l 1
 694 334 l 1
 640 278 565 225 461 225 c 0
 245 225 139 384 139 612 c 0
 139 783 228 901 348 953 c 128
 388 970 429 979 473 979 c 0
EndSplineSet
EndChar

StartChar: uni20B1
Encoding: 8369 8369 666
Width: 1017
Flags: HW
LayerCount: 2
Fore
SplineSet
707 909 m 0
 707 934 705 955 702 977 c 1
 332 977 l 1
 332 856 l 1
 702 856 l 1
 705 872 707 890 707 909 c 0
397 616 m 2
 543 616 638 668 682 772 c 1
 332 772 l 1
 332 616 l 1
 397 616 l 2
678 1061 m 1
 631 1154 536 1190 397 1190 c 2
 332 1190 l 1
 332 1061 l 1
 678 1061 l 1
848 772 m 1
 796 596 639 500 418 500 c 2
 332 500 l 1
 332 0 l 1
 170 0 l 1
 170 772 l 1
 20 772 l 1
 20 846 l 1
 170 856 l 1
 170 977 l 1
 20 977 l 1
 20 1053 l 1
 170 1061 l 1
 170 1307 l 1
 418 1307 l 2
 522 1307 612 1288 688 1250 c 128
 764 1212 817 1150 846 1061 c 1
 991 1061 l 1
 991 977 l 1
 862 977 l 1
 865 955 866 934 866 909 c 0
 866 895 866 895 866 882 c 128
 866 873 865 864 864 856 c 1
 991 856 l 1
 991 772 l 1
 848 772 l 1
EndSplineSet
EndChar

StartChar: uni20B2
Encoding: 8370 8370 667
Width: 1017
Flags: HW
LayerCount: 2
Fore
SplineSet
600 115 m 0
 678 115 750 150 788 190 c 1
 788 537 l 1
 582 537 l 1
 582 678 l 1
 942 678 l 1
 942 125 l 1
 870 51 776 -5 653 -20 c 1
 653 -225 l 1
 530 -225 l 1
 530 -20 l 1
 306 9 183 180 128 385 c 128
 107 464 96 553 96 651 c 0
 96 931 184 1141 350 1254 c 128
 403 1290 463 1314 530 1325 c 1
 530 1532 l 1
 653 1532 l 1
 653 1329 l 1
 776 1317 872 1244 936 1167 c 1
 836 1073 l 1
 783 1136 720 1196 614 1196 c 0
 489 1196 409 1133 357 1051 c 128
 297 956 268 815 268 657 c 0
 268 382 352 115 600 115 c 0
EndSplineSet
EndChar

StartChar: uni20B5
Encoding: 8373 8373 668
Width: 1017
Flags: HW
LayerCount: 2
Fore
SplineSet
571 1186 m 1
 375 1138 299 915 299 657 c 0
 299 395 371 158 571 117 c 1
 571 1186 l 1
678 115 m 1
 770 131 830 188 881 256 c 1
 979 166 l 1
 907 72 816 -2 678 -20 c 1
 678 -225 l 1
 571 -225 l 1
 571 -23 l 1
 338 1 214 173 158 381 c 128
 136 462 125 551 125 651 c 0
 125 933 217 1145 387 1255 c 128
 442 1290 503 1314 571 1325 c 1
 571 1526 l 1
 678 1526 l 1
 678 1331 l 1
 801 1322 899 1247 961 1171 c 1
 860 1075 l 1
 817 1133 763 1185 678 1194 c 1
 678 115 l 1
EndSplineSet
EndChar

StartChar: uni20B9
Encoding: 8377 8377 669
Width: 1017
Flags: HW
LayerCount: 2
Fore
SplineSet
616 995 m 1
 584 1128 462 1167 293 1167 c 2
 147 1167 l 1
 147 1307 l 1
 924 1307 l 1
 924 1206 l 1
 633 1206 l 1
 710 1166 765 1092 784 995 c 1
 924 995 l 1
 924 895 l 1
 788 895 l 1
 774 690 654 573 477 532 c 1
 862 0 l 1
 670 0 l 1
 305 516 l 1
 147 516 l 1
 147 653 l 1
 293 653 l 2
 481 653 607 725 621 895 c 1
 147 895 l 1
 147 985 l 1
 289 995 l 1
 616 995 l 1
EndSplineSet
EndChar

StartChar: uni20BA
Encoding: 8378 8378 670
Width: 1017
Flags: HW
LayerCount: 2
Fore
SplineSet
805 471 m 0
 805 504 804 528 795 559 c 1
 938 596 l 1
 948 552 952 513 952 479 c 0
 952 293 865 171 748 94 c 128
 630 16 464 -25 272 -25 c 0
 260 -25 248 -25 236 -25 c 1
 236 535 l 1
 47 436 l 1
 47 545 l 1
 236 643 l 1
 236 791 l 1
 47 692 l 1
 47 799 l 1
 236 899 l 1
 236 1307 l 1
 408 1307 l 1
 408 983 l 1
 743 1159 l 1
 743 1051 l 1
 408 874 l 1
 408 727 l 1
 743 903 l 1
 743 797 l 1
 408 618 l 1
 408 135 l 1
 573 140 703 219 768 329 c 128
 793 371 805 418 805 471 c 0
EndSplineSet
EndChar

StartChar: fraction
Encoding: 8260 8260 671
Width: 176
Flags: HW
LayerCount: 2
Fore
SplineSet
-342 -25 m 1
 399 1368 l 1
 514 1368 l 1
 -227 -25 l 1
 -342 -25 l 1
EndSplineSet
EndChar

StartChar: perthousand
Encoding: 8240 8240 675
Width: 2445
Flags: HW
LayerCount: 2
Fore
SplineSet
410 -25 m 1
 1151 1368 l 1
 1266 1368 l 1
 524 -25 l 1
 410 -25 l 1
682 946 m 256
 682 713 589 520 377 520 c 0
 163 520 72 712 72 946 c 256
 72 1180 163 1368 377 1368 c 0
 590 1368 682 1179 682 946 c 256
377 625 m 0
 429 625 471 652 504 706 c 128
 537 760 553 840 553 946 c 0
 553 1054 537 1134 504 1186 c 128
 471 1238 429 1264 377 1264 c 0
 324 1264 281 1238 248 1186 c 128
 215 1134 199 1054 199 946 c 0
 199 840 215 760 248 706 c 128
 281 652 324 625 377 625 c 0
1612 401 m 0
 1612 167 1521 -25 1307 -25 c 0
 1095 -25 1001 168 1001 401 c 0
 1001 632 1095 823 1307 823 c 0
 1520 823 1612 633 1612 401 c 0
1307 80 m 0
 1360 80 1403 107 1436 161 c 128
 1469 215 1485 295 1485 401 c 256
 1485 507 1469 587 1436 640 c 128
 1403 693 1360 719 1307 719 c 0
 1255 719 1213 693 1180 640 c 128
 1147 587 1130 507 1130 401 c 256
 1130 295 1147 215 1180 161 c 128
 1213 107 1255 80 1307 80 c 0
2376 401 m 0
 2376 167 2282 -25 2068 -25 c 0
 1856 -25 1763 168 1763 401 c 0
 1763 632 1856 823 2068 823 c 0
 2282 823 2376 633 2376 401 c 0
2068 80 m 0
 2121 80 2165 107 2198 161 c 128
 2231 215 2247 295 2247 401 c 256
 2247 507 2231 587 2198 640 c 128
 2165 693 2121 719 2068 719 c 0
 2016 719 1975 693 1942 640 c 128
 1909 587 1892 507 1892 401 c 256
 1892 295 1909 215 1942 161 c 128
 1975 107 2016 80 2068 80 c 0
EndSplineSet
EndChar

StartChar: plus
Encoding: 43 43 685
Width: 1017
Flags: HW
LayerCount: 2
Fore
SplineSet
442 612 m 1
 70 612 l 1
 70 739 l 1
 442 739 l 1
 442 1139 l 1
 575 1139 l 1
 575 739 l 1
 948 739 l 1
 948 612 l 1
 575 612 l 1
 575 213 l 1
 442 213 l 1
 442 612 l 1
EndSplineSet
EndChar

StartChar: minus
Encoding: 8722 8722 686
Width: 1017
Flags: HW
LayerCount: 2
Fore
SplineSet
70 739 m 1
 948 739 l 1
 948 612 l 1
 70 612 l 1
 70 739 l 1
EndSplineSet
EndChar

StartChar: multiply
Encoding: 215 215 687
Width: 1017
Flags: HW
LayerCount: 2
Fore
SplineSet
102 350 m 1
 420 676 l 1
 102 999 l 1
 193 1092 l 1
 510 766 l 1
 825 1092 l 1
 915 999 l 1
 598 676 l 1
 915 350 l 1
 825 258 l 1
 510 586 l 1
 193 258 l 1
 102 350 l 1
EndSplineSet
EndChar

StartChar: divide
Encoding: 247 247 688
Width: 1017
Flags: HW
LayerCount: 2
Fore
SplineSet
621 1044 m 0
 621 980 573 934 510 934 c 256
 447 934 397 980 397 1044 c 0
 397 1106 448 1153 510 1153 c 256
 572 1153 621 1106 621 1044 c 0
510 197 m 256
 447 197 397 243 397 307 c 0
 397 369 448 416 510 416 c 256
 572 416 621 369 621 307 c 0
 621 243 573 197 510 197 c 256
70 739 m 1
 948 739 l 1
 948 612 l 1
 70 612 l 1
 70 739 l 1
EndSplineSet
EndChar

StartChar: less
Encoding: 60 60 691
Width: 1017
Flags: HW
LayerCount: 2
Fore
SplineSet
70 748 m 1
 948 1092 l 1
 948 946 l 1
 712 859 477 772 242 684 c 1
 242 676 l 1
 477 588 712 501 948 414 c 1
 948 268 l 1
 70 612 l 1
 70 748 l 1
EndSplineSet
EndChar

StartChar: greater
Encoding: 62 62 692
Width: 1017
Flags: HW
LayerCount: 2
Fore
SplineSet
948 612 m 1
 70 268 l 1
 70 414 l 1
 306 501 541 588 776 676 c 1
 776 684 l 1
 541 772 306 859 70 946 c 1
 70 1092 l 1
 948 748 l 1
 948 612 l 1
EndSplineSet
EndChar

StartChar: lessequal
Encoding: 8804 8804 693
Width: 1017
Flags: HW
LayerCount: 2
Fore
SplineSet
70 127 m 1
 948 127 l 1
 948 0 l 1
 70 0 l 1
 70 127 l 1
70 778 m 1
 948 1092 l 1
 948 946 l 1
 714 865 482 783 242 707 c 1
 242 698 l 1
 482 622 714 540 948 459 c 1
 948 313 l 1
 70 627 l 1
 70 778 l 1
EndSplineSet
EndChar

StartChar: greaterequal
Encoding: 8805 8805 694
Width: 1017
Flags: HW
LayerCount: 2
Fore
SplineSet
70 127 m 1
 948 127 l 1
 948 0 l 1
 70 0 l 1
 70 127 l 1
948 627 m 1
 70 313 l 1
 70 459 l 1
 304 540 536 622 776 698 c 1
 776 707 l 1
 536 783 304 865 70 946 c 1
 70 1092 l 1
 948 778 l 1
 948 627 l 1
EndSplineSet
EndChar

StartChar: plusminus
Encoding: 177 177 695
Width: 1017
Flags: HW
LayerCount: 2
Fore
SplineSet
442 623 m 1
 70 623 l 1
 70 750 l 1
 442 750 l 1
 442 1139 l 1
 575 1139 l 1
 575 750 l 1
 948 750 l 1
 948 623 l 1
 575 623 l 1
 575 260 l 1
 442 260 l 1
 442 623 l 1
70 127 m 1
 948 127 l 1
 948 0 l 1
 70 0 l 1
 70 127 l 1
EndSplineSet
EndChar

StartChar: asciicircum
Encoding: 94 94 696
Width: 1017
Flags: HW
LayerCount: 2
Fore
SplineSet
434 1372 m 1
 584 1372 l 1
 895 582 l 1
 748 582 l 1
 670 793 592 1003 514 1214 c 1
 506 1214 l 1
 427 1004 348 794 270 582 c 1
 123 582 l 1
 434 1372 l 1
EndSplineSet
EndChar

StartChar: notequal
Encoding: 8800 8800 697
Width: 1017
Flags: HW
LayerCount: 2
Fore
SplineSet
281 393 m 1
 70 393 l 1
 70 520 l 1
 354 520 l 1
 541 831 l 1
 70 831 l 1
 70 958 l 1
 614 958 l 1
 770 1219 l 1
 893 1219 l 1
 737 958 l 1
 948 958 l 1
 948 831 l 1
 664 831 l 1
 477 520 l 1
 948 520 l 1
 948 393 l 1
 403 393 l 1
 248 133 l 1
 125 133 l 1
 281 393 l 1
EndSplineSet
EndChar

StartChar: asciitilde
Encoding: 126 126 698
Width: 1017
Flags: HW
LayerCount: 2
Fore
SplineSet
326 698 m 0
 245 698 202 638 168 573 c 1
 74 641 l 1
 111 707 152 753 197 782 c 128
 242 811 286 825 330 825 c 0
 417 825 478 779 529 739 c 128
 557 717 584 698 610 680 c 128
 636 662 663 653 692 653 c 0
 773 653 816 713 850 778 c 1
 944 709 l 1
 907 643 866 596 821 568 c 128
 776 540 732 526 688 526 c 0
 601 526 539 572 488 612 c 128
 460 634 434 654 408 672 c 128
 382 690 355 698 326 698 c 0
EndSplineSet
EndChar

StartChar: logicalnot
Encoding: 172 172 700
Width: 1017
Flags: HW
LayerCount: 2
Fore
SplineSet
70 739 m 1
 948 739 l 1
 948 213 l 1
 813 213 l 1
 813 612 l 1
 70 612 l 1
 70 739 l 1
EndSplineSet
EndChar

StartChar: pi
Encoding: 960 960 701
Width: 1148
Flags: HW
LayerCount: 2
Fore
SplineSet
963 -25 m 0
 811 -25 764 78 764 231 c 2
 764 856 l 1
 391 856 l 1
 391 0 l 1
 225 0 l 1
 225 856 l 1
 49 856 l 1
 49 985 l 1
 190 995 l 1
 1085 995 l 1
 1085 856 l 1
 934 856 l 1
 934 219 l 2
 934 162 952 115 1004 115 c 0
 1022 115 1035 121 1053 125 c 1
 1075 -4 l 1
 1044 -18 1007 -25 963 -25 c 0
EndSplineSet
EndChar

StartChar: infinity
Encoding: 8734 8734 702
Width: 1601
Flags: HW
LayerCount: 2
Fore
SplineSet
416 1014 m 0
 591 1014 687 899 764 799 c 1
 772 799 l 1
 843 893 928 982 1048 1026 c 128
 1086 1040 1125 1047 1169 1047 c 0
 1337 1047 1444 952 1493 831 c 128
 1511 787 1520 740 1520 688 c 0
 1520 507 1435 384 1308 329 c 128
 1265 311 1218 301 1167 301 c 0
 1080 301 1004 324 941 368 c 128
 878 412 815 473 754 551 c 1
 745 551 l 1
 681 477 609 402 508 361 c 128
 473 347 433 340 391 340 c 256
 246 340 150 434 106 538 c 128
 90 577 82 619 82 664 c 0
 82 831 163 941 283 989 c 128
 324 1005 368 1014 416 1014 c 0
1386 682 m 0
 1386 824 1297 915 1153 915 c 0
 1094 915 1039 897 987 859 c 128
 935 821 885 767 834 696 c 1
 891 620 945 561 996 521 c 128
 1047 481 1105 461 1169 461 c 0
 1302 461 1386 550 1386 682 c 0
213 670 m 256
 213 558 297 469 408 469 c 0
 465 469 516 487 561 524 c 128
 606 561 647 605 682 657 c 1
 638 716 594 764 549 799 c 128
 504 834 455 852 403 852 c 0
 291 852 213 783 213 670 c 256
EndSplineSet
EndChar

StartChar: uni00B5
Encoding: 181 181 703
Width: 1126
Flags: HW
LayerCount: 2
Fore
SplineSet
514 -16 m 0
 420 -16 367 9 326 72 c 1
 336 -113 l 1
 336 -410 l 1
 168 -410 l 1
 168 995 l 1
 336 995 l 1
 336 387 l 2
 336 223 374 121 524 121 c 0
 576 121 621 134 660 161 c 128
 699 188 743 230 791 289 c 1
 791 995 l 1
 958 995 l 1
 958 0 l 1
 819 0 l 1
 805 156 l 1
 801 156 l 1
 736 69 650 -16 514 -16 c 0
EndSplineSet
EndChar

StartChar: partialdiff
Encoding: 8706 8706 704
Width: 1081
Flags: HW
LayerCount: 2
Fore
SplineSet
541 696 m 0
 346 696 242 573 242 379 c 0
 242 257 299 171 383 133 c 128
 410 121 440 115 471 115 c 0
 560 115 634 151 695 225 c 128
 756 299 797 404 819 541 c 1
 773 598 726 639 679 662 c 128
 632 685 586 696 541 696 c 0
547 1237 m 0
 446 1237 371 1189 317 1133 c 1
 240 1239 l 1
 317 1316 419 1376 563 1376 c 0
 695 1376 801 1325 880 1221 c 128
 959 1117 997 960 997 748 c 0
 997 414 888 151 676 32 c 128
 609 -6 536 -25 455 -25 c 0
 282 -25 166 78 113 204 c 128
 93 252 82 308 82 369 c 0
 82 586 186 731 340 797 c 128
 395 820 456 831 526 831 c 0
 657 831 765 762 831 684 c 1
 832 695 834 706 834 718 c 128
 834 735 834 736 834 752 c 0
 834 923 808 1046 756 1122 c 128
 704 1198 634 1237 547 1237 c 0
EndSplineSet
EndChar

StartChar: integral
Encoding: 8747 8747 705
Width: 679
Flags: HW
LayerCount: 2
Fore
SplineSet
487 145 m 0
 487 -103 451 -324 205 -324 c 0
 161 -324 128 -319 106 -309 c 1
 127 -182 l 1
 142 -187 166 -190 197 -190 c 0
 256 -190 293 -162 309 -106 c 128
 325 -50 334 31 334 137 c 0
 334 485 248 800 248 1149 c 0
 248 1396 287 1616 532 1616 c 0
 565 1616 607 1611 629 1604 c 1
 608 1477 l 1
 587 1483 565 1485 537 1485 c 0
 481 1485 444 1456 428 1398 c 128
 412 1340 403 1258 403 1153 c 0
 403 808 487 490 487 145 c 0
EndSplineSet
EndChar

StartChar: radical
Encoding: 8730 8730 706
Width: 1140
Flags: HW
LayerCount: 2
Fore
SplineSet
594 121 m 2
 601 99 607 77 612 55 c 128
 620 22 621 23 629 -10 c 1
 637 -10 l 1
 662 121 l 1
 1026 1679 l 1
 1149 1679 l 1
 705 -195 l 1
 575 -195 l 1
 268 682 l 1
 123 616 l 1
 84 709 l 1
 356 829 l 1
 594 121 l 2
EndSplineSet
EndChar

StartChar: uni2206
Encoding: 8710 8710 707
Width: 1212
Flags: HW
LayerCount: 2
Fore
SplineSet
61 102 m 1
 508 1352 l 1
 705 1352 l 1
 1153 102 l 1
 1153 0 l 1
 61 0 l 1
 61 102 l 1
961 145 m 1
 743 766 l 1
 612 1176 l 1
 604 1176 l 1
 494 826 374 486 254 145 c 1
 961 145 l 1
EndSplineSet
EndChar

StartChar: uni2126
Encoding: 8486 8486 708
Width: 1404
Flags: HW
LayerCount: 2
Fore
SplineSet
293 715 m 0
 293 426 411 240 575 115 c 1
 575 0 l 1
 88 0 l 1
 88 139 l 1
 360 139 l 1
 360 147 l 1
 228 279 117 457 117 721 c 0
 117 1027 247 1238 462 1330 c 128
 534 1361 613 1376 702 1376 c 0
 993 1376 1170 1213 1246 992 c 128
 1274 911 1288 821 1288 721 c 0
 1288 457 1176 279 1044 147 c 1
 1044 139 l 1
 1317 139 l 1
 1317 0 l 1
 829 0 l 1
 829 115 l 1
 993 240 1112 426 1112 715 c 0
 1112 943 1027 1116 873 1190 c 128
 822 1215 765 1227 702 1227 c 0
 488 1227 371 1093 321 924 c 128
 303 861 293 791 293 715 c 0
EndSplineSet
EndChar

StartChar: summation
Encoding: 8721 8721 709
Width: 1032
Flags: HW
LayerCount: 2
Fore
SplineSet
532 530 m 1
 68 1198 l 1
 68 1307 l 1
 969 1307 l 1
 969 1161 l 1
 279 1161 l 1
 279 1153 l 1
 713 532 l 1
 258 -92 l 1
 258 -100 l 1
 1026 -100 l 1
 1026 -246 l 1
 45 -246 l 1
 45 -137 l 1
 532 530 l 1
EndSplineSet
EndChar

StartChar: product
Encoding: 8719 8719 710
Width: 1378
Flags: HW
LayerCount: 2
Fore
SplineSet
182 1307 m 1
 1198 1307 l 1
 1198 -246 l 1
 1024 -246 l 1
 1024 1157 l 1
 352 1157 l 1
 352 -246 l 1
 182 -246 l 1
 182 1307 l 1
EndSplineSet
EndChar

StartChar: afii61289
Encoding: 8467 8467 711
Width: 837
Flags: HW
LayerCount: 2
Fore
SplineSet
385 629 m 1
 466 711 528 796 573 883 c 128
 618 970 641 1061 641 1157 c 0
 641 1225 630 1274 607 1303 c 128
 584 1332 556 1346 522 1346 c 0
 485 1346 453 1323 426 1277 c 128
 399 1231 385 1159 385 1059 c 2
 385 629 l 1
567 119 m 0
 655 119 709 165 756 209 c 1
 823 104 l 1
 756 45 669 -25 545 -25 c 0
 459 -25 385 4 323 63 c 128
 261 122 226 210 219 326 c 1
 192 308 193 307 166 289 c 128
 148 277 130 264 111 252 c 1
 43 358 l 1
 105 398 163 438 219 483 c 1
 219 1030 l 2
 219 1228 267 1391 399 1450 c 128
 436 1466 476 1475 518 1475 c 0
 691 1475 784 1341 784 1157 c 0
 784 1029 749 905 679 788 c 128
 609 671 511 559 385 453 c 1
 385 381 l 2
 385 285 403 218 438 178 c 128
 473 138 516 119 567 119 c 0
EndSplineSet
EndChar

StartChar: estimated
Encoding: 8494 8494 712
Width: 1638
Flags: HW
LayerCount: 2
Fore
SplineSet
1397 246 m 1
 1274 99 1075 -25 819 -25 c 0
 599 -25 423 65 305 177 c 128
 189 287 94 451 94 664 c 256
 94 876 189 1040 305 1150 c 128
 424 1262 599 1352 819 1352 c 0
 1037 1352 1213 1262 1331 1150 c 128
 1447 1040 1544 876 1544 664 c 2
 1544 647 l 1
 369 647 l 2
 364 647 360 644 360 639 c 2
 360 262 l 2
 360 244 370 233 377 221 c 1
 476 108 624 16 823 16 c 0
 1031 16 1190 124 1290 246 c 1
 1397 246 l 1
1270 684 m 2
 1278 684 1282 688 1282 696 c 2
 1282 1073 l 2
 1282 1089 1276 1104 1262 1118 c 0
 1162 1223 1014 1311 823 1311 c 0
 626 1311 478 1219 377 1110 c 1
 370 1098 360 1083 360 1065 c 2
 360 696 l 2
 360 688 364 684 369 684 c 2
 1270 684 l 2
EndSplineSet
EndChar

StartChar: arrowleft
Encoding: 8592 8592 713
Width: 1267
Flags: HW
LayerCount: 2
Fore
SplineSet
53 520 m 1
 612 1063 l 1
 698 969 l 1
 287 586 l 1
 1186 586 l 1
 1186 446 l 1
 287 446 l 1
 698 63 l 1
 612 -31 l 1
 53 512 l 1
 53 520 l 1
EndSplineSet
EndChar

StartChar: arrowup
Encoding: 8593 8593 714
Width: 1267
Flags: HW
LayerCount: 2
Fore
SplineSet
637 1079 m 1
 1182 522 l 1
 1085 436 l 1
 702 848 l 1
 702 -51 l 1
 563 -51 l 1
 563 848 l 1
 180 436 l 1
 86 522 l 1
 629 1079 l 1
 637 1079 l 1
EndSplineSet
EndChar

StartChar: arrowright
Encoding: 8594 8594 715
Width: 1267
Flags: HW
LayerCount: 2
Fore
SplineSet
1210 512 m 1
 653 -31 l 1
 565 63 l 1
 977 446 l 1
 80 446 l 1
 80 586 l 1
 977 586 l 1
 565 969 l 1
 653 1063 l 1
 1210 520 l 1
 1210 512 l 1
EndSplineSet
EndChar

StartChar: arrowdown
Encoding: 8595 8595 716
Width: 1267
Flags: HW
LayerCount: 2
Fore
SplineSet
629 -51 m 1
 86 508 l 1
 180 594 l 1
 563 182 l 1
 563 1079 l 1
 702 1079 l 1
 702 182 l 1
 1085 594 l 1
 1182 508 l 1
 637 -51 l 1
 629 -51 l 1
EndSplineSet
EndChar

StartChar: filledbox
Encoding: 9632 9632 717
Width: 626
Flags: HW
LayerCount: 2
Fore
SplineSet
111 748 m 1
 516 748 l 1
 516 332 l 1
 111 332 l 1
 111 748 l 1
EndSplineSet
EndChar

StartChar: uni25C6
Encoding: 9670 9670 718
Width: 626
Flags: HW
LayerCount: 2
Fore
SplineSet
25 539 m 1
 313 825 l 1
 600 539 l 1
 313 252 l 1
 25 539 l 1
EndSplineSet
EndChar

StartChar: uni25C9
Encoding: 9673 9673 719
Width: 909
Flags: HW
LayerCount: 2
Fore
SplineSet
573 539 m 256
 573 470 521 414 455 414 c 256
 389 414 338 470 338 539 c 256
 338 608 388 662 455 662 c 256
 521 662 573 608 573 539 c 256
455 162 m 256
 281 162 167 258 114 383 c 128
 94 429 84 482 84 539 c 256
 84 719 181 838 311 889 c 128
 356 907 404 915 455 915 c 256
 629 915 743 819 796 694 c 128
 816 648 825 596 825 539 c 256
 825 359 728 239 598 188 c 128
 553 170 506 162 455 162 c 256
455 262 m 256
 578 262 659 333 697 422 c 128
 711 456 719 495 719 539 c 256
 719 672 651 762 554 799 c 128
 522 811 489 817 455 817 c 256
 332 817 251 746 214 656 c 128
 200 621 193 583 193 539 c 256
 193 407 261 318 356 281 c 128
 387 269 421 262 455 262 c 256
EndSplineSet
EndChar

StartChar: uni2752
Encoding: 10066 10066 720
Width: 770
Flags: HW
LayerCount: 2
Fore
SplineSet
512 324 m 1
 512 662 l 1
 188 662 l 1
 188 324 l 1
 512 324 l 1
111 709 m 1
 231 809 l 1
 659 809 l 1
 659 369 l 1
 559 250 l 1
 111 250 l 1
 111 709 l 1
EndSplineSet
EndChar

StartChar: triagup
Encoding: 9650 9650 721
Width: 1169
Flags: HW
LayerCount: 2
Fore
SplineSet
47 82 m 1
 582 1094 l 1
 590 1094 l 1
 1122 82 l 1
 1122 78 l 1
 47 78 l 1
 47 82 l 1
EndSplineSet
EndChar

StartChar: uni25B3
Encoding: 9651 9651 722
Width: 1169
Flags: HW
LayerCount: 2
Fore
SplineSet
913 197 m 1
 586 838 l 1
 260 197 l 1
 913 197 l 1
47 82 m 1
 582 1094 l 1
 590 1094 l 1
 1122 82 l 1
 1122 78 l 1
 47 78 l 1
 47 82 l 1
EndSplineSet
EndChar

StartChar: uni25B6
Encoding: 9654 9654 723
Width: 1169
Flags: HW
LayerCount: 2
Fore
SplineSet
117 1114 m 1
 121 1114 l 1
 1133 582 l 1
 1133 573 l 1
 121 39 l 1
 117 39 l 1
 117 1114 l 1
EndSplineSet
EndChar

StartChar: uni25B7
Encoding: 9655 9655 724
Width: 1169
Flags: HW
LayerCount: 2
Fore
SplineSet
872 578 m 1
 238 903 l 1
 238 250 l 1
 872 578 l 1
117 1114 m 1
 121 1114 l 1
 1133 582 l 1
 1133 573 l 1
 121 39 l 1
 117 39 l 1
 117 1114 l 1
EndSplineSet
EndChar

StartChar: triagdn
Encoding: 9660 9660 725
Width: 1169
Flags: HW
LayerCount: 2
Fore
SplineSet
47 1071 m 1
 47 1075 l 1
 1122 1075 l 1
 1122 1071 l 1
 590 61 l 1
 582 61 l 1
 47 1071 l 1
EndSplineSet
EndChar

StartChar: uni25BD
Encoding: 9661 9661 726
Width: 1169
Flags: HW
LayerCount: 2
Fore
SplineSet
260 956 m 1
 586 313 l 1
 913 956 l 1
 260 956 l 1
47 1075 m 1
 1122 1075 l 1
 1122 1071 l 1
 590 59 l 1
 582 59 l 1
 47 1071 l 1
 47 1075 l 1
EndSplineSet
EndChar

StartChar: uni25C0
Encoding: 9664 9664 727
Width: 1169
Flags: HW
LayerCount: 2
Fore
SplineSet
37 582 m 1
 1049 1114 l 1
 1053 1114 l 1
 1053 39 l 1
 1049 39 l 1
 37 573 l 1
 37 582 l 1
EndSplineSet
EndChar

StartChar: uni25C1
Encoding: 9665 9665 728
Width: 1169
Flags: HW
LayerCount: 2
Fore
SplineSet
930 250 m 1
 930 903 l 1
 297 578 l 1
 930 250 l 1
1053 39 m 1
 1049 39 l 1
 37 573 l 1
 37 582 l 1
 1049 1114 l 1
 1053 1114 l 1
 1053 39 l 1
EndSplineSet
EndChar

StartChar: uni2610
Encoding: 9744 9744 729
Width: 1636
Flags: HW
LayerCount: 2
Fore
SplineSet
1331 68 m 1
 1331 1223 l 1
 240 1223 l 1
 240 68 l 1
 1331 68 l 1
152 1270 m 1
 276 1374 l 1
 1485 1374 l 1
 1485 104 l 1
 1376 -20 l 1
 152 -20 l 1
 152 1270 l 1
EndSplineSet
EndChar

StartChar: uni2611
Encoding: 9745 9745 730
Width: 1636
Flags: HW
LayerCount: 2
Fore
SplineSet
543 858 m 1
 638 709 727 533 784 352 c 1
 793 352 l 1
 885 667 1039 974 1208 1223 c 1
 240 1223 l 1
 240 68 l 1
 1331 68 l 1
 1331 1159 l 1
 1144 898 988 585 891 233 c 1
 715 213 l 1
 640 426 545 606 428 780 c 1
 543 858 l 1
1649 1526 m 1
 1593 1474 1538 1417 1485 1356 c 1
 1485 104 l 1
 1376 -20 l 1
 152 -20 l 1
 152 1270 l 1
 276 1374 l 1
 1317 1374 l 1
 1386 1467 1461 1549 1540 1628 c 1
 1649 1526 l 1
EndSplineSet
EndChar

StartChar: uni2713
Encoding: 10003 10003 731
Width: 1253
Flags: HW
LayerCount: 2
Fore
SplineSet
115 641 m 1
 223 480 318 292 385 98 c 1
 393 98 l 1
 511 486 699 842 918 1133 c 128
 993 1233 1070 1322 1151 1401 c 1
 1262 1298 l 1
 998 1052 786 734 627 376 c 128
 571 250 523 118 485 -20 c 1
 309 -41 l 1
 225 191 130 375 0 563 c 1
 115 641 l 1
EndSplineSet
EndChar

StartChar: musicalnote
Encoding: 9834 9834 732
Width: 1030
Flags: HW
LayerCount: 2
Fore
SplineSet
266 -49 m 0
 159 -49 59 0 59 106 c 0
 59 181 103 236 150 273 c 128
 205 317 285 346 383 346 c 0
 427 346 482 339 506 322 c 1
 506 1421 l 1
 608 1421 l 1
 637 1349 688 1318 752 1274 c 0
 881 1183 985 1084 985 872 c 0
 985 772 951 670 920 604 c 1
 848 631 l 1
 869 695 874 738 874 819 c 0
 874 978 752 1084 618 1126 c 1
 618 293 l 2
 618 123 528 15 400 -28 c 128
 357 -42 312 -49 266 -49 c 0
EndSplineSet
EndChar

StartChar: lozenge
Encoding: 9674 9674 733
Width: 1058
Flags: HW
LayerCount: 2
Fore
SplineSet
115 676 m 1
 453 1372 l 1
 606 1372 l 1
 944 676 l 1
 606 -20 l 1
 453 -20 l 1
 115 676 l 1
535 121 m 1
 621 306 708 491 795 676 c 1
 707 860 620 1045 535 1231 c 1
 526 1231 l 1
 439 1046 352 861 264 676 c 1
 351 491 438 306 526 121 c 1
 535 121 l 1
EndSplineSet
EndChar

StartChar: minute
Encoding: 8242 8242 734
Width: 509
Flags: HW
LayerCount: 2
Fore
SplineSet
213 1413 m 1
 379 1413 l 1
 346 1208 l 1
 276 889 l 1
 166 889 l 1
 213 1413 l 1
EndSplineSet
EndChar

StartChar: uni02BE
Encoding: 702 702 738
Width: 307
Flags: HW
LayerCount: 2
Fore
SplineSet
61 1489 m 1
 66 1489 71 1489 76 1489 c 0
 204 1489 289 1423 289 1300 c 0
 289 1175 205 1110 76 1110 c 0
 71 1110 66 1110 61 1110 c 1
 61 1184 l 1
 147 1184 193 1220 193 1300 c 0
 193 1378 146 1415 61 1415 c 1
 61 1489 l 1
EndSplineSet
EndChar

StartChar: uni02BF
Encoding: 703 703 739
Width: 331
Flags: HW
LayerCount: 2
Fore
SplineSet
268 1110 m 1
 263 1110 259 1110 254 1110 c 0
 125 1110 41 1175 41 1300 c 0
 41 1423 126 1489 254 1489 c 0
 259 1489 263 1489 268 1489 c 1
 268 1415 l 1
 183 1415 137 1378 137 1300 c 0
 137 1220 182 1184 268 1184 c 1
 268 1110 l 1
EndSplineSet
EndChar

StartChar: uni02C8
Encoding: 712 712 744
Width: 233
Flags: HW
LayerCount: 2
Fore
SplineSet
45 1466 m 1
 188 1466 l 1
 176 1092 l 1
 57 1092 l 1
 45 1466 l 1
EndSplineSet
EndChar

StartChar: uni02CC
Encoding: 716 716 748
Width: 233
Flags: HW
LayerCount: 2
Fore
SplineSet
176 -145 m 1
 188 -520 l 1
 45 -520 l 1
 57 -145 l 1
 176 -145 l 1
EndSplineSet
EndChar

StartChar: gravecomb
Encoding: 768 768 758
Width: 0
Flags: HW
AnchorPoint: "Anchor-5" 0 1040 mark 0
AnchorPoint: "Anchor-0" 0 1040 mark 0
LayerCount: 2
Fore
SplineSet
-227 1462 m 1
 -51 1462 l 1
 133 1174 l 1
 4 1174 l 1
 -227 1462 l 1
EndSplineSet
Substitution2: "Single Substitution lookup 24 subtable" gravecomb.cap
Substitution2: "'case' Case-Sensitive Forms in Latin lookup 17 subtable" gravecomb.cap
Substitution2: "'aalt' Access All Alternates in Latin lookup 0 subtable" gravecomb.cap
EndChar

StartChar: gravecomb.cap
Encoding: 65665 -1 759
Width: 0
Flags: HW
AnchorPoint: "Anchor-5" 0 1389 mark 0
AnchorPoint: "Anchor-0" 0 1389 mark 0
LayerCount: 2
Fore
SplineSet
-268 1675 m 1
 -76 1675 l 1
 104 1446 l 1
 -37 1446 l 1
 -268 1675 l 1
EndSplineSet
EndChar

StartChar: acutecomb
Encoding: 769 769 760
Width: 0
Flags: HW
AnchorPoint: "Anchor-5" 0 1040 mark 0
AnchorPoint: "Anchor-0" 0 1040 mark 0
LayerCount: 2
Fore
SplineSet
-4 1174 m 1
 -133 1174 l 1
 51 1462 l 1
 227 1462 l 1
 -4 1174 l 1
EndSplineSet
Substitution2: "Single Substitution lookup 24 subtable" acutecomb.cap
Substitution2: "'case' Case-Sensitive Forms in Latin lookup 17 subtable" acutecomb.cap
Substitution2: "'aalt' Access All Alternates in Latin lookup 0 subtable" acutecomb.cap
EndChar

StartChar: acutecomb.cap
Encoding: 65666 -1 761
Width: 0
Flags: HW
AnchorPoint: "Anchor-5" 0 1389 mark 0
AnchorPoint: "Anchor-0" 0 1389 mark 0
LayerCount: 2
Fore
SplineSet
37 1446 m 1
 -104 1446 l 1
 76 1675 l 1
 268 1675 l 1
 37 1446 l 1
EndSplineSet
EndChar

StartChar: uni0302
Encoding: 770 770 762
Width: 0
Flags: HW
AnchorPoint: "Anchor-5" 0 1499 basemark 0
AnchorPoint: "Anchor-5" 0 1040 mark 0
AnchorPoint: "Anchor-0" 0 1040 mark 0
LayerCount: 2
Fore
SplineSet
-70 1462 m 1
 70 1462 l 1
 264 1174 l 1
 141 1174 l 1
 4 1360 l 1
 -4 1360 l 1
 -141 1174 l 1
 -264 1174 l 1
 -70 1462 l 1
EndSplineSet
Substitution2: "Single Substitution lookup 24 subtable" uni0302.cap
Substitution2: "'case' Case-Sensitive Forms in Latin lookup 17 subtable" uni0302.cap
Substitution2: "'aalt' Access All Alternates in Latin lookup 0 subtable" uni0302.cap
EndChar

StartChar: uni0302.cap
Encoding: 65667 -1 763
Width: 0
Flags: HW
AnchorPoint: "Anchor-5" 0 1389 mark 0
AnchorPoint: "Anchor-0" 0 1389 mark 0
LayerCount: 2
Fore
SplineSet
-279 1446 m 1
 -82 1675 l 1
 82 1675 l 1
 279 1446 l 1
 141 1446 l 1
 4 1585 l 1
 -4 1585 l 1
 -141 1446 l 1
 -279 1446 l 1
EndSplineSet
EndChar

StartChar: tildecomb
Encoding: 771 771 764
Width: 0
Flags: HW
AnchorPoint: "Anchor-5" 0 1040 mark 0
AnchorPoint: "Anchor-0" 0 1040 mark 0
LayerCount: 2
Fore
SplineSet
-285 1186 m 1
 -275 1293 -230 1403 -119 1403 c 0
 -39 1403 17 1348 66 1315 c 128
 82 1304 99 1298 115 1298 c 0
 153 1298 178 1333 190 1403 c 1
 285 1403 l 1
 275 1296 230 1186 119 1186 c 0
 64 1186 23 1214 -11 1238 c 128
 -40 1258 -73 1290 -115 1290 c 0
 -153 1290 -178 1256 -190 1186 c 1
 -285 1186 l 1
EndSplineSet
Substitution2: "Single Substitution lookup 24 subtable" tildecomb.cap
Substitution2: "'case' Case-Sensitive Forms in Latin lookup 17 subtable" tildecomb.cap
Substitution2: "'aalt' Access All Alternates in Latin lookup 0 subtable" tildecomb.cap
EndChar

StartChar: tildecomb.cap
Encoding: 65668 -1 765
Width: 0
Flags: HW
AnchorPoint: "Anchor-5" 0 1389 mark 0
AnchorPoint: "Anchor-0" 0 1389 mark 0
LayerCount: 2
Fore
SplineSet
297 1677 m 1
 285 1570 233 1456 123 1456 c 0
 38 1456 -12 1513 -66 1546 c 128
 -84 1557 -102 1563 -121 1563 c 256
 -172 1563 -195 1509 -203 1456 c 1
 -297 1456 l 1
 -285 1565 -234 1677 -123 1677 c 0
 -38 1677 12 1620 66 1587 c 128
 84 1576 102 1571 121 1571 c 256
 171 1571 195 1626 203 1677 c 1
 297 1677 l 1
EndSplineSet
EndChar

StartChar: uni0304
Encoding: 772 772 766
Width: 0
Flags: HW
AnchorPoint: "Anchor-5" 0 1040 mark 0
AnchorPoint: "Anchor-0" 0 1040 mark 0
LayerCount: 2
Fore
SplineSet
-252 1348 m 1
 252 1348 l 1
 252 1231 l 1
 -252 1231 l 1
 -252 1348 l 1
EndSplineSet
Substitution2: "Single Substitution lookup 24 subtable" uni0304.cap
Substitution2: "'case' Case-Sensitive Forms in Latin lookup 17 subtable" uni0304.cap
Substitution2: "'aalt' Access All Alternates in Latin lookup 0 subtable" uni0304.cap
EndChar

StartChar: uni0304.cap
Encoding: 65669 -1 767
Width: 0
Flags: HW
AnchorPoint: "Anchor-5" 0 1389 mark 0
AnchorPoint: "Anchor-0" 0 1389 mark 0
LayerCount: 2
Fore
SplineSet
-254 1610 m 1
 254 1610 l 1
 254 1493 l 1
 -254 1493 l 1
 -254 1610 l 1
EndSplineSet
EndChar

StartChar: uni0306
Encoding: 774 774 768
Width: 0
Flags: HW
AnchorPoint: "Anchor-5" 0 1040 mark 0
AnchorPoint: "Anchor-0" 0 1040 mark 0
LayerCount: 2
Fore
SplineSet
258 1438 m 1
 245 1291 163 1178 0 1178 c 256
 -130 1178 -206 1252 -240 1347 c 128
 -251 1378 -257 1408 -258 1438 c 1
 -154 1438 l 1
 -143 1357 -94 1282 0 1282 c 256
 94 1282 143 1357 154 1438 c 1
 258 1438 l 1
EndSplineSet
Substitution2: "Single Substitution lookup 24 subtable" uni0306.cap
Substitution2: "'case' Case-Sensitive Forms in Latin lookup 17 subtable" uni0306.cap
Substitution2: "'aalt' Access All Alternates in Latin lookup 0 subtable" uni0306.cap
EndChar

StartChar: uni0306.cap
Encoding: 65670 -1 769
Width: 0
Flags: HW
AnchorPoint: "Anchor-5" 0 1389 mark 0
AnchorPoint: "Anchor-0" 0 1389 mark 0
LayerCount: 2
Fore
SplineSet
252 1675 m 1
 233 1542 153 1450 0 1450 c 256
 -154 1450 -233 1542 -252 1675 c 1
 -150 1675 l 1
 -135 1605 -88 1546 0 1546 c 256
 88 1546 135 1605 150 1675 c 1
 252 1675 l 1
EndSplineSet
EndChar

StartChar: uni0307
Encoding: 775 775 770
Width: 0
Flags: HW
AnchorPoint: "Anchor-5" 0 1423 basemark 0
AnchorPoint: "Anchor-5" 0 1040 mark 0
AnchorPoint: "Anchor-0" 0 1040 mark 0
LayerCount: 2
Fore
SplineSet
111 1311 m 0
 111 1247 63 1200 0 1200 c 256
 -63 1200 -111 1247 -111 1311 c 0
 -111 1373 -62 1421 0 1421 c 256
 62 1421 111 1373 111 1311 c 0
EndSplineSet
Substitution2: "Single Substitution lookup 24 subtable" uni0307.cap
Substitution2: "'case' Case-Sensitive Forms in Latin lookup 17 subtable" uni0307.cap
Substitution2: "'aalt' Access All Alternates in Latin lookup 0 subtable" uni0307.cap
EndChar

StartChar: uni0307.cap
Encoding: 65671 -1 771
Width: 0
Flags: HW
AnchorPoint: "Anchor-5" 0 1389 mark 0
AnchorPoint: "Anchor-0" 0 1389 mark 0
LayerCount: 2
Fore
SplineSet
117 1573 m 0
 117 1508 65 1462 0 1462 c 256
 -65 1462 -117 1508 -117 1573 c 0
 -117 1636 -64 1681 0 1681 c 256
 64 1681 117 1636 117 1573 c 0
EndSplineSet
EndChar

StartChar: uni0308
Encoding: 776 776 772
Width: 0
Flags: HW
AnchorPoint: "Anchor-5" 0 1423 basemark 0
AnchorPoint: "Anchor-5" 0 1040 mark 0
AnchorPoint: "Anchor-0" 0 1040 mark 0
LayerCount: 2
Fore
SplineSet
-76 1305 m 256
 -76 1248 -119 1204 -176 1204 c 0
 -235 1204 -276 1247 -276 1305 c 256
 -276 1363 -235 1405 -176 1405 c 0
 -119 1405 -76 1362 -76 1305 c 256
276 1305 m 256
 276 1247 235 1204 176 1204 c 0
 119 1204 76 1248 76 1305 c 256
 76 1362 119 1405 176 1405 c 0
 235 1405 276 1363 276 1305 c 256
EndSplineSet
Substitution2: "Single Substitution lookup 24 subtable" uni0308.cap
Substitution2: "'case' Case-Sensitive Forms in Latin lookup 17 subtable" uni0308.cap
Substitution2: "'aalt' Access All Alternates in Latin lookup 0 subtable" uni0308.cap
EndChar

StartChar: uni0308.cap
Encoding: 65672 -1 773
Width: 0
Flags: HW
AnchorPoint: "Anchor-5" 0 1389 mark 0
AnchorPoint: "Anchor-0" 0 1389 mark 0
LayerCount: 2
Fore
SplineSet
-76 1565 m 0
 -76 1508 -119 1464 -176 1464 c 0
 -235 1464 -276 1507 -276 1565 c 0
 -276 1625 -236 1665 -176 1665 c 0
 -118 1665 -76 1624 -76 1565 c 0
276 1565 m 0
 276 1507 235 1464 176 1464 c 0
 119 1464 76 1508 76 1565 c 0
 76 1624 118 1665 176 1665 c 0
 236 1665 276 1625 276 1565 c 0
EndSplineSet
EndChar

StartChar: hookabovecomb
Encoding: 777 777 774
Width: 0
Flags: HW
AnchorPoint: "Anchor-5" 0 1040 mark 0
AnchorPoint: "Anchor-0" 0 1040 mark 0
LayerCount: 2
Fore
SplineSet
-113 1489 m 1
 28 1485 170 1449 170 1323 c 0
 170 1193 54 1153 -57 1133 c 1
 -76 1210 l 1
 -24 1225 39 1245 39 1305 c 0
 39 1358 -18 1387 -131 1391 c 1
 -113 1489 l 1
EndSplineSet
Substitution2: "Single Substitution lookup 24 subtable" hookabovecomb.cap
Substitution2: "'case' Case-Sensitive Forms in Latin lookup 17 subtable" hookabovecomb.cap
Substitution2: "'aalt' Access All Alternates in Latin lookup 0 subtable" hookabovecomb.cap
EndChar

StartChar: hookabovecomb.cap
Encoding: 65673 -1 775
Width: 0
Flags: HW
AnchorPoint: "Anchor-5" 0 1389 mark 0
AnchorPoint: "Anchor-0" 0 1389 mark 0
LayerCount: 2
Fore
SplineSet
-113 1786 m 1
 28 1782 170 1746 170 1620 c 0
 170 1490 54 1450 -57 1430 c 1
 -76 1507 l 1
 -24 1522 39 1542 39 1602 c 0
 39 1655 -18 1684 -131 1688 c 1
 -113 1786 l 1
EndSplineSet
EndChar

StartChar: uni030A
Encoding: 778 778 776
Width: 0
Flags: HW
AnchorPoint: "Anchor-5" 0 1040 mark 0
AnchorPoint: "Anchor-0" 0 1040 mark 0
LayerCount: 2
Fore
SplineSet
190 1300 m 256
 190 1187 112 1110 0 1110 c 256
 -112 1110 -190 1187 -190 1300 c 256
 -190 1413 -112 1489 0 1489 c 256
 112 1489 190 1413 190 1300 c 256
-98 1300 m 0
 -98 1236 -60 1186 0 1186 c 256
 60 1186 98 1236 98 1300 c 0
 98 1362 59 1413 0 1413 c 256
 -59 1413 -98 1362 -98 1300 c 0
EndSplineSet
Substitution2: "Single Substitution lookup 24 subtable" uni030A.cap
Substitution2: "'case' Case-Sensitive Forms in Latin lookup 17 subtable" uni030A.cap
Substitution2: "'aalt' Access All Alternates in Latin lookup 0 subtable" uni030A.cap
EndChar

StartChar: uni030A.cap
Encoding: 65674 -1 777
Width: 0
Flags: HW
AnchorPoint: "Anchor-5" 0 1389 mark 0
AnchorPoint: "Anchor-0" 0 1389 mark 0
LayerCount: 2
Fore
SplineSet
190 1612 m 0
 190 1501 110 1432 0 1432 c 0
 -111 1432 -190 1500 -190 1612 c 0
 -190 1722 -110 1792 0 1792 c 0
 109 1792 190 1721 190 1612 c 0
-98 1612 m 0
 -98 1549 -59 1505 0 1505 c 0
 58 1505 96 1550 96 1612 c 0
 96 1670 56 1716 0 1716 c 0
 -57 1716 -98 1671 -98 1612 c 0
EndSplineSet
EndChar

StartChar: uni030B
Encoding: 779 779 778
Width: 0
Flags: HW
AnchorPoint: "Anchor-5" 0 1040 mark 0
AnchorPoint: "Anchor-0" 0 1040 mark 0
LayerCount: 2
Fore
SplineSet
-57 1462 m 1
 92 1462 l 1
 -88 1169 l 1
 -201 1169 l 1
 -57 1462 l 1
246 1462 m 1
 393 1462 l 1
 213 1169 l 1
 100 1169 l 1
 246 1462 l 1
EndSplineSet
Substitution2: "Single Substitution lookup 24 subtable" uni030B.cap
Substitution2: "'case' Case-Sensitive Forms in Latin lookup 17 subtable" uni030B.cap
Substitution2: "'aalt' Access All Alternates in Latin lookup 0 subtable" uni030B.cap
EndChar

StartChar: uni030B.cap
Encoding: 65675 -1 779
Width: 0
Flags: HW
AnchorPoint: "Anchor-5" 0 1389 mark 0
AnchorPoint: "Anchor-0" 0 1389 mark 0
LayerCount: 2
Fore
SplineSet
-223 1446 m 1
 -88 1675 l 1
 70 1675 l 1
 -100 1446 l 1
 -223 1446 l 1
236 1675 m 1
 393 1675 l 1
 221 1446 l 1
 100 1446 l 1
 236 1675 l 1
EndSplineSet
EndChar

StartChar: uni030C
Encoding: 780 780 780
Width: 0
Flags: HW
AnchorPoint: "Anchor-5" 0 1040 mark 0
AnchorPoint: "Anchor-0" 0 1040 mark 0
LayerCount: 2
Fore
SplineSet
-264 1462 m 1
 -141 1462 l 1
 -4 1274 l 1
 4 1274 l 1
 141 1462 l 1
 264 1462 l 1
 70 1174 l 1
 -70 1174 l 1
 -264 1462 l 1
EndSplineSet
Substitution2: "Single Substitution lookup 24 subtable" uni030C.cap
Substitution2: "'case' Case-Sensitive Forms in Latin lookup 17 subtable" uni030C.cap
Substitution2: "'aalt' Access All Alternates in Latin lookup 0 subtable" uni030C.cap
EndChar

StartChar: uni030C.cap
Encoding: 65676 -1 781
Width: 0
Flags: HW
AnchorPoint: "Anchor-5" 0 1389 mark 0
AnchorPoint: "Anchor-0" 0 1389 mark 0
LayerCount: 2
Fore
SplineSet
279 1675 m 1
 82 1446 l 1
 -82 1446 l 1
 -279 1675 l 1
 -141 1675 l 1
 -4 1536 l 1
 4 1536 l 1
 141 1675 l 1
 279 1675 l 1
EndSplineSet
EndChar

StartChar: uni030F
Encoding: 783 783 782
Width: 0
Flags: HW
AnchorPoint: "Anchor-5" 0 1040 mark 0
AnchorPoint: "Anchor-0" 0 1040 mark 0
LayerCount: 2
Fore
SplineSet
201 1169 m 1
 88 1169 l 1
 -92 1462 l 1
 57 1462 l 1
 201 1169 l 1
-100 1169 m 1
 -213 1169 l 1
 -393 1462 l 1
 -246 1462 l 1
 -100 1169 l 1
EndSplineSet
Substitution2: "Single Substitution lookup 24 subtable" uni030F.cap
Substitution2: "'case' Case-Sensitive Forms in Latin lookup 17 subtable" uni030F.cap
Substitution2: "'aalt' Access All Alternates in Latin lookup 0 subtable" uni030F.cap
EndChar

StartChar: uni030F.cap
Encoding: 65677 -1 783
Width: 0
Flags: HW
AnchorPoint: "Anchor-5" 0 1389 mark 0
AnchorPoint: "Anchor-0" 0 1389 mark 0
LayerCount: 2
Fore
SplineSet
100 1446 m 1
 -70 1675 l 1
 88 1675 l 1
 223 1446 l 1
 100 1446 l 1
-100 1446 m 1
 -221 1446 l 1
 -393 1675 l 1
 -236 1675 l 1
 -100 1446 l 1
EndSplineSet
EndChar

StartChar: uni0312
Encoding: 786 786 784
Width: 0
Flags: HW
AnchorPoint: "Anchor-5" 0 1040 mark 0
AnchorPoint: "Anchor-0" 0 1040 mark 0
LayerCount: 2
Fore
SplineSet
78 1208 m 0
 78 1152 48 1116 -4 1116 c 0
 -74 1116 -109 1163 -109 1257 c 0
 -109 1378 -38 1455 57 1499 c 1
 94 1434 l 1
 29 1402 -16 1364 -23 1286 c 1
 -19 1287 -13 1288 -6 1288 c 0
 40 1288 78 1258 78 1208 c 0
EndSplineSet
EndChar

StartChar: uni0313
Encoding: 787 787 785
Width: 0
Flags: HW
AnchorPoint: "Anchor-5" 0 1040 mark 0
AnchorPoint: "Anchor-0" 0 1040 mark 0
LayerCount: 2
Fore
SplineSet
-82 1405 m 0
 -82 1460 -49 1495 2 1495 c 0
 70 1495 104 1448 104 1354 c 0
 104 1233 34 1158 -61 1114 c 1
 -96 1180 l 1
 -22 1215 16 1264 20 1327 c 1
 16 1326 10 1325 2 1325 c 0
 -44 1325 -82 1355 -82 1405 c 0
EndSplineSet
EndChar

StartChar: uni031B
Encoding: 795 795 786
Width: 0
Flags: HW
AnchorPoint: "Anchor-3" 0 995 mark 0
LayerCount: 2
Fore
SplineSet
246 1255 m 1
 271 1220 293 1178 293 1122 c 0
 293 959 147 905 -2 891 c 1
 -18 975 l 1
 76 988 154 1014 154 1110 c 0
 154 1144 139 1173 125 1196 c 1
 246 1255 l 1
EndSplineSet
EndChar

StartChar: dotbelowcomb
Encoding: 803 803 787
Width: 0
Flags: HW
AnchorPoint: "Anchor-2" 0 -45 mark 0
LayerCount: 2
Fore
SplineSet
111 -311 m 0
 111 -375 63 -422 0 -422 c 256
 -63 -422 -111 -375 -111 -311 c 0
 -111 -249 -62 -203 0 -203 c 256
 62 -203 111 -249 111 -311 c 0
EndSplineSet
EndChar

StartChar: uni0324
Encoding: 804 804 788
Width: 0
Flags: HW
AnchorPoint: "Anchor-2" 0 -45 mark 0
LayerCount: 2
Fore
SplineSet
-76 -311 m 0
 -76 -366 -120 -412 -176 -412 c 0
 -234 -412 -276 -367 -276 -311 c 0
 -276 -253 -235 -211 -176 -211 c 0
 -119 -211 -76 -254 -76 -311 c 0
276 -311 m 0
 276 -367 234 -412 176 -412 c 0
 120 -412 76 -366 76 -311 c 0
 76 -254 119 -211 176 -211 c 0
 235 -211 276 -253 276 -311 c 0
EndSplineSet
EndChar

StartChar: uni0326
Encoding: 806 806 789
Width: 0
Flags: HW
AnchorPoint: "Anchor-2" 0 -45 mark 0
LayerCount: 2
Fore
SplineSet
-59 -98 m 1
 53 -116 139 -144 139 -256 c 0
 139 -394 -28 -433 -158 -442 c 1
 -174 -360 l 1
 -99 -351 8 -335 8 -266 c 256
 8 -207 -46 -188 -96 -176 c 1
 -59 -98 l 1
EndSplineSet
EndChar

StartChar: uni0327
Encoding: 807 807 790
Width: 0
Flags: HW
AnchorPoint: "Anchor-1" 0 0 mark 0
LayerCount: 2
Fore
SplineSet
8 -254 m 256
 8 -188 -59 -170 -121 -154 c 1
 -39 6 l 1
 70 6 l 1
 18 -102 l 1
 82 -123 139 -162 139 -248 c 0
 139 -388 -31 -422 -158 -436 c 1
 -174 -352 l 1
 -99 -343 8 -323 8 -254 c 256
EndSplineSet
Substitution2: "Single Substitution lookup 24 subtable" uni0327.cap
Substitution2: "'case' Case-Sensitive Forms in Latin lookup 17 subtable" uni0327.cap
Substitution2: "'aalt' Access All Alternates in Latin lookup 0 subtable" uni0327.cap
EndChar

StartChar: uni0327.cap
Encoding: 65678 -1 791
Width: 0
Flags: HW
AnchorPoint: "Anchor-1" 0 0 mark 0
LayerCount: 2
Fore
SplineSet
8 -254 m 256
 8 -188 -59 -170 -121 -154 c 1
 -39 6 l 1
 70 6 l 1
 18 -102 l 1
 82 -123 139 -162 139 -248 c 0
 139 -388 -31 -422 -158 -436 c 1
 -174 -352 l 1
 -99 -343 8 -323 8 -254 c 256
EndSplineSet
EndChar

StartChar: uni0328
Encoding: 808 808 792
Width: 0
Flags: HW
AnchorPoint: "Anchor-4" 0 0 mark 0
LayerCount: 2
Fore
SplineSet
49 -422 m 0
 -58 -422 -135 -359 -135 -248 c 0
 -135 -134 -55 -43 10 6 c 1
 129 6 l 1
 62 -44 -10 -115 -10 -215 c 0
 -10 -273 30 -309 84 -309 c 0
 114 -309 141 -301 166 -283 c 1
 211 -367 l 1
 178 -393 105 -422 49 -422 c 0
EndSplineSet
Substitution2: "Single Substitution lookup 24 subtable" uni0328.cap
Substitution2: "'case' Case-Sensitive Forms in Latin lookup 17 subtable" uni0328.cap
Substitution2: "'aalt' Access All Alternates in Latin lookup 0 subtable" uni0328.cap
EndChar

StartChar: uni0328.cap
Encoding: 65679 -1 793
Width: 0
Flags: HW
AnchorPoint: "Anchor-4" 0 0 mark 0
LayerCount: 2
Fore
SplineSet
59 -434 m 0
 -53 -434 -135 -370 -135 -256 c 0
 -135 -133 -59 -47 12 6 c 1
 135 6 l 1
 68 -44 -4 -118 -4 -219 c 0
 -4 -277 40 -313 94 -313 c 0
 131 -313 154 -302 176 -285 c 1
 223 -377 l 1
 190 -403 117 -434 59 -434 c 0
EndSplineSet
EndChar

StartChar: uni032E
Encoding: 814 814 794
Width: 0
Flags: HW
AnchorPoint: "Anchor-2" 0 -45 mark 0
LayerCount: 2
Fore
SplineSet
258 -162 m 1
 245 -309 163 -422 0 -422 c 256
 -130 -422 -206 -348 -240 -253 c 128
 -251 -222 -257 -192 -258 -162 c 1
 -154 -162 l 1
 -143 -243 -94 -317 0 -317 c 256
 94 -317 143 -243 154 -162 c 1
 258 -162 l 1
EndSplineSet
EndChar

StartChar: uni0331
Encoding: 817 817 795
Width: 0
Flags: HW
AnchorPoint: "Anchor-2" 0 -45 mark 0
LayerCount: 2
Fore
SplineSet
252 -350 m 1
 -254 -350 l 1
 -254 -231 l 1
 252 -231 l 1
 252 -350 l 1
EndSplineSet
EndChar

StartChar: uni03080304
Encoding: 65680 -1 796
Width: 0
Flags: HW
AnchorPoint: "Anchor-5" 0 1040 mark 0
AnchorPoint: "Anchor-0" 0 1040 mark 0
LayerCount: 2
Fore
SplineSet
-84 1296 m 0
 -84 1243 -123 1204 -176 1204 c 256
 -229 1204 -270 1243 -270 1296 c 0
 -270 1350 -230 1391 -176 1391 c 256
 -122 1391 -84 1350 -84 1296 c 0
270 1296 m 0
 270 1243 229 1204 176 1204 c 256
 123 1204 84 1243 84 1296 c 0
 84 1350 122 1391 176 1391 c 256
 230 1391 270 1350 270 1296 c 0
-254 1632 m 1
 252 1632 l 1
 252 1536 l 1
 -254 1536 l 1
 -254 1632 l 1
EndSplineSet
Substitution2: "Single Substitution lookup 24 subtable" uni03080304.cap
Substitution2: "'case' Case-Sensitive Forms in Latin lookup 17 subtable" uni03080304.cap
Ligature2: "'ccmp' Glyph Composition/Decomposition in Latin lookup 5 subtable" uni0308 uni0304
Substitution2: "'aalt' Access All Alternates in Latin lookup 0 subtable" uni03080304.cap
EndChar

StartChar: uni03080304.cap
Encoding: 65681 -1 797
Width: 0
Flags: HW
AnchorPoint: "Anchor-5" 0 1389 mark 0
AnchorPoint: "Anchor-0" 0 1389 mark 0
LayerCount: 2
Fore
SplineSet
-254 1858 m 1
 254 1858 l 1
 254 1763 l 1
 -254 1763 l 1
 -254 1858 l 1
-84 1559 m 256
 -84 1505 -122 1464 -176 1464 c 256
 -230 1464 -270 1505 -270 1559 c 256
 -270 1613 -230 1651 -176 1651 c 256
 -122 1651 -84 1613 -84 1559 c 256
270 1559 m 256
 270 1505 230 1464 176 1464 c 256
 122 1464 84 1505 84 1559 c 256
 84 1613 122 1651 176 1651 c 256
 230 1651 270 1613 270 1559 c 256
EndSplineSet
EndChar

StartChar: uni03080301
Encoding: 65682 -1 798
Width: 0
Flags: HW
AnchorPoint: "Anchor-5" 0 1040 mark 0
AnchorPoint: "Anchor-0" 0 1040 mark 0
LayerCount: 2
Fore
SplineSet
59 1686 m 1
 221 1686 l 1
 10 1475 l 1
 -109 1475 l 1
 59 1686 l 1
-84 1296 m 0
 -84 1243 -123 1204 -176 1204 c 256
 -229 1204 -270 1243 -270 1296 c 0
 -270 1350 -230 1391 -176 1391 c 256
 -122 1391 -84 1350 -84 1296 c 0
270 1296 m 0
 270 1243 229 1204 176 1204 c 256
 123 1204 84 1243 84 1296 c 0
 84 1350 122 1391 176 1391 c 256
 230 1391 270 1350 270 1296 c 0
EndSplineSet
Substitution2: "Single Substitution lookup 24 subtable" uni03080301.cap
Substitution2: "'case' Case-Sensitive Forms in Latin lookup 17 subtable" uni03080301.cap
Ligature2: "'ccmp' Glyph Composition/Decomposition in Latin lookup 5 subtable" uni0308 acutecomb
Substitution2: "'aalt' Access All Alternates in Latin lookup 0 subtable" uni03080301.cap
EndChar

StartChar: uni03080301.cap
Encoding: 65683 -1 799
Width: 0
Flags: HW
AnchorPoint: "Anchor-5" 0 1389 mark 0
AnchorPoint: "Anchor-0" 0 1389 mark 0
LayerCount: 2
Fore
SplineSet
78 1946 m 1
 264 1946 l 1
 35 1718 l 1
 -104 1718 l 1
 78 1946 l 1
-84 1559 m 256
 -84 1505 -122 1464 -176 1464 c 256
 -230 1464 -270 1505 -270 1559 c 256
 -270 1613 -230 1651 -176 1651 c 256
 -122 1651 -84 1613 -84 1559 c 256
270 1559 m 256
 270 1505 230 1464 176 1464 c 256
 122 1464 84 1505 84 1559 c 256
 84 1613 122 1651 176 1651 c 256
 230 1651 270 1613 270 1559 c 256
EndSplineSet
EndChar

StartChar: uni0308030C
Encoding: 65684 -1 800
Width: 0
Flags: HW
AnchorPoint: "Anchor-5" 0 1040 mark 0
AnchorPoint: "Anchor-0" 0 1040 mark 0
LayerCount: 2
Fore
SplineSet
-258 1686 m 1
 -133 1686 l 1
 -4 1554 l 1
 4 1554 l 1
 133 1686 l 1
 258 1686 l 1
 72 1475 l 1
 -72 1475 l 1
 -258 1686 l 1
-84 1296 m 0
 -84 1243 -123 1204 -176 1204 c 256
 -229 1204 -270 1243 -270 1296 c 0
 -270 1350 -230 1391 -176 1391 c 256
 -122 1391 -84 1350 -84 1296 c 0
270 1296 m 0
 270 1243 229 1204 176 1204 c 256
 123 1204 84 1243 84 1296 c 0
 84 1350 122 1391 176 1391 c 256
 230 1391 270 1350 270 1296 c 0
EndSplineSet
Substitution2: "Single Substitution lookup 24 subtable" uni0308030C.cap
Substitution2: "'case' Case-Sensitive Forms in Latin lookup 17 subtable" uni0308030C.cap
Ligature2: "'ccmp' Glyph Composition/Decomposition in Latin lookup 5 subtable" uni0308 uni030C
Substitution2: "'aalt' Access All Alternates in Latin lookup 0 subtable" uni0308030C.cap
EndChar

StartChar: uni0308030C.cap
Encoding: 65685 -1 801
Width: 0
Flags: HW
AnchorPoint: "Anchor-5" 0 1389 mark 0
AnchorPoint: "Anchor-0" 0 1389 mark 0
LayerCount: 2
Fore
SplineSet
-84 1559 m 256
 -84 1505 -122 1464 -176 1464 c 256
 -230 1464 -270 1505 -270 1559 c 256
 -270 1613 -230 1651 -176 1651 c 256
 -122 1651 -84 1613 -84 1559 c 256
270 1559 m 256
 270 1505 230 1464 176 1464 c 256
 122 1464 84 1505 84 1559 c 256
 84 1613 122 1651 176 1651 c 256
 230 1651 270 1613 270 1559 c 256
279 1946 m 1
 82 1718 l 1
 -82 1718 l 1
 -279 1946 l 1
 -141 1946 l 1
 -4 1806 l 1
 4 1806 l 1
 141 1946 l 1
 279 1946 l 1
EndSplineSet
EndChar

StartChar: uni03080300
Encoding: 65686 -1 802
Width: 0
Flags: HW
AnchorPoint: "Anchor-5" 0 1040 mark 0
AnchorPoint: "Anchor-0" 0 1040 mark 0
LayerCount: 2
Fore
SplineSet
109 1475 m 1
 -10 1475 l 1
 -221 1686 l 1
 -59 1686 l 1
 109 1475 l 1
270 1296 m 0
 270 1243 229 1204 176 1204 c 256
 123 1204 84 1243 84 1296 c 0
 84 1350 122 1391 176 1391 c 256
 230 1391 270 1350 270 1296 c 0
-84 1296 m 0
 -84 1243 -123 1204 -176 1204 c 256
 -229 1204 -270 1243 -270 1296 c 0
 -270 1350 -230 1391 -176 1391 c 256
 -122 1391 -84 1350 -84 1296 c 0
EndSplineSet
Substitution2: "Single Substitution lookup 24 subtable" uni03080300.cap
Substitution2: "'case' Case-Sensitive Forms in Latin lookup 17 subtable" uni03080300.cap
Ligature2: "'ccmp' Glyph Composition/Decomposition in Latin lookup 5 subtable" uni0308 gravecomb
Substitution2: "'aalt' Access All Alternates in Latin lookup 0 subtable" uni03080300.cap
EndChar

StartChar: uni03080300.cap
Encoding: 65687 -1 803
Width: 0
Flags: HW
AnchorPoint: "Anchor-5" 0 1389 mark 0
AnchorPoint: "Anchor-0" 0 1389 mark 0
LayerCount: 2
Fore
SplineSet
104 1718 m 1
 -35 1718 l 1
 -264 1946 l 1
 -78 1946 l 1
 104 1718 l 1
270 1559 m 256
 270 1505 230 1464 176 1464 c 256
 122 1464 84 1505 84 1559 c 256
 84 1613 122 1651 176 1651 c 256
 230 1651 270 1613 270 1559 c 256
-84 1559 m 256
 -84 1505 -122 1464 -176 1464 c 256
 -230 1464 -270 1505 -270 1559 c 256
 -270 1613 -230 1651 -176 1651 c 256
 -122 1651 -84 1613 -84 1559 c 256
EndSplineSet
EndChar

StartChar: uni03020301
Encoding: 65688 -1 804
Width: 0
Flags: HW
AnchorPoint: "Anchor-5" 0 1040 mark 0
AnchorPoint: "Anchor-0" 0 1040 mark 0
LayerCount: 2
Fore
SplineSet
-70 1417 m 1
 70 1417 l 1
 238 1174 l 1
 123 1174 l 1
 4 1323 l 1
 -4 1323 l 1
 -123 1174 l 1
 -238 1174 l 1
 -70 1417 l 1
332 1544 m 1
 475 1544 l 1
 287 1311 l 1
 182 1311 l 1
 332 1544 l 1
EndSplineSet
Substitution2: "Single Substitution lookup 24 subtable" uni03020301.cap
Substitution2: "'case' Case-Sensitive Forms in Latin lookup 17 subtable" uni03020301.cap
Ligature2: "'ccmp' Glyph Composition/Decomposition in Latin lookup 5 subtable" uni0302 acutecomb
Substitution2: "'aalt' Access All Alternates in Latin lookup 0 subtable" uni03020301.cap
EndChar

StartChar: uni03020301.cap
Encoding: 65689 -1 805
Width: 0
Flags: HW
AnchorPoint: "Anchor-5" 0 1389 mark 0
AnchorPoint: "Anchor-0" 0 1389 mark 0
LayerCount: 2
Fore
SplineSet
332 1804 m 1
 479 1804 l 1
 293 1577 l 1
 186 1577 l 1
 332 1804 l 1
-74 1663 m 1
 74 1663 l 1
 262 1446 l 1
 133 1446 l 1
 4 1573 l 1
 -4 1573 l 1
 -133 1446 l 1
 -262 1446 l 1
 -74 1663 l 1
EndSplineSet
EndChar

StartChar: uni03020300
Encoding: 65690 -1 806
Width: 0
Flags: HW
AnchorPoint: "Anchor-5" 0 1040 mark 0
AnchorPoint: "Anchor-0" 0 1040 mark 0
LayerCount: 2
Fore
SplineSet
-70 1417 m 1
 70 1417 l 1
 238 1174 l 1
 123 1174 l 1
 4 1323 l 1
 -4 1323 l 1
 -123 1174 l 1
 -238 1174 l 1
 -70 1417 l 1
412 1311 m 1
 307 1311 l 1
 119 1544 l 1
 260 1544 l 1
 412 1311 l 1
EndSplineSet
Substitution2: "Single Substitution lookup 24 subtable" uni03020300.cap
Substitution2: "'case' Case-Sensitive Forms in Latin lookup 17 subtable" uni03020300.cap
Ligature2: "'ccmp' Glyph Composition/Decomposition in Latin lookup 5 subtable" uni0302 gravecomb
Substitution2: "'aalt' Access All Alternates in Latin lookup 0 subtable" uni03020300.cap
EndChar

StartChar: uni03020300.cap
Encoding: 65691 -1 807
Width: 0
Flags: HW
AnchorPoint: "Anchor-5" 0 1389 mark 0
AnchorPoint: "Anchor-0" 0 1389 mark 0
LayerCount: 2
Fore
SplineSet
377 1577 m 1
 270 1577 l 1
 84 1804 l 1
 231 1804 l 1
 377 1577 l 1
-74 1663 m 1
 74 1663 l 1
 262 1446 l 1
 133 1446 l 1
 4 1573 l 1
 -4 1573 l 1
 -133 1446 l 1
 -262 1446 l 1
 -74 1663 l 1
EndSplineSet
EndChar

StartChar: uni03020309
Encoding: 65692 -1 808
Width: 0
Flags: HW
AnchorPoint: "Anchor-5" 0 1040 mark 0
AnchorPoint: "Anchor-0" 0 1040 mark 0
LayerCount: 2
Fore
SplineSet
-70 1417 m 1
 70 1417 l 1
 238 1174 l 1
 123 1174 l 1
 4 1323 l 1
 -4 1323 l 1
 -123 1174 l 1
 -238 1174 l 1
 -70 1417 l 1
178 1606 m 1
 305 1602 428 1571 428 1456 c 0
 428 1343 331 1307 238 1286 c 1
 219 1358 l 1
 262 1369 305 1388 305 1438 c 0
 305 1506 242 1518 164 1522 c 1
 178 1606 l 1
EndSplineSet
Substitution2: "Single Substitution lookup 24 subtable" uni03020309.cap
Substitution2: "'case' Case-Sensitive Forms in Latin lookup 17 subtable" uni03020309.cap
Ligature2: "'ccmp' Glyph Composition/Decomposition in Latin lookup 5 subtable" uni0302 hookabovecomb
Substitution2: "'aalt' Access All Alternates in Latin lookup 0 subtable" uni03020309.cap
EndChar

StartChar: uni03020309.cap
Encoding: 65693 -1 809
Width: 0
Flags: HW
AnchorPoint: "Anchor-5" 0 1389 mark 0
AnchorPoint: "Anchor-0" 0 1389 mark 0
LayerCount: 2
Fore
SplineSet
178 1855 m 1
 306 1851 424 1822 424 1706 c 0
 424 1599 329 1559 236 1544 c 1
 213 1616 l 1
 255 1627 305 1641 305 1690 c 0
 305 1758 239 1765 160 1769 c 1
 178 1855 l 1
-74 1663 m 1
 74 1663 l 1
 262 1446 l 1
 133 1446 l 1
 4 1573 l 1
 -4 1573 l 1
 -133 1446 l 1
 -262 1446 l 1
 -74 1663 l 1
EndSplineSet
EndChar

StartChar: uni03020303
Encoding: 65694 -1 810
Width: 0
Flags: HW
AnchorPoint: "Anchor-5" 0 1040 mark 0
AnchorPoint: "Anchor-0" 0 1040 mark 0
LayerCount: 2
Fore
SplineSet
-78 1382 m 1
 78 1382 l 1
 254 1169 l 1
 135 1169 l 1
 4 1303 l 1
 -4 1303 l 1
 -135 1169 l 1
 -254 1169 l 1
 -78 1382 l 1
268 1642 m 1
 258 1544 209 1456 106 1456 c 0
 29 1456 -9 1502 -56 1531 c 128
 -70 1540 -86 1544 -102 1544 c 0
 -146 1544 -172 1515 -182 1456 c 1
 -268 1456 l 1
 -258 1554 -209 1642 -106 1642 c 0
 -29 1642 9 1597 56 1568 c 128
 70 1559 86 1554 102 1554 c 0
 146 1554 172 1583 182 1642 c 1
 268 1642 l 1
EndSplineSet
Substitution2: "Single Substitution lookup 24 subtable" uni03020303.cap
Substitution2: "'case' Case-Sensitive Forms in Latin lookup 17 subtable" uni03020303.cap
Ligature2: "'ccmp' Glyph Composition/Decomposition in Latin lookup 5 subtable" uni0302 tildecomb
Substitution2: "'aalt' Access All Alternates in Latin lookup 0 subtable" uni03020303.cap
EndChar

StartChar: uni03020303.cap
Encoding: 65695 -1 811
Width: 0
Flags: HW
AnchorPoint: "Anchor-5" 0 1389 mark 0
AnchorPoint: "Anchor-0" 0 1389 mark 0
LayerCount: 2
Fore
SplineSet
-74 1663 m 1
 74 1663 l 1
 262 1446 l 1
 133 1446 l 1
 4 1573 l 1
 -4 1573 l 1
 -133 1446 l 1
 -262 1446 l 1
 -74 1663 l 1
270 1923 m 1
 260 1827 211 1733 109 1733 c 0
 34 1733 -9 1781 -55 1810 c 128
 -70 1820 -86 1825 -102 1825 c 0
 -146 1825 -173 1794 -184 1733 c 1
 -270 1733 l 1
 -260 1831 -212 1923 -109 1923 c 0
 -34 1923 9 1874 55 1845 c 128
 70 1835 86 1831 102 1831 c 0
 151 1831 175 1877 184 1923 c 1
 270 1923 l 1
EndSplineSet
EndChar

StartChar: uni03060301
Encoding: 65696 -1 812
Width: 0
Flags: HW
AnchorPoint: "Anchor-5" 0 1040 mark 0
AnchorPoint: "Anchor-0" 0 1040 mark 0
LayerCount: 2
Fore
SplineSet
63 1616 m 1
 203 1616 l 1
 23 1386 l 1
 -76 1386 l 1
 63 1616 l 1
258 1438 m 1
 245 1291 163 1178 0 1178 c 256
 -130 1178 -206 1252 -240 1347 c 128
 -251 1378 -257 1408 -258 1438 c 1
 -170 1438 l 1
 -156 1352 -102 1274 0 1274 c 256
 102 1274 156 1352 170 1438 c 1
 258 1438 l 1
EndSplineSet
Substitution2: "Single Substitution lookup 24 subtable" uni03060301.cap
Substitution2: "'case' Case-Sensitive Forms in Latin lookup 17 subtable" uni03060301.cap
Ligature2: "'ccmp' Glyph Composition/Decomposition in Latin lookup 5 subtable" uni0306 acutecomb
Substitution2: "'aalt' Access All Alternates in Latin lookup 0 subtable" uni03060301.cap
EndChar

StartChar: uni03060301.cap
Encoding: 65697 -1 813
Width: 0
Flags: HW
AnchorPoint: "Anchor-5" 0 1389 mark 0
AnchorPoint: "Anchor-0" 0 1389 mark 0
LayerCount: 2
Fore
SplineSet
72 1858 m 1
 219 1858 l 1
 20 1642 l 1
 -80 1642 l 1
 72 1858 l 1
250 1669 m 1
 232 1541 148 1450 0 1450 c 256
 -148 1450 -232 1541 -250 1669 c 1
 -158 1669 l 1
 -141 1595 -95 1538 0 1538 c 256
 95 1538 141 1594 158 1669 c 1
 250 1669 l 1
EndSplineSet
EndChar

StartChar: uni03060300
Encoding: 65698 -1 814
Width: 0
Flags: HW
AnchorPoint: "Anchor-5" 0 1040 mark 0
AnchorPoint: "Anchor-0" 0 1040 mark 0
LayerCount: 2
Fore
SplineSet
76 1386 m 1
 -23 1386 l 1
 -203 1616 l 1
 -63 1616 l 1
 76 1386 l 1
258 1438 m 1
 245 1291 163 1178 0 1178 c 256
 -130 1178 -206 1252 -240 1347 c 128
 -251 1378 -257 1408 -258 1438 c 1
 -170 1438 l 1
 -156 1352 -102 1274 0 1274 c 256
 102 1274 156 1352 170 1438 c 1
 258 1438 l 1
EndSplineSet
Substitution2: "Single Substitution lookup 24 subtable" uni03060300.cap
Substitution2: "'case' Case-Sensitive Forms in Latin lookup 17 subtable" uni03060300.cap
Ligature2: "'ccmp' Glyph Composition/Decomposition in Latin lookup 5 subtable" uni0306 gravecomb
Substitution2: "'aalt' Access All Alternates in Latin lookup 0 subtable" uni03060300.cap
EndChar

StartChar: uni03060300.cap
Encoding: 65699 -1 815
Width: 0
Flags: HW
AnchorPoint: "Anchor-5" 0 1389 mark 0
AnchorPoint: "Anchor-0" 0 1389 mark 0
LayerCount: 2
Fore
SplineSet
80 1642 m 1
 -20 1642 l 1
 -219 1858 l 1
 -72 1858 l 1
 80 1642 l 1
250 1669 m 1
 232 1541 148 1450 0 1450 c 256
 -148 1450 -232 1541 -250 1669 c 1
 -158 1669 l 1
 -141 1595 -95 1538 0 1538 c 256
 95 1538 141 1594 158 1669 c 1
 250 1669 l 1
EndSplineSet
EndChar

StartChar: uni03060309
Encoding: 65700 -1 816
Width: 0
Flags: HW
AnchorPoint: "Anchor-5" 0 1040 mark 0
AnchorPoint: "Anchor-0" 0 1040 mark 0
LayerCount: 2
Fore
SplineSet
258 1438 m 1
 245 1291 163 1178 0 1178 c 256
 -130 1178 -206 1252 -240 1347 c 128
 -251 1378 -257 1408 -258 1438 c 1
 -170 1438 l 1
 -156 1352 -102 1274 0 1274 c 256
 102 1274 156 1352 170 1438 c 1
 258 1438 l 1
-113 1718 m 1
 16 1714 137 1686 137 1569 c 0
 137 1455 39 1420 -55 1399 c 1
 -72 1470 l 1
 -31 1481 14 1501 14 1550 c 0
 14 1618 -49 1630 -127 1634 c 1
 -113 1718 l 1
EndSplineSet
Substitution2: "Single Substitution lookup 24 subtable" uni03060309.cap
Substitution2: "'case' Case-Sensitive Forms in Latin lookup 17 subtable" uni03060309.cap
Ligature2: "'ccmp' Glyph Composition/Decomposition in Latin lookup 5 subtable" uni0306 hookabovecomb
Substitution2: "'aalt' Access All Alternates in Latin lookup 0 subtable" uni03060309.cap
EndChar

StartChar: uni03060309.cap
Encoding: 65701 -1 817
Width: 0
Flags: HW
AnchorPoint: "Anchor-5" 0 1389 mark 0
AnchorPoint: "Anchor-0" 0 1389 mark 0
LayerCount: 2
Fore
SplineSet
-104 1950 m 1
 24 1946 143 1915 143 1800 c 0
 143 1691 47 1654 -47 1638 c 1
 -68 1710 l 1
 -27 1721 23 1736 23 1784 c 0
 23 1852 -44 1860 -121 1864 c 1
 -104 1950 l 1
250 1669 m 1
 232 1541 148 1450 0 1450 c 256
 -148 1450 -232 1541 -250 1669 c 1
 -158 1669 l 1
 -141 1595 -95 1538 0 1538 c 256
 95 1538 141 1594 158 1669 c 1
 250 1669 l 1
EndSplineSet
EndChar

StartChar: uni03060303
Encoding: 65702 -1 818
Width: 0
Flags: HW
AnchorPoint: "Anchor-5" 0 1040 mark 0
AnchorPoint: "Anchor-0" 0 1040 mark 0
LayerCount: 2
Fore
SplineSet
256 1397 m 1
 242 1261 152 1178 0 1178 c 256
 -122 1178 -202 1233 -238 1317 c 128
 -249 1343 -255 1370 -256 1397 c 1
 -164 1397 l 1
 -149 1323 -95 1270 0 1270 c 256
 95 1270 149 1323 164 1397 c 1
 256 1397 l 1
268 1642 m 1
 258 1544 209 1456 106 1456 c 0
 29 1456 -9 1502 -56 1531 c 128
 -70 1540 -86 1544 -102 1544 c 0
 -146 1544 -172 1515 -182 1456 c 1
 -268 1456 l 1
 -258 1554 -209 1642 -106 1642 c 0
 -29 1642 9 1597 56 1568 c 128
 70 1559 86 1554 102 1554 c 0
 146 1554 172 1583 182 1642 c 1
 268 1642 l 1
EndSplineSet
Substitution2: "Single Substitution lookup 24 subtable" uni03060303.cap
Substitution2: "'case' Case-Sensitive Forms in Latin lookup 17 subtable" uni03060303.cap
Ligature2: "'ccmp' Glyph Composition/Decomposition in Latin lookup 5 subtable" uni0306 tildecomb
Substitution2: "'aalt' Access All Alternates in Latin lookup 0 subtable" uni03060303.cap
EndChar

StartChar: uni03060303.cap
Encoding: 65703 -1 819
Width: 0
Flags: HW
AnchorPoint: "Anchor-5" 0 1389 mark 0
AnchorPoint: "Anchor-0" 0 1389 mark 0
LayerCount: 2
Fore
SplineSet
250 1669 m 1
 232 1541 148 1450 0 1450 c 256
 -148 1450 -232 1541 -250 1669 c 1
 -158 1669 l 1
 -141 1595 -95 1538 0 1538 c 256
 95 1538 141 1594 158 1669 c 1
 250 1669 l 1
270 1923 m 1
 260 1827 211 1733 109 1733 c 0
 34 1733 -9 1781 -55 1810 c 128
 -70 1820 -86 1825 -102 1825 c 0
 -146 1825 -173 1794 -184 1733 c 1
 -270 1733 l 1
 -260 1831 -212 1923 -109 1923 c 0
 -34 1923 9 1874 55 1845 c 128
 70 1835 86 1831 102 1831 c 0
 151 1831 175 1877 184 1923 c 1
 270 1923 l 1
EndSplineSet
EndChar

StartChar: uni030C.a
Encoding: 65704 -1 820
Width: 36
Flags: HW
LayerCount: 2
Fore
SplineSet
-51 1122 m 1
 -59 1556 l 1
 61 1556 l 1
 59 1440 l 1
 31 1122 l 1
 -51 1122 l 1
EndSplineSet
EndChar

StartChar: uni0326.a
Encoding: 65705 -1 821
Width: 0
Flags: HW
AnchorPoint: "Anchor-5" 0 1040 mark 0
AnchorPoint: "Anchor-0" 0 1040 mark 0
LayerCount: 2
Fore
SplineSet
57 1108 m 1
 -54 1125 -141 1156 -141 1266 c 0
 -141 1405 27 1440 154 1454 c 1
 170 1370 l 1
 98 1361 -10 1344 -10 1278 c 0
 -10 1218 42 1198 94 1186 c 1
 57 1108 l 1
EndSplineSet
EndChar

StartChar: uni0243
Encoding: 579 579 826
Width: 1234
Flags: HW
LayerCount: 2
Fore
SplineSet
991 410 m 0
 991 606 834 666 625 666 c 2
 389 666 l 1
 389 459 l 1
 700 459 l 1
 700 362 l 1
 389 362 l 1
 389 129 l 1
 625 129 l 2
 839 129 991 205 991 410 c 0
915 1008 m 0
 915 1175 777 1217 596 1217 c 2
 389 1217 l 1
 389 778 l 1
 590 778 l 2
 785 778 915 832 915 1008 c 0
1079 1020 m 0
 1079 865 981 772 846 737 c 1
 846 729 l 1
 1028 701 1157 602 1157 401 c 0
 1157 114 937 0 649 0 c 2
 219 0 l 1
 219 362 l 1
 61 362 l 1
 61 451 l 1
 219 459 l 1
 219 1343 l 1
 618 1343 l 2
 817 1343 976 1295 1046 1167 c 128
 1069 1126 1079 1077 1079 1020 c 0
EndSplineSet
EndChar

StartChar: uni0180
Encoding: 384 384 829
Width: 1114
Flags: HW
LayerCount: 2
Fore
SplineSet
864 492 m 0
 864 690 797 838 602 838 c 0
 521 838 433 792 336 702 c 1
 336 221 l 1
 401 164 481 117 580 117 c 0
 727 117 807 218 843 334 c 128
 857 380 864 433 864 492 c 0
608 -25 m 0
 492 -25 394 35 324 98 c 1
 317 98 l 1
 303 0 l 1
 168 0 l 1
 168 1169 l 1
 16 1169 l 1
 16 1257 l 1
 168 1268 l 1
 168 1458 l 1
 336 1458 l 1
 336 1268 l 1
 709 1268 l 1
 709 1169 l 1
 336 1169 l 1
 336 1020 l 1
 332 840 l 1
 407 906 514 979 643 979 c 0
 919 979 1038 772 1038 494 c 0
 1038 255 936 83 772 10 c 128
 720 -13 665 -25 608 -25 c 0
EndSplineSet
EndChar

StartChar: uni03020306
Encoding: 65708 -1 832
Width: 0
Flags: HW
AnchorPoint: "Anchor-5" 0 1040 mark 0
AnchorPoint: "Anchor-0" 0 1040 mark 0
LayerCount: 2
Fore
SplineSet
-78 1382 m 1
 78 1382 l 1
 254 1169 l 1
 135 1169 l 1
 4 1303 l 1
 -4 1303 l 1
 -135 1169 l 1
 -254 1169 l 1
 -78 1382 l 1
236 1642 m 1
 223 1517 140 1444 0 1444 c 0
 -136 1444 -229 1516 -236 1642 c 1
 -143 1642 l 1
 -131 1576 -83 1536 0 1536 c 256
 83 1536 131 1576 143 1642 c 1
 236 1642 l 1
EndSplineSet
Substitution2: "Single Substitution lookup 24 subtable" uni03020306.cap
Substitution2: "'case' Case-Sensitive Forms in Latin lookup 17 subtable" uni03020306.cap
Ligature2: "'ccmp' Glyph Composition/Decomposition in Latin lookup 5 subtable" uni0302 uni0306
Substitution2: "'aalt' Access All Alternates in Latin lookup 0 subtable" uni03020306.cap
EndChar

StartChar: uni03020306.cap
Encoding: 65709 -1 833
Width: 0
Flags: HW
AnchorPoint: "Anchor-5" 0 1389 mark 0
AnchorPoint: "Anchor-0" 0 1389 mark 0
LayerCount: 2
Fore
SplineSet
-74 1663 m 1
 74 1663 l 1
 262 1446 l 1
 133 1446 l 1
 4 1573 l 1
 -4 1573 l 1
 -133 1446 l 1
 -262 1446 l 1
 -74 1663 l 1
250 1921 m 1
 235 1800 145 1722 0 1722 c 256
 -145 1722 -235 1800 -250 1921 c 1
 -158 1921 l 1
 -140 1852 -92 1812 0 1812 c 256
 92 1812 140 1852 158 1921 c 1
 250 1921 l 1
EndSplineSet
EndChar
